<svg xmlns="http://www.w3.org/2000/svg" width="1200" height="630" viewBox="0 0 1200 630" role="img" aria-labelledby="title desc">
  <title id="title">The Number Garden social preview</title>
  <desc id="desc">The Number Garden logo mark with wordmark and tagline on a warm cream background.</desc>
  <defs>
    <linearGradient id="paper" x1="0" y1="0" x2="1" y2="1">
      <stop offset="0%" stop-color="#FDF8EF" />
      <stop offset="100%" stop-color="#F4EFDE" />
    </linearGradient>
    <radialGradient id="glowA" cx="0" cy="0" r="1" gradientUnits="userSpaceOnUse" gradientTransform="translate(180 120) rotate(27) scale(260 220)">
      <stop offset="0%" stop-color="#F4C96B" stop-opacity="0.26" />
      <stop offset="100%" stop-color="#F4C96B" stop-opacity="0" />
    </radialGradient>
    <radialGradient id="glowB" cx="0" cy="0" r="1" gradientUnits="userSpaceOnUse" gradientTransform="translate(1040 120) rotate(12) scale(280 220)">
      <stop offset="0%" stop-color="#6C8A53" stop-opacity="0.18" />
      <stop offset="100%" stop-color="#6C8A53" stop-opacity="0" />
    </radialGradient>
    <filter id="shadow" x="-20%" y="-20%" width="140%" height="140%">
      <feDropShadow dx="0" dy="18" stdDeviation="20" flood-color="#1F2A1F" flood-opacity="0.16" />
    </filter>
  </defs>

  <rect width="1200" height="630" fill="url(#paper)" />
  <rect width="1200" height="630" fill="url(#glowA)" />
  <rect width="1200" height="630" fill="url(#glowB)" />

  <g filter="url(#shadow)">
    <rect x="76" y="79" width="392" height="472" rx="44" fill="#FFFAF2" fill-opacity="0.9" />
  </g>

  <g transform="translate(82 88) scale(0.74)">
    <polygon points="266.32,241.26 273.21,261.26 256.31,274.00 238.98,261.86 245.17,241.62" fill="none" stroke="#DBE8D0" stroke-width="1.5" stroke-linejoin="round" opacity="0.9" />
    <polygon points="255.44,224.00 286.26,245.58 275.26,281.56 237.65,282.21 225.40,246.64" fill="none" stroke="#DBE8D0" stroke-width="1.5" stroke-linejoin="round" opacity="0.9" />
    <polygon points="228.32,219.26 282.38,218.32 299.99,269.45 256.80,301.99 212.51,270.98" fill="none" stroke="#DBE8D0" stroke-width="1.5" stroke-linejoin="round" opacity="0.9" />
    <polygon points="198.62,238.46 254.95,196.01 312.73,236.47 292.11,303.92 221.59,305.15" fill="none" stroke="#DBE8D0" stroke-width="1.5" stroke-linejoin="round" opacity="0.9" />
    <circle cx="256.00" cy="256.00" r="13.10" fill="#36543B" />
    <circle cx="266.32" cy="241.26" r="13.10" fill="#DBE8D0" />
    <circle cx="273.21" cy="261.26" r="13.10" fill="#DBE8D0" />
    <circle cx="256.31" cy="274.00" r="13.10" fill="#DBE8D0" />
    <circle cx="238.98" cy="261.86" r="13.10" fill="#DBE8D0" />
    <circle cx="245.17" cy="241.62" r="13.10" fill="#DBE8D0" />
    <circle cx="255.44" cy="224.00" r="13.10" fill="#DBE8D0" />
    <circle cx="270.85" cy="234.79" r="13.10" fill="#DBE8D0" />
    <circle cx="286.26" cy="245.58" r="13.10" fill="#DBE8D0" />
    <circle cx="280.76" cy="263.57" r="13.10" fill="#DBE8D0" />
    <circle cx="275.26" cy="281.56" r="13.10" fill="#DBE8D0" />
    <circle cx="256.45" cy="281.88" r="13.10" fill="#DBE8D0" />
    <circle cx="237.65" cy="282.21" r="13.10" fill="#DBE8D0" />
    <circle cx="231.52" cy="264.43" r="13.10" fill="#DBE8D0" />
    <circle cx="225.40" cy="246.64" r="13.10" fill="#DBE8D0" />
    <circle cx="240.42" cy="235.32" r="13.10" fill="#DBE8D0" />
    <circle cx="228.32" cy="219.26" r="13.10" fill="#6C8A53" />
    <circle cx="246.34" cy="218.95" r="13.10" fill="#6C8A53" />
    <circle cx="264.36" cy="218.63" r="13.10" fill="#6C8A53" />
    <circle cx="282.38" cy="218.32" r="13.10" fill="#6C8A53" />
    <circle cx="288.25" cy="235.36" r="13.10" fill="#6C8A53" />
    <circle cx="294.12" cy="252.41" r="13.10" fill="#6C8A53" />
    <circle cx="299.99" cy="269.45" r="13.10" fill="#6C8A53" />
    <circle cx="285.59" cy="280.30" r="13.10" fill="#6C8A53" />
    <circle cx="271.20" cy="291.15" r="13.10" fill="#6C8A53" />
    <circle cx="256.80" cy="301.99" r="13.10" fill="#6C8A53" />
    <circle cx="242.04" cy="291.65" r="13.10" fill="#6C8A53" />
    <circle cx="227.27" cy="281.32" r="13.10" fill="#6C8A53" />
    <circle cx="212.51" cy="270.98" r="13.10" fill="#6C8A53" />
    <circle cx="217.78" cy="253.74" r="13.10" fill="#6C8A53" />
    <circle cx="223.05" cy="236.50" r="13.10" fill="#6C8A53" />
    <circle cx="198.62" cy="238.46" r="13.10" fill="#36543B" />
    <circle cx="212.70" cy="227.85" r="13.10" fill="#36543B" />
    <circle cx="226.79" cy="217.23" r="13.10" fill="#36543B" />
    <circle cx="240.87" cy="206.62" r="13.10" fill="#36543B" />
    <circle cx="254.95" cy="196.01" r="13.10" fill="#36543B" />
    <circle cx="269.40" cy="206.12" r="13.10" fill="#36543B" />
    <circle cx="283.84" cy="216.24" r="13.10" fill="#36543B" />
    <circle cx="298.29" cy="226.35" r="13.10" fill="#36543B" />
    <circle cx="312.73" cy="236.47" r="13.10" fill="#36543B" />
    <circle cx="307.58" cy="253.33" r="13.10" fill="#36543B" />
    <circle cx="302.42" cy="270.19" r="13.10" fill="#36543B" />
    <circle cx="297.26" cy="287.06" r="13.10" fill="#36543B" />
    <circle cx="292.11" cy="303.92" r="13.10" fill="#36543B" />
    <circle cx="274.48" cy="304.23" r="13.10" fill="#36543B" />
    <circle cx="256.85" cy="304.53" r="13.10" fill="#36543B" />
    <circle cx="239.22" cy="304.84" r="13.10" fill="#36543B" />
    <circle cx="221.59" cy="305.15" r="13.10" fill="#36543B" />
    <circle cx="215.84" cy="288.48" r="13.10" fill="#36543B" />
    <circle cx="210.10" cy="271.80" r="13.10" fill="#36543B" />
    <circle cx="204.36" cy="255.13" r="13.10" fill="#36543B" />
  </g>

  <text x="520" y="172" fill="#C86D4B" font-family="Avenir Next, Manrope, Arial, sans-serif" font-size="24" font-weight="800" letter-spacing="5.8">PORTLAND MATH STUDIO</text>
  <text x="500" y="286" fill="#1F2A1F" font-family="Fraunces, Georgia, serif" font-size="64" font-weight="600" letter-spacing="-1.9">The Number Garden</text>
  <text x="500" y="382" fill="#536151" font-family="Avenir Next, Manrope, Arial, sans-serif" font-size="34" font-weight="600">Joyful mathematics for curious minds</text>
  <text x="500" y="466" fill="#36543B" font-family="Avenir Next, Manrope, Arial, sans-serif" font-size="28" font-weight="700">thenumbergarden.com</text>
</svg>
