<svg xmlns="http://www.w3.org/2000/svg" width="1080" height="1350" viewBox="0 0 1080 1350" role="img" aria-labelledby="title desc">
  <title id="title">Truth can be beautiful.</title>
  <desc id="desc">A quote card from The Number Garden featuring Bertrand Russell.</desc>
  <defs>
    <linearGradient id="paper" x1="0" y1="0" x2="1080" y2="1350" gradientUnits="userSpaceOnUse">
      <stop offset="0" stop-color="#FDF8EF" />
      <stop offset="1" stop-color="#F4EFDE" />
    </linearGradient>
    <pattern id="dot-grid" width="60" height="60" patternUnits="userSpaceOnUse">
      <circle cx="6" cy="6" r="2" fill="#6C8A53" opacity="0.16" />
    </pattern>
  </defs>

  <rect width="1080" height="1350" fill="url(#paper)" />
  <rect width="1080" height="1350" fill="url(#dot-grid)" opacity="0.24" />
  <circle cx="92" cy="92" r="216" fill="#F4C96B" opacity="0.12" />
  <circle cx="988" cy="1258" r="259" fill="#DBE8D0" opacity="0.38" />

  <g transform="translate(848 71.76) scale(0.7070707070707071)" opacity="0.92">

  <circle cx="99.00" cy="99.00" r="13.1" fill="#36543b" />
  <circle cx="111.58" cy="81.69" r="13.1" fill="#dbe8d0" />
  <circle cx="119.35" cy="105.61" r="13.1" fill="#dbe8d0" />
  <circle cx="99.00" cy="120.40" r="13.1" fill="#dbe8d0" />
  <circle cx="78.65" cy="105.61" r="13.1" fill="#dbe8d0" />
  <circle cx="86.42" cy="81.69" r="13.1" fill="#dbe8d0" />
  <circle cx="99.00" cy="64.00" r="13.1" fill="#dbe8d0" />
  <circle cx="115.64" cy="76.09" r="13.1" fill="#dbe8d0" />
  <circle cx="132.29" cy="88.18" r="13.1" fill="#dbe8d0" />
  <circle cx="125.93" cy="107.75" r="13.1" fill="#dbe8d0" />
  <circle cx="119.57" cy="127.32" r="13.1" fill="#dbe8d0" />
  <circle cx="99.00" cy="127.32" r="13.1" fill="#dbe8d0" />
  <circle cx="78.43" cy="127.32" r="13.1" fill="#dbe8d0" />
  <circle cx="72.07" cy="107.75" r="13.1" fill="#dbe8d0" />
  <circle cx="65.71" cy="88.18" r="13.1" fill="#dbe8d0" />
  <circle cx="82.36" cy="76.09" r="13.1" fill="#dbe8d0" />
  <circle cx="70.43" cy="59.68" r="13.8" fill="#6c8a53" />
  <circle cx="89.48" cy="59.68" r="13.8" fill="#6c8a53" />
  <circle cx="108.52" cy="59.68" r="13.8" fill="#6c8a53" />
  <circle cx="127.57" cy="59.68" r="13.8" fill="#6c8a53" />
  <circle cx="133.45" cy="77.79" r="13.8" fill="#6c8a53" />
  <circle cx="139.34" cy="95.91" r="13.8" fill="#6c8a53" />
  <circle cx="145.22" cy="114.02" r="13.8" fill="#6c8a53" />
  <circle cx="129.81" cy="125.21" r="13.8" fill="#6c8a53" />
  <circle cx="114.41" cy="136.41" r="13.8" fill="#6c8a53" />
  <circle cx="99.00" cy="147.60" r="13.8" fill="#6c8a53" />
  <circle cx="83.59" cy="136.41" r="13.8" fill="#6c8a53" />
  <circle cx="68.19" cy="125.21" r="13.8" fill="#6c8a53" />
  <circle cx="52.78" cy="114.02" r="13.8" fill="#6c8a53" />
  <circle cx="58.66" cy="95.91" r="13.8" fill="#6c8a53" />
  <circle cx="64.55" cy="77.79" r="13.8" fill="#6c8a53" />
  <circle cx="40.80" cy="80.09" r="12.2" fill="#36543b" />
  <circle cx="55.35" cy="69.52" r="12.2" fill="#36543b" />
  <circle cx="69.90" cy="58.94" r="12.2" fill="#36543b" />
  <circle cx="84.45" cy="48.37" r="12.2" fill="#36543b" />
  <circle cx="99.00" cy="37.80" r="12.2" fill="#36543b" />
  <circle cx="113.55" cy="48.37" r="12.2" fill="#36543b" />
  <circle cx="128.10" cy="58.94" r="12.2" fill="#36543b" />
  <circle cx="142.65" cy="69.52" r="12.2" fill="#36543b" />
  <circle cx="157.20" cy="80.09" r="12.2" fill="#36543b" />
  <circle cx="151.65" cy="97.19" r="12.2" fill="#36543b" />
  <circle cx="146.09" cy="114.30" r="12.2" fill="#36543b" />
  <circle cx="140.53" cy="131.41" r="12.2" fill="#36543b" />
  <circle cx="134.97" cy="148.51" r="12.2" fill="#36543b" />
  <circle cx="116.99" cy="148.51" r="12.2" fill="#36543b" />
  <circle cx="99.00" cy="148.51" r="12.2" fill="#36543b" />
  <circle cx="81.01" cy="148.51" r="12.2" fill="#36543b" />
  <circle cx="63.03" cy="148.51" r="12.2" fill="#36543b" />
  <circle cx="57.47" cy="131.41" r="12.2" fill="#36543b" />
  <circle cx="51.91" cy="114.30" r="12.2" fill="#36543b" />
  <circle cx="46.35" cy="97.19" r="12.2" fill="#36543b" />

  </g>

  <text x="92" y="116" fill="#C86D4B" font-family="Avenir Next, Manrope, Arial, sans-serif" font-size="30" font-weight="800">
    <tspan x="92" dy="0">Truth can be beautiful.</tspan>
  </text>

  <text x="92" y="419" fill="#1F2A1F" font-family="Fraunces, Georgia, serif" font-size="66" font-weight="600">
    <tspan x="92" dy="0">“Mathematics, rightly</tspan>
    <tspan x="92" dy="77">viewed, possesses not only</tspan>
    <tspan x="92" dy="77">truth, but supreme beauty.”</tspan>
  </text>

  <text x="92" y="678" fill="#36543B" font-family="Avenir Next, Manrope, Arial, sans-serif" font-size="27" font-weight="800">Bertrand Russell</text>
  <text x="92" y="714" fill="#536151" font-family="Avenir Next, Manrope, Arial, sans-serif" font-size="22" font-weight="600">The Study of Mathematics, 1907</text>

  <line x1="92" y1="1214" x2="988" y2="1214" stroke="#36543B" stroke-opacity="0.18" stroke-width="2" />
  <text x="92" y="1258" fill="#1F2A1F" font-family="Avenir Next, Manrope, Arial, sans-serif" font-size="22" font-weight="800">The Number Garden</text>
  <text x="988" y="1258" text-anchor="end" fill="#536151" font-family="Avenir Next, Manrope, Arial, sans-serif" font-size="22" font-weight="700">thenumbergarden.com</text>
</svg>
