<svg xmlns="http://www.w3.org/2000/svg" width="1200" height="628" viewBox="0 0 1200 628" role="img" aria-labelledby="title desc">
  <title id="title">Mathematics is pattern-making.</title>
  <desc id="desc">A quote card from The Number Garden featuring G. H. Hardy.</desc>
  <defs>
    <linearGradient id="paper" x1="0" y1="0" x2="1200" y2="628" gradientUnits="userSpaceOnUse">
      <stop offset="0" stop-color="#FDF8EF" />
      <stop offset="1" stop-color="#F4EFDE" />
    </linearGradient>
    <pattern id="dot-grid" width="67" height="67" patternUnits="userSpaceOnUse">
      <circle cx="7" cy="7" r="2.2222222222222223" fill="#6C8A53" opacity="0.16" />
    </pattern>
  </defs>

  <rect width="1200" height="628" fill="url(#paper)" />
  <rect width="1200" height="628" fill="url(#dot-grid)" opacity="0.24" />
  <circle cx="84" cy="84" r="240" fill="#F4C96B" opacity="0.12" />
  <circle cx="1116" cy="544" r="288" fill="#DBE8D0" opacity="0.38" />

  <g transform="translate(984 65.52) scale(0.6666666666666666)" opacity="0.92">

  <circle cx="99.00" cy="99.00" r="13.1" fill="#36543b" />
  <circle cx="111.58" cy="81.69" r="13.1" fill="#dbe8d0" />
  <circle cx="119.35" cy="105.61" r="13.1" fill="#dbe8d0" />
  <circle cx="99.00" cy="120.40" r="13.1" fill="#dbe8d0" />
  <circle cx="78.65" cy="105.61" r="13.1" fill="#dbe8d0" />
  <circle cx="86.42" cy="81.69" r="13.1" fill="#dbe8d0" />
  <circle cx="99.00" cy="64.00" r="13.1" fill="#dbe8d0" />
  <circle cx="115.64" cy="76.09" r="13.1" fill="#dbe8d0" />
  <circle cx="132.29" cy="88.18" r="13.1" fill="#dbe8d0" />
  <circle cx="125.93" cy="107.75" r="13.1" fill="#dbe8d0" />
  <circle cx="119.57" cy="127.32" r="13.1" fill="#dbe8d0" />
  <circle cx="99.00" cy="127.32" r="13.1" fill="#dbe8d0" />
  <circle cx="78.43" cy="127.32" r="13.1" fill="#dbe8d0" />
  <circle cx="72.07" cy="107.75" r="13.1" fill="#dbe8d0" />
  <circle cx="65.71" cy="88.18" r="13.1" fill="#dbe8d0" />
  <circle cx="82.36" cy="76.09" r="13.1" fill="#dbe8d0" />
  <circle cx="70.43" cy="59.68" r="13.8" fill="#6c8a53" />
  <circle cx="89.48" cy="59.68" r="13.8" fill="#6c8a53" />
  <circle cx="108.52" cy="59.68" r="13.8" fill="#6c8a53" />
  <circle cx="127.57" cy="59.68" r="13.8" fill="#6c8a53" />
  <circle cx="133.45" cy="77.79" r="13.8" fill="#6c8a53" />
  <circle cx="139.34" cy="95.91" r="13.8" fill="#6c8a53" />
  <circle cx="145.22" cy="114.02" r="13.8" fill="#6c8a53" />
  <circle cx="129.81" cy="125.21" r="13.8" fill="#6c8a53" />
  <circle cx="114.41" cy="136.41" r="13.8" fill="#6c8a53" />
  <circle cx="99.00" cy="147.60" r="13.8" fill="#6c8a53" />
  <circle cx="83.59" cy="136.41" r="13.8" fill="#6c8a53" />
  <circle cx="68.19" cy="125.21" r="13.8" fill="#6c8a53" />
  <circle cx="52.78" cy="114.02" r="13.8" fill="#6c8a53" />
  <circle cx="58.66" cy="95.91" r="13.8" fill="#6c8a53" />
  <circle cx="64.55" cy="77.79" r="13.8" fill="#6c8a53" />
  <circle cx="40.80" cy="80.09" r="12.2" fill="#36543b" />
  <circle cx="55.35" cy="69.52" r="12.2" fill="#36543b" />
  <circle cx="69.90" cy="58.94" r="12.2" fill="#36543b" />
  <circle cx="84.45" cy="48.37" r="12.2" fill="#36543b" />
  <circle cx="99.00" cy="37.80" r="12.2" fill="#36543b" />
  <circle cx="113.55" cy="48.37" r="12.2" fill="#36543b" />
  <circle cx="128.10" cy="58.94" r="12.2" fill="#36543b" />
  <circle cx="142.65" cy="69.52" r="12.2" fill="#36543b" />
  <circle cx="157.20" cy="80.09" r="12.2" fill="#36543b" />
  <circle cx="151.65" cy="97.19" r="12.2" fill="#36543b" />
  <circle cx="146.09" cy="114.30" r="12.2" fill="#36543b" />
  <circle cx="140.53" cy="131.41" r="12.2" fill="#36543b" />
  <circle cx="134.97" cy="148.51" r="12.2" fill="#36543b" />
  <circle cx="116.99" cy="148.51" r="12.2" fill="#36543b" />
  <circle cx="99.00" cy="148.51" r="12.2" fill="#36543b" />
  <circle cx="81.01" cy="148.51" r="12.2" fill="#36543b" />
  <circle cx="63.03" cy="148.51" r="12.2" fill="#36543b" />
  <circle cx="57.47" cy="131.41" r="12.2" fill="#36543b" />
  <circle cx="51.91" cy="114.30" r="12.2" fill="#36543b" />
  <circle cx="46.35" cy="97.19" r="12.2" fill="#36543b" />

  </g>

  <text x="84" y="111" fill="#C86D4B" font-family="Avenir Next, Manrope, Arial, sans-serif" font-size="27" font-weight="800">
    <tspan x="84" dy="0">Mathematics is pattern-making.</tspan>
  </text>

  <text x="84" y="195" fill="#1F2A1F" font-family="Fraunces, Georgia, serif" font-size="49" font-weight="600">
    <tspan x="84" dy="0">“A mathematician, like a painter</tspan>
    <tspan x="84" dy="57">or poet, is a maker of</tspan>
    <tspan x="84" dy="57">patterns.”</tspan>
  </text>

  <text x="84" y="397" fill="#36543B" font-family="Avenir Next, Manrope, Arial, sans-serif" font-size="24" font-weight="800">G. H. Hardy</text>
  <text x="84" y="429" fill="#536151" font-family="Avenir Next, Manrope, Arial, sans-serif" font-size="19" font-weight="600">A Mathematician's Apology, 1940</text>

  <line x1="84" y1="495" x2="1116" y2="495" stroke="#36543B" stroke-opacity="0.18" stroke-width="2" />
  <text x="84" y="544" fill="#1F2A1F" font-family="Avenir Next, Manrope, Arial, sans-serif" font-size="19" font-weight="800">The Number Garden</text>
  <text x="1116" y="544" text-anchor="end" fill="#536151" font-family="Avenir Next, Manrope, Arial, sans-serif" font-size="19" font-weight="700">thenumbergarden.com</text>
</svg>
