<svg xmlns="http://www.w3.org/2000/svg" viewBox="0 0 540 540" role="img" aria-label="Seedbed QR code for The Number Garden"><defs><linearGradient id="seedbed-bg" x1="0%" y1="0%" x2="100%" y2="100%"><stop offset="0%" stop-color="#FDF8EF"/><stop offset="100%" stop-color="#FFFAF2"/></linearGradient></defs><rect width="540" height="540" rx="26.400000000000002" fill="url(#seedbed-bg)"/><rect x="33.6" y="33.6" width="472.8" height="472.8" rx="20.4" fill="none" stroke="#DFE8D1" stroke-width="1.5" opacity="0.85"/><circle cx="210" cy="54" r="3.6" fill="#36543B"/><circle cx="258" cy="54" r="3.6" fill="#36543B"/><circle cx="270" cy="54" r="3.6" fill="#36543B"/><circle cx="294" cy="54" r="3.6" fill="#6C8A53"/><circle cx="318" cy="54" r="3.6" fill="#36543B"/><circle cx="378" cy="54" r="3.6" fill="#36543B"/><circle cx="162" cy="66" r="3.6" fill="#6C8A53"/><circle cx="174" cy="66" r="3.6" fill="#36543B"/><circle cx="186" cy="66" r="3.6" fill="#36543B"/><circle cx="222" cy="66" r="3.6" fill="#6C8A53"/><circle cx="234" cy="66" r="3.6" fill="#36543B"/><circle cx="258" cy="66" r="3.6" fill="#36543B"/><circle cx="294" cy="66" r="3.6" fill="#36543B"/><circle cx="306" cy="66" r="3.6" fill="#36543B"/><circle cx="330" cy="66" r="3.6" fill="#36543B"/><circle cx="342" cy="66" r="3.6" fill="#6C8A53"/><circle cx="354" cy="66" r="3.6" fill="#36543B"/><circle cx="366" cy="66" r="3.6" fill="#36543B"/><rect x="146.4" y="74.4" width="7.2" height="7.2" rx="2.4" fill="#6C8A53"/><circle cx="186" cy="78" r="3.6" fill="#36543B"/><circle cx="198" cy="78" r="3.6" fill="#36543B"/><circle cx="210" cy="78" r="3.6" fill="#6C8A53"/><circle cx="270" cy="78" r="3.6" fill="#6C8A53"/><circle cx="354" cy="78" r="3.6" fill="#36543B"/><circle cx="366" cy="78" r="3.6" fill="#36543B"/><circle cx="378" cy="78" r="3.6" fill="#36543B"/><circle cx="390" cy="78" r="3.6" fill="#6C8A53"/><rect x="146.4" y="86.4" width="7.2" height="7.2" rx="2.4" fill="#36543B"/><circle cx="162" cy="90" r="3.6" fill="#36543B"/><circle cx="198" cy="90" r="3.6" fill="#6C8A53"/><circle cx="210" cy="90" r="3.6" fill="#36543B"/><circle cx="234" cy="90" r="3.6" fill="#36543B"/><circle cx="246" cy="90" r="3.6" fill="#36543B"/><circle cx="270" cy="90" r="3.6" fill="#36543B"/><circle cx="282" cy="90" r="3.6" fill="#36543B"/><circle cx="318" cy="90" r="3.6" fill="#6C8A53"/><circle cx="330" cy="90" r="3.6" fill="#36543B"/><circle cx="366" cy="90" r="3.6" fill="#36543B"/><circle cx="390" cy="90" r="3.6" fill="#36543B"/><circle cx="162" cy="102" r="3.6" fill="#36543B"/><circle cx="222" cy="102" r="3.6" fill="#36543B"/><circle cx="234" cy="102" r="3.6" fill="#36543B"/><circle cx="270" cy="102" r="3.6" fill="#36543B"/><circle cx="306" cy="102" r="3.6" fill="#6C8A53"/><circle cx="366" cy="102" r="3.6" fill="#6C8A53"/><circle cx="390" cy="102" r="3.6" fill="#36543B"/><circle cx="162" cy="114" r="3.6" fill="#36543B"/><circle cx="174" cy="114" r="3.6" fill="#6C8A53"/><circle cx="186" cy="114" r="3.6" fill="#36543B"/><circle cx="210" cy="114" r="3.6" fill="#36543B"/><circle cx="222" cy="114" r="3.6" fill="#36543B"/><circle cx="270" cy="114" r="3.6" fill="#36543B"/><circle cx="282" cy="114" r="3.6" fill="#36543B"/><circle cx="294" cy="114" r="3.6" fill="#6C8A53"/><circle cx="318" cy="114" r="3.6" fill="#36543B"/><circle cx="354" cy="114" r="3.6" fill="#6C8A53"/><circle cx="378" cy="114" r="3.6" fill="#36543B"/><circle cx="390" cy="114" r="3.6" fill="#36543B"/><rect x="146.4" y="122.4" width="7.2" height="7.2" rx="2.4" fill="#36543B"/><rect x="170.4" y="122.4" width="7.2" height="7.2" rx="2.4" fill="#36543B"/><rect x="194.4" y="122.4" width="7.2" height="7.2" rx="2.4" fill="#36543B"/><rect x="218.4" y="122.4" width="7.2" height="7.2" rx="2.4" fill="#6C8A53"/><rect x="242.4" y="122.4" width="7.2" height="7.2" rx="2.4" fill="#36543B"/><rect x="266.4" y="122.4" width="7.2" height="7.2" rx="2.4" fill="#36543B"/><rect x="290.4" y="122.4" width="7.2" height="7.2" rx="2.4" fill="#36543B"/><rect x="314.4" y="122.4" width="7.2" height="7.2" rx="2.4" fill="#36543B"/><rect x="338.4" y="122.4" width="7.2" height="7.2" rx="2.4" fill="#6C8A53"/><rect x="362.4" y="122.4" width="7.2" height="7.2" rx="2.4" fill="#36543B"/><rect x="386.4" y="122.4" width="7.2" height="7.2" rx="2.4" fill="#36543B"/><rect x="146.4" y="134.4" width="7.2" height="7.2" rx="2.4" fill="#6C8A53"/><circle cx="162" cy="138" r="3.6" fill="#36543B"/><circle cx="174" cy="138" r="3.6" fill="#36543B"/><circle cx="186" cy="138" r="3.6" fill="#36543B"/><circle cx="210" cy="138" r="3.6" fill="#6C8A53"/><circle cx="222" cy="138" r="3.6" fill="#36543B"/><circle cx="234" cy="138" r="3.6" fill="#36543B"/><circle cx="246" cy="138" r="3.6" fill="#36543B"/><circle cx="270" cy="138" r="3.6" fill="#6C8A53"/><circle cx="282" cy="138" r="3.6" fill="#36543B"/><circle cx="306" cy="138" r="3.6" fill="#36543B"/><circle cx="330" cy="138" r="3.6" fill="#6C8A53"/><circle cx="366" cy="138" r="3.6" fill="#36543B"/><rect x="98.4" y="146.4" width="7.2" height="7.2" rx="2.4" fill="#36543B"/><rect x="122.4" y="146.4" width="7.2" height="7.2" rx="2.4" fill="#36543B"/><rect x="134.4" y="146.4" width="7.2" height="7.2" rx="2.4" fill="#6C8A53"/><rect x="146.4" y="146.4" width="7.2" height="7.2" rx="2.4" fill="#36543B"/><circle cx="162" cy="150" r="3.6" fill="#36543B"/><circle cx="174" cy="150" r="3.6" fill="#36543B"/><circle cx="186" cy="150" r="3.6" fill="#36543B"/><circle cx="234" cy="150" r="3.6" fill="#36543B"/><circle cx="258" cy="150" r="3.6" fill="#6C8A53"/><circle cx="270" cy="150" r="3.6" fill="#36543B"/><circle cx="282" cy="150" r="3.6" fill="#36543B"/><circle cx="294" cy="150" r="3.6" fill="#36543B"/><circle cx="318" cy="150" r="3.6" fill="#6C8A53"/><circle cx="330" cy="150" r="3.6" fill="#36543B"/><rect x="398.4" y="146.4" width="7.2" height="7.2" rx="2.4" fill="#36543B"/><rect x="410.4" y="146.4" width="7.2" height="7.2" rx="2.4" fill="#36543B"/><rect x="446.4" y="146.4" width="7.2" height="7.2" rx="2.4" fill="#36543B"/><rect x="458.4" y="146.4" width="7.2" height="7.2" rx="2.4" fill="#36543B"/><circle cx="66" cy="162" r="3.6" fill="#6C8A53"/><circle cx="78" cy="162" r="3.6" fill="#36543B"/><circle cx="90" cy="162" r="3.6" fill="#36543B"/><circle cx="114" cy="162" r="3.6" fill="#36543B"/><circle cx="150" cy="162" r="3.6" fill="#36543B"/><circle cx="198" cy="162" r="3.6" fill="#36543B"/><circle cx="246" cy="162" r="3.6" fill="#6C8A53"/><circle cx="294" cy="162" r="3.6" fill="#36543B"/><circle cx="306" cy="162" r="3.6" fill="#6C8A53"/><circle cx="318" cy="162" r="3.6" fill="#36543B"/><circle cx="330" cy="162" r="3.6" fill="#36543B"/><circle cx="354" cy="162" r="3.6" fill="#36543B"/><circle cx="378" cy="162" r="3.6" fill="#36543B"/><circle cx="390" cy="162" r="3.6" fill="#36543B"/><circle cx="438" cy="162" r="3.6" fill="#36543B"/><circle cx="78" cy="174" r="3.6" fill="#36543B"/><circle cx="102" cy="174" r="3.6" fill="#36543B"/><circle cx="114" cy="174" r="3.6" fill="#6C8A53"/><rect x="122.4" y="170.4" width="7.2" height="7.2" rx="2.4" fill="#36543B"/><circle cx="150" cy="174" r="3.6" fill="#36543B"/><circle cx="162" cy="174" r="3.6" fill="#36543B"/><circle cx="198" cy="174" r="3.6" fill="#36543B"/><circle cx="234" cy="174" r="3.6" fill="#6C8A53"/><circle cx="342" cy="174" r="3.6" fill="#36543B"/><circle cx="354" cy="174" r="3.6" fill="#6C8A53"/><circle cx="378" cy="174" r="3.6" fill="#36543B"/><circle cx="402" cy="174" r="3.6" fill="#36543B"/><circle cx="426" cy="174" r="3.6" fill="#36543B"/><circle cx="462" cy="174" r="3.6" fill="#36543B"/><circle cx="66" cy="186" r="3.6" fill="#36543B"/><circle cx="78" cy="186" r="3.6" fill="#36543B"/><circle cx="90" cy="186" r="3.6" fill="#36543B"/><circle cx="198" cy="186" r="3.6" fill="#36543B"/><circle cx="210" cy="186" r="3.6" fill="#36543B"/><circle cx="222" cy="186" r="3.6" fill="#6C8A53"/><circle cx="234" cy="186" r="3.6" fill="#36543B"/><circle cx="246" cy="186" r="3.6" fill="#36543B"/><circle cx="258" cy="186" r="3.6" fill="#36543B"/><circle cx="270" cy="186" r="3.6" fill="#36543B"/><circle cx="294" cy="186" r="3.6" fill="#36543B"/><circle cx="306" cy="186" r="3.6" fill="#36543B"/><circle cx="330" cy="186" r="3.6" fill="#36543B"/><circle cx="342" cy="186" r="3.6" fill="#6C8A53"/><circle cx="354" cy="186" r="3.6" fill="#36543B"/><circle cx="378" cy="186" r="3.6" fill="#36543B"/><circle cx="390" cy="186" r="3.6" fill="#36543B"/><circle cx="414" cy="186" r="3.6" fill="#36543B"/><circle cx="438" cy="186" r="3.6" fill="#36543B"/><circle cx="450" cy="186" r="3.6" fill="#36543B"/><circle cx="462" cy="186" r="3.6" fill="#6C8A53"/><circle cx="474" cy="186" r="3.6" fill="#36543B"/><circle cx="486" cy="186" r="3.6" fill="#36543B"/><rect x="122.4" y="194.4" width="7.2" height="7.2" rx="2.4" fill="#36543B"/><circle cx="150" cy="198" r="3.6" fill="#6C8A53"/><circle cx="174" cy="198" r="3.6" fill="#36543B"/><circle cx="198" cy="198" r="3.6" fill="#36543B"/><circle cx="222" cy="198" r="3.6" fill="#36543B"/><circle cx="282" cy="198" r="3.6" fill="#36543B"/><circle cx="294" cy="198" r="3.6" fill="#36543B"/><circle cx="306" cy="198" r="3.6" fill="#36543B"/><circle cx="330" cy="198" r="3.6" fill="#6C8A53"/><circle cx="354" cy="198" r="3.6" fill="#36543B"/><circle cx="390" cy="198" r="3.6" fill="#6C8A53"/><circle cx="402" cy="198" r="3.6" fill="#36543B"/><circle cx="414" cy="198" r="3.6" fill="#36543B"/><circle cx="438" cy="198" r="3.6" fill="#36543B"/><circle cx="450" cy="198" r="3.6" fill="#6C8A53"/><circle cx="462" cy="198" r="3.6" fill="#36543B"/><circle cx="474" cy="198" r="3.6" fill="#36543B"/><circle cx="66" cy="210" r="3.6" fill="#36543B"/><circle cx="78" cy="210" r="3.6" fill="#6C8A53"/><circle cx="102" cy="210" r="3.6" fill="#36543B"/><circle cx="114" cy="210" r="3.6" fill="#36543B"/><circle cx="174" cy="210" r="3.6" fill="#36543B"/><circle cx="198" cy="210" r="3.6" fill="#6C8A53"/><circle cx="258" cy="210" r="3.6" fill="#6C8A53"/><circle cx="294" cy="210" r="3.6" fill="#36543B"/><circle cx="306" cy="210" r="3.6" fill="#36543B"/><circle cx="366" cy="210" r="3.6" fill="#36543B"/><circle cx="378" cy="210" r="3.6" fill="#6C8A53"/><circle cx="414" cy="210" r="3.6" fill="#36543B"/><circle cx="426" cy="210" r="3.6" fill="#36543B"/><circle cx="438" cy="210" r="3.6" fill="#6C8A53"/><circle cx="462" cy="210" r="3.6" fill="#36543B"/><circle cx="486" cy="210" r="3.6" fill="#36543B"/><circle cx="54" cy="222" r="3.6" fill="#36543B"/><circle cx="66" cy="222" r="3.6" fill="#6C8A53"/><circle cx="78" cy="222" r="3.6" fill="#36543B"/><circle cx="114" cy="222" r="3.6" fill="#36543B"/><rect x="122.4" y="218.4" width="7.2" height="7.2" rx="2.4" fill="#6C8A53"/><circle cx="162" cy="222" r="3.6" fill="#36543B"/><circle cx="174" cy="222" r="3.6" fill="#36543B"/><circle cx="222" cy="222" r="3.6" fill="#36543B"/><circle cx="234" cy="222" r="3.6" fill="#36543B"/><circle cx="258" cy="222" r="3.6" fill="#36543B"/><circle cx="270" cy="222" r="3.6" fill="#36543B"/><circle cx="282" cy="222" r="3.6" fill="#36543B"/><circle cx="294" cy="222" r="3.6" fill="#36543B"/><circle cx="318" cy="222" r="3.6" fill="#36543B"/><circle cx="330" cy="222" r="3.6" fill="#36543B"/><circle cx="402" cy="222" r="3.6" fill="#36543B"/><circle cx="414" cy="222" r="3.6" fill="#36543B"/><circle cx="426" cy="222" r="3.6" fill="#6C8A53"/><circle cx="438" cy="222" r="3.6" fill="#36543B"/><circle cx="462" cy="222" r="3.6" fill="#36543B"/><circle cx="66" cy="234" r="3.6" fill="#36543B"/><circle cx="90" cy="234" r="3.6" fill="#36543B"/><circle cx="138" cy="234" r="3.6" fill="#36543B"/><circle cx="150" cy="234" r="3.6" fill="#36543B"/><circle cx="162" cy="234" r="3.6" fill="#36543B"/><circle cx="186" cy="234" r="3.6" fill="#36543B"/><circle cx="198" cy="234" r="3.6" fill="#36543B"/><circle cx="234" cy="234" r="3.6" fill="#6C8A53"/><circle cx="306" cy="234" r="3.6" fill="#36543B"/><circle cx="354" cy="234" r="3.6" fill="#6C8A53"/><circle cx="366" cy="234" r="3.6" fill="#36543B"/><circle cx="390" cy="234" r="3.6" fill="#36543B"/><circle cx="414" cy="234" r="3.6" fill="#6C8A53"/><circle cx="450" cy="234" r="3.6" fill="#36543B"/><circle cx="474" cy="234" r="3.6" fill="#6C8A53"/><circle cx="486" cy="234" r="3.6" fill="#36543B"/><circle cx="66" cy="246" r="3.6" fill="#36543B"/><circle cx="114" cy="246" r="3.6" fill="#36543B"/><rect x="122.4" y="242.4" width="7.2" height="7.2" rx="2.4" fill="#36543B"/><circle cx="162" cy="246" r="3.6" fill="#6C8A53"/><circle cx="174" cy="246" r="3.6" fill="#36543B"/><circle cx="222" cy="246" r="3.6" fill="#6C8A53"/><circle cx="354" cy="246" r="3.6" fill="#36543B"/><circle cx="378" cy="246" r="3.6" fill="#36543B"/><circle cx="390" cy="246" r="3.6" fill="#36543B"/><circle cx="414" cy="246" r="3.6" fill="#36543B"/><circle cx="426" cy="246" r="3.6" fill="#36543B"/><circle cx="450" cy="246" r="3.6" fill="#36543B"/><circle cx="54" cy="258" r="3.6" fill="#36543B"/><circle cx="78" cy="258" r="3.6" fill="#36543B"/><circle cx="102" cy="258" r="3.6" fill="#36543B"/><circle cx="162" cy="258" r="3.6" fill="#36543B"/><circle cx="174" cy="258" r="3.6" fill="#36543B"/><circle cx="210" cy="258" r="3.6" fill="#6C8A53"/><circle cx="222" cy="258" r="3.6" fill="#36543B"/><circle cx="342" cy="258" r="3.6" fill="#36543B"/><circle cx="354" cy="258" r="3.6" fill="#36543B"/><circle cx="366" cy="258" r="3.6" fill="#36543B"/><circle cx="378" cy="258" r="3.6" fill="#36543B"/><circle cx="390" cy="258" r="3.6" fill="#6C8A53"/><circle cx="402" cy="258" r="3.6" fill="#36543B"/><circle cx="414" cy="258" r="3.6" fill="#36543B"/><circle cx="426" cy="258" r="3.6" fill="#36543B"/><circle cx="438" cy="258" r="3.6" fill="#36543B"/><circle cx="450" cy="258" r="3.6" fill="#6C8A53"/><circle cx="462" cy="258" r="3.6" fill="#36543B"/><circle cx="474" cy="258" r="3.6" fill="#36543B"/><circle cx="54" cy="270" r="3.6" fill="#36543B"/><circle cx="66" cy="270" r="3.6" fill="#36543B"/><circle cx="78" cy="270" r="3.6" fill="#6C8A53"/><circle cx="102" cy="270" r="3.6" fill="#36543B"/><circle cx="114" cy="270" r="3.6" fill="#36543B"/><rect x="122.4" y="266.4" width="7.2" height="7.2" rx="2.4" fill="#36543B"/><circle cx="150" cy="270" r="3.6" fill="#36543B"/><circle cx="162" cy="270" r="3.6" fill="#36543B"/><circle cx="186" cy="270" r="3.6" fill="#36543B"/><circle cx="198" cy="270" r="3.6" fill="#6C8A53"/><circle cx="210" cy="270" r="3.6" fill="#36543B"/><circle cx="330" cy="270" r="3.6" fill="#36543B"/><circle cx="342" cy="270" r="3.6" fill="#36543B"/><circle cx="354" cy="270" r="3.6" fill="#36543B"/><circle cx="366" cy="270" r="3.6" fill="#36543B"/><circle cx="378" cy="270" r="3.6" fill="#6C8A53"/><circle cx="390" cy="270" r="3.6" fill="#36543B"/><circle cx="438" cy="270" r="3.6" fill="#6C8A53"/><circle cx="450" cy="270" r="3.6" fill="#36543B"/><circle cx="474" cy="270" r="3.6" fill="#36543B"/><circle cx="486" cy="270" r="3.6" fill="#36543B"/><circle cx="54" cy="282" r="3.6" fill="#36543B"/><circle cx="66" cy="282" r="3.6" fill="#6C8A53"/><circle cx="102" cy="282" r="3.6" fill="#36543B"/><circle cx="150" cy="282" r="3.6" fill="#36543B"/><circle cx="162" cy="282" r="3.6" fill="#36543B"/><circle cx="186" cy="282" r="3.6" fill="#6C8A53"/><circle cx="198" cy="282" r="3.6" fill="#36543B"/><circle cx="210" cy="282" r="3.6" fill="#36543B"/><circle cx="342" cy="282" r="3.6" fill="#36543B"/><circle cx="390" cy="282" r="3.6" fill="#36543B"/><circle cx="426" cy="282" r="3.6" fill="#6C8A53"/><circle cx="438" cy="282" r="3.6" fill="#36543B"/><circle cx="450" cy="282" r="3.6" fill="#36543B"/><circle cx="474" cy="282" r="3.6" fill="#36543B"/><circle cx="486" cy="282" r="3.6" fill="#6C8A53"/><circle cx="54" cy="294" r="3.6" fill="#6C8A53"/><circle cx="66" cy="294" r="3.6" fill="#36543B"/><circle cx="90" cy="294" r="3.6" fill="#36543B"/><circle cx="102" cy="294" r="3.6" fill="#36543B"/><rect x="122.4" y="290.4" width="7.2" height="7.2" rx="2.4" fill="#36543B"/><circle cx="162" cy="294" r="3.6" fill="#36543B"/><circle cx="174" cy="294" r="3.6" fill="#6C8A53"/><circle cx="186" cy="294" r="3.6" fill="#36543B"/><circle cx="198" cy="294" r="3.6" fill="#36543B"/><circle cx="318" cy="294" r="3.6" fill="#36543B"/><circle cx="330" cy="294" r="3.6" fill="#36543B"/><circle cx="342" cy="294" r="3.6" fill="#36543B"/><circle cx="354" cy="294" r="3.6" fill="#6C8A53"/><circle cx="402" cy="294" r="3.6" fill="#36543B"/><circle cx="426" cy="294" r="3.6" fill="#36543B"/><circle cx="438" cy="294" r="3.6" fill="#36543B"/><circle cx="474" cy="294" r="3.6" fill="#6C8A53"/><circle cx="486" cy="294" r="3.6" fill="#36543B"/><circle cx="90" cy="306" r="3.6" fill="#36543B"/><circle cx="102" cy="306" r="3.6" fill="#6C8A53"/><circle cx="114" cy="306" r="3.6" fill="#36543B"/><circle cx="150" cy="306" r="3.6" fill="#36543B"/><circle cx="162" cy="306" r="3.6" fill="#6C8A53"/><circle cx="186" cy="306" r="3.6" fill="#36543B"/><circle cx="198" cy="306" r="3.6" fill="#36543B"/><circle cx="210" cy="306" r="3.6" fill="#36543B"/><circle cx="318" cy="306" r="3.6" fill="#36543B"/><circle cx="342" cy="306" r="3.6" fill="#6C8A53"/><circle cx="366" cy="306" r="3.6" fill="#36543B"/><circle cx="390" cy="306" r="3.6" fill="#36543B"/><circle cx="402" cy="306" r="3.6" fill="#6C8A53"/><circle cx="414" cy="306" r="3.6" fill="#36543B"/><circle cx="426" cy="306" r="3.6" fill="#36543B"/><circle cx="438" cy="306" r="3.6" fill="#36543B"/><circle cx="462" cy="306" r="3.6" fill="#6C8A53"/><circle cx="66" cy="318" r="3.6" fill="#36543B"/><circle cx="78" cy="318" r="3.6" fill="#36543B"/><circle cx="102" cy="318" r="3.6" fill="#36543B"/><circle cx="114" cy="318" r="3.6" fill="#36543B"/><rect x="122.4" y="314.4" width="7.2" height="7.2" rx="2.4" fill="#36543B"/><circle cx="138" cy="318" r="3.6" fill="#36543B"/><circle cx="174" cy="318" r="3.6" fill="#36543B"/><circle cx="210" cy="318" r="3.6" fill="#6C8A53"/><circle cx="234" cy="318" r="3.6" fill="#36543B"/><circle cx="270" cy="318" r="3.6" fill="#6C8A53"/><circle cx="294" cy="318" r="3.6" fill="#36543B"/><circle cx="330" cy="318" r="3.6" fill="#6C8A53"/><circle cx="378" cy="318" r="3.6" fill="#36543B"/><circle cx="426" cy="318" r="3.6" fill="#36543B"/><circle cx="438" cy="318" r="3.6" fill="#36543B"/><circle cx="486" cy="318" r="3.6" fill="#36543B"/><circle cx="54" cy="330" r="3.6" fill="#36543B"/><circle cx="66" cy="330" r="3.6" fill="#36543B"/><circle cx="78" cy="330" r="3.6" fill="#6C8A53"/><circle cx="90" cy="330" r="3.6" fill="#36543B"/><circle cx="102" cy="330" r="3.6" fill="#36543B"/><circle cx="150" cy="330" r="3.6" fill="#36543B"/><circle cx="210" cy="330" r="3.6" fill="#36543B"/><circle cx="246" cy="330" r="3.6" fill="#36543B"/><circle cx="258" cy="330" r="3.6" fill="#6C8A53"/><circle cx="270" cy="330" r="3.6" fill="#36543B"/><circle cx="282" cy="330" r="3.6" fill="#36543B"/><circle cx="294" cy="330" r="3.6" fill="#36543B"/><circle cx="306" cy="330" r="3.6" fill="#36543B"/><circle cx="318" cy="330" r="3.6" fill="#6C8A53"/><circle cx="330" cy="330" r="3.6" fill="#36543B"/><circle cx="342" cy="330" r="3.6" fill="#36543B"/><circle cx="354" cy="330" r="3.6" fill="#36543B"/><circle cx="366" cy="330" r="3.6" fill="#36543B"/><circle cx="378" cy="330" r="3.6" fill="#6C8A53"/><circle cx="402" cy="330" r="3.6" fill="#36543B"/><circle cx="426" cy="330" r="3.6" fill="#36543B"/><circle cx="438" cy="330" r="3.6" fill="#6C8A53"/><circle cx="462" cy="330" r="3.6" fill="#36543B"/><circle cx="78" cy="342" r="3.6" fill="#36543B"/><circle cx="90" cy="342" r="3.6" fill="#36543B"/><circle cx="114" cy="342" r="3.6" fill="#36543B"/><rect x="122.4" y="338.4" width="7.2" height="7.2" rx="2.4" fill="#6C8A53"/><circle cx="162" cy="342" r="3.6" fill="#36543B"/><circle cx="186" cy="342" r="3.6" fill="#6C8A53"/><circle cx="234" cy="342" r="3.6" fill="#36543B"/><circle cx="270" cy="342" r="3.6" fill="#36543B"/><circle cx="282" cy="342" r="3.6" fill="#36543B"/><circle cx="294" cy="342" r="3.6" fill="#36543B"/><circle cx="306" cy="342" r="3.6" fill="#6C8A53"/><circle cx="318" cy="342" r="3.6" fill="#36543B"/><circle cx="330" cy="342" r="3.6" fill="#36543B"/><circle cx="342" cy="342" r="3.6" fill="#36543B"/><circle cx="354" cy="342" r="3.6" fill="#36543B"/><circle cx="402" cy="342" r="3.6" fill="#36543B"/><circle cx="438" cy="342" r="3.6" fill="#36543B"/><circle cx="450" cy="342" r="3.6" fill="#36543B"/><circle cx="462" cy="342" r="3.6" fill="#36543B"/><circle cx="486" cy="342" r="3.6" fill="#6C8A53"/><circle cx="66" cy="354" r="3.6" fill="#36543B"/><circle cx="78" cy="354" r="3.6" fill="#36543B"/><circle cx="90" cy="354" r="3.6" fill="#36543B"/><circle cx="102" cy="354" r="3.6" fill="#36543B"/><circle cx="150" cy="354" r="3.6" fill="#36543B"/><circle cx="162" cy="354" r="3.6" fill="#36543B"/><circle cx="174" cy="354" r="3.6" fill="#6C8A53"/><circle cx="186" cy="354" r="3.6" fill="#36543B"/><circle cx="198" cy="354" r="3.6" fill="#36543B"/><circle cx="222" cy="354" r="3.6" fill="#36543B"/><circle cx="246" cy="354" r="3.6" fill="#36543B"/><circle cx="258" cy="354" r="3.6" fill="#36543B"/><circle cx="306" cy="354" r="3.6" fill="#36543B"/><circle cx="318" cy="354" r="3.6" fill="#36543B"/><circle cx="366" cy="354" r="3.6" fill="#36543B"/><circle cx="390" cy="354" r="3.6" fill="#36543B"/><circle cx="402" cy="354" r="3.6" fill="#36543B"/><circle cx="414" cy="354" r="3.6" fill="#6C8A53"/><circle cx="450" cy="354" r="3.6" fill="#36543B"/><circle cx="474" cy="354" r="3.6" fill="#6C8A53"/><circle cx="486" cy="354" r="3.6" fill="#36543B"/><circle cx="90" cy="366" r="3.6" fill="#36543B"/><circle cx="102" cy="366" r="3.6" fill="#6C8A53"/><circle cx="114" cy="366" r="3.6" fill="#36543B"/><rect x="122.4" y="362.4" width="7.2" height="7.2" rx="2.4" fill="#36543B"/><circle cx="186" cy="366" r="3.6" fill="#36543B"/><circle cx="198" cy="366" r="3.6" fill="#36543B"/><circle cx="234" cy="366" r="3.6" fill="#36543B"/><circle cx="258" cy="366" r="3.6" fill="#36543B"/><circle cx="294" cy="366" r="3.6" fill="#36543B"/><circle cx="342" cy="366" r="3.6" fill="#6C8A53"/><circle cx="354" cy="366" r="3.6" fill="#36543B"/><circle cx="366" cy="366" r="3.6" fill="#36543B"/><circle cx="426" cy="366" r="3.6" fill="#36543B"/><circle cx="438" cy="366" r="3.6" fill="#36543B"/><circle cx="474" cy="366" r="3.6" fill="#36543B"/><circle cx="486" cy="366" r="3.6" fill="#36543B"/><circle cx="78" cy="378" r="3.6" fill="#36543B"/><circle cx="90" cy="378" r="3.6" fill="#6C8A53"/><circle cx="102" cy="378" r="3.6" fill="#36543B"/><circle cx="138" cy="378" r="3.6" fill="#36543B"/><circle cx="150" cy="378" r="3.6" fill="#6C8A53"/><circle cx="198" cy="378" r="3.6" fill="#36543B"/><circle cx="210" cy="378" r="3.6" fill="#6C8A53"/><circle cx="246" cy="378" r="3.6" fill="#36543B"/><circle cx="258" cy="378" r="3.6" fill="#36543B"/><circle cx="270" cy="378" r="3.6" fill="#6C8A53"/><circle cx="282" cy="378" r="3.6" fill="#36543B"/><circle cx="330" cy="378" r="3.6" fill="#6C8A53"/><circle cx="354" cy="378" r="3.6" fill="#36543B"/><circle cx="378" cy="378" r="3.6" fill="#36543B"/><circle cx="390" cy="378" r="3.6" fill="#6C8A53"/><circle cx="462" cy="378" r="3.6" fill="#36543B"/><circle cx="474" cy="378" r="3.6" fill="#36543B"/><circle cx="54" cy="390" r="3.6" fill="#36543B"/><circle cx="66" cy="390" r="3.6" fill="#36543B"/><rect x="122.4" y="386.4" width="7.2" height="7.2" rx="2.4" fill="#36543B"/><circle cx="138" cy="390" r="3.6" fill="#6C8A53"/><circle cx="150" cy="390" r="3.6" fill="#36543B"/><circle cx="210" cy="390" r="3.6" fill="#36543B"/><circle cx="234" cy="390" r="3.6" fill="#36543B"/><circle cx="294" cy="390" r="3.6" fill="#36543B"/><circle cx="330" cy="390" r="3.6" fill="#36543B"/><circle cx="342" cy="390" r="3.6" fill="#36543B"/><circle cx="354" cy="390" r="3.6" fill="#36543B"/><circle cx="462" cy="390" r="3.6" fill="#36543B"/><rect x="146.4" y="398.4" width="7.2" height="7.2" rx="2.4" fill="#36543B"/><circle cx="162" cy="402" r="3.6" fill="#36543B"/><circle cx="174" cy="402" r="3.6" fill="#36543B"/><circle cx="198" cy="402" r="3.6" fill="#36543B"/><circle cx="270" cy="402" r="3.6" fill="#36543B"/><circle cx="294" cy="402" r="3.6" fill="#36543B"/><circle cx="318" cy="402" r="3.6" fill="#36543B"/><circle cx="330" cy="402" r="3.6" fill="#36543B"/><circle cx="342" cy="402" r="3.6" fill="#36543B"/><circle cx="354" cy="402" r="3.6" fill="#36543B"/><circle cx="378" cy="402" r="3.6" fill="#36543B"/><circle cx="474" cy="402" r="3.6" fill="#36543B"/><circle cx="486" cy="402" r="3.6" fill="#6C8A53"/><rect x="146.4" y="410.4" width="7.2" height="7.2" rx="2.4" fill="#36543B"/><circle cx="198" cy="414" r="3.6" fill="#36543B"/><circle cx="210" cy="414" r="3.6" fill="#36543B"/><circle cx="258" cy="414" r="3.6" fill="#36543B"/><circle cx="282" cy="414" r="3.6" fill="#36543B"/><circle cx="330" cy="414" r="3.6" fill="#36543B"/><circle cx="342" cy="414" r="3.6" fill="#36543B"/><circle cx="354" cy="414" r="3.6" fill="#6C8A53"/><circle cx="450" cy="414" r="3.6" fill="#36543B"/><circle cx="462" cy="414" r="3.6" fill="#36543B"/><circle cx="486" cy="414" r="3.6" fill="#36543B"/><circle cx="162" cy="426" r="3.6" fill="#6C8A53"/><circle cx="174" cy="426" r="3.6" fill="#36543B"/><circle cx="186" cy="426" r="3.6" fill="#36543B"/><circle cx="210" cy="426" r="3.6" fill="#36543B"/><circle cx="270" cy="426" r="3.6" fill="#36543B"/><circle cx="282" cy="426" r="3.6" fill="#6C8A53"/><circle cx="306" cy="426" r="3.6" fill="#36543B"/><circle cx="354" cy="426" r="3.6" fill="#36543B"/><circle cx="366" cy="426" r="3.6" fill="#36543B"/><circle cx="378" cy="426" r="3.6" fill="#36543B"/><circle cx="462" cy="426" r="3.6" fill="#6C8A53"/><circle cx="474" cy="426" r="3.6" fill="#36543B"/><circle cx="486" cy="426" r="3.6" fill="#36543B"/><rect x="146.4" y="434.4" width="7.2" height="7.2" rx="2.4" fill="#6C8A53"/><circle cx="174" cy="438" r="3.6" fill="#36543B"/><circle cx="186" cy="438" r="3.6" fill="#36543B"/><circle cx="198" cy="438" r="3.6" fill="#36543B"/><circle cx="210" cy="438" r="3.6" fill="#6C8A53"/><circle cx="222" cy="438" r="3.6" fill="#36543B"/><circle cx="294" cy="438" r="3.6" fill="#36543B"/><circle cx="318" cy="438" r="3.6" fill="#36543B"/><circle cx="342" cy="438" r="3.6" fill="#36543B"/><circle cx="354" cy="438" r="3.6" fill="#36543B"/><circle cx="366" cy="438" r="3.6" fill="#36543B"/><circle cx="450" cy="438" r="3.6" fill="#6C8A53"/><circle cx="462" cy="438" r="3.6" fill="#36543B"/><circle cx="474" cy="438" r="3.6" fill="#36543B"/><circle cx="486" cy="438" r="3.6" fill="#36543B"/><circle cx="162" cy="450" r="3.6" fill="#36543B"/><circle cx="174" cy="450" r="3.6" fill="#36543B"/><circle cx="198" cy="450" r="3.6" fill="#6C8A53"/><circle cx="246" cy="450" r="3.6" fill="#36543B"/><circle cx="258" cy="450" r="3.6" fill="#6C8A53"/><circle cx="270" cy="450" r="3.6" fill="#36543B"/><circle cx="282" cy="450" r="3.6" fill="#36543B"/><circle cx="294" cy="450" r="3.6" fill="#36543B"/><circle cx="342" cy="450" r="3.6" fill="#36543B"/><circle cx="354" cy="450" r="3.6" fill="#36543B"/><circle cx="366" cy="450" r="3.6" fill="#36543B"/><circle cx="390" cy="450" r="3.6" fill="#36543B"/><circle cx="402" cy="450" r="3.6" fill="#36543B"/><circle cx="414" cy="450" r="3.6" fill="#36543B"/><circle cx="426" cy="450" r="3.6" fill="#36543B"/><circle cx="438" cy="450" r="3.6" fill="#6C8A53"/><circle cx="462" cy="450" r="3.6" fill="#36543B"/><circle cx="474" cy="450" r="3.6" fill="#36543B"/><circle cx="486" cy="450" r="3.6" fill="#36543B"/><circle cx="162" cy="462" r="3.6" fill="#36543B"/><circle cx="186" cy="462" r="3.6" fill="#6C8A53"/><circle cx="198" cy="462" r="3.6" fill="#36543B"/><circle cx="210" cy="462" r="3.6" fill="#36543B"/><circle cx="222" cy="462" r="3.6" fill="#36543B"/><circle cx="246" cy="462" r="3.6" fill="#6C8A53"/><circle cx="270" cy="462" r="3.6" fill="#36543B"/><circle cx="306" cy="462" r="3.6" fill="#6C8A53"/><circle cx="318" cy="462" r="3.6" fill="#36543B"/><circle cx="330" cy="462" r="3.6" fill="#36543B"/><circle cx="342" cy="462" r="3.6" fill="#36543B"/><circle cx="354" cy="462" r="3.6" fill="#36543B"/><circle cx="366" cy="462" r="3.6" fill="#6C8A53"/><circle cx="390" cy="462" r="3.6" fill="#36543B"/><circle cx="402" cy="462" r="3.6" fill="#36543B"/><circle cx="474" cy="462" r="3.6" fill="#36543B"/><circle cx="486" cy="462" r="3.6" fill="#6C8A53"/><circle cx="186" cy="474" r="3.6" fill="#36543B"/><circle cx="198" cy="474" r="3.6" fill="#36543B"/><circle cx="210" cy="474" r="3.6" fill="#36543B"/><circle cx="222" cy="474" r="3.6" fill="#36543B"/><circle cx="234" cy="474" r="3.6" fill="#6C8A53"/><circle cx="270" cy="474" r="3.6" fill="#36543B"/><circle cx="306" cy="474" r="3.6" fill="#36543B"/><circle cx="342" cy="474" r="3.6" fill="#36543B"/><circle cx="354" cy="474" r="3.6" fill="#6C8A53"/><circle cx="366" cy="474" r="3.6" fill="#36543B"/><circle cx="414" cy="474" r="3.6" fill="#6C8A53"/><circle cx="426" cy="474" r="3.6" fill="#36543B"/><circle cx="462" cy="474" r="3.6" fill="#36543B"/><circle cx="486" cy="474" r="3.6" fill="#36543B"/><circle cx="198" cy="486" r="3.6" fill="#36543B"/><circle cx="210" cy="486" r="3.6" fill="#36543B"/><circle cx="234" cy="486" r="3.6" fill="#36543B"/><circle cx="258" cy="486" r="3.6" fill="#36543B"/><circle cx="270" cy="486" r="3.6" fill="#36543B"/><circle cx="294" cy="486" r="3.6" fill="#36543B"/><circle cx="354" cy="486" r="3.6" fill="#36543B"/><circle cx="378" cy="486" r="3.6" fill="#36543B"/><circle cx="402" cy="486" r="3.6" fill="#6C8A53"/><circle cx="414" cy="486" r="3.6" fill="#36543B"/><circle cx="438" cy="486" r="3.6" fill="#36543B"/><circle cx="486" cy="486" r="3.6" fill="#36543B"/><rect x="48" y="48" width="84" height="84" rx="18" fill="#C86D4B"/><rect x="60" y="60" width="60" height="60" rx="13.2" fill="#FFFAF2"/><rect x="72" y="72" width="36" height="36" rx="8.64" fill="#36543B"/><rect x="408" y="48" width="84" height="84" rx="18" fill="#C86D4B"/><rect x="420" y="60" width="60" height="60" rx="13.2" fill="#FFFAF2"/><rect x="432" y="72" width="36" height="36" rx="8.64" fill="#36543B"/><rect x="48" y="408" width="84" height="84" rx="18" fill="#C86D4B"/><rect x="60" y="420" width="60" height="60" rx="13.2" fill="#FFFAF2"/><rect x="72" y="432" width="36" height="36" rx="8.64" fill="#36543B"/><rect x="384" y="384" width="60" height="60" rx="12.6" fill="#6C8A53"/><rect x="396" y="396" width="36" height="36" rx="8.16" fill="#FFFAF2"/><rect x="408" y="408" width="12" height="12" rx="2.88" fill="#36543B"/><g transform="translate(270 270) scale(0.54) translate(-256 -250.5)"><polygon points="266.32,241.26 273.21,261.26 256.31,274.00 238.98,261.86 245.17,241.62" fill="none" stroke="#DBE8D0" stroke-width="1.5" stroke-linejoin="round" opacity="0.9" />
  <polygon points="255.44,224.00 286.26,245.58 275.26,281.56 237.65,282.21 225.40,246.64" fill="none" stroke="#DBE8D0" stroke-width="1.5" stroke-linejoin="round" opacity="0.9" />
  <polygon points="228.32,219.26 282.38,218.32 299.99,269.45 256.80,301.99 212.51,270.98" fill="none" stroke="#DBE8D0" stroke-width="1.5" stroke-linejoin="round" opacity="0.9" />
  <polygon points="198.62,238.46 254.95,196.01 312.73,236.47 292.11,303.92 221.59,305.15" fill="none" stroke="#DBE8D0" stroke-width="1.5" stroke-linejoin="round" opacity="0.9" />
  <circle cx="256.00" cy="256.00" r="13.10" fill="#36543B" />
  <circle cx="266.32" cy="241.26" r="13.10" fill="#DBE8D0" />
  <circle cx="273.21" cy="261.26" r="13.10" fill="#DBE8D0" />
  <circle cx="256.31" cy="274.00" r="13.10" fill="#DBE8D0" />
  <circle cx="238.98" cy="261.86" r="13.10" fill="#DBE8D0" />
  <circle cx="245.17" cy="241.62" r="13.10" fill="#DBE8D0" />
  <circle cx="255.44" cy="224.00" r="13.10" fill="#DBE8D0" />
  <circle cx="270.85" cy="234.79" r="13.10" fill="#DBE8D0" />
  <circle cx="286.26" cy="245.58" r="13.10" fill="#DBE8D0" />
  <circle cx="280.76" cy="263.57" r="13.10" fill="#DBE8D0" />
  <circle cx="275.26" cy="281.56" r="13.10" fill="#DBE8D0" />
  <circle cx="256.45" cy="281.88" r="13.10" fill="#DBE8D0" />
  <circle cx="237.65" cy="282.21" r="13.10" fill="#DBE8D0" />
  <circle cx="231.52" cy="264.43" r="13.10" fill="#DBE8D0" />
  <circle cx="225.40" cy="246.64" r="13.10" fill="#DBE8D0" />
  <circle cx="240.42" cy="235.32" r="13.10" fill="#DBE8D0" />
  <circle cx="228.32" cy="219.26" r="13.10" fill="#6C8A53" />
  <circle cx="246.34" cy="218.95" r="13.10" fill="#6C8A53" />
  <circle cx="264.36" cy="218.63" r="13.10" fill="#6C8A53" />
  <circle cx="282.38" cy="218.32" r="13.10" fill="#6C8A53" />
  <circle cx="288.25" cy="235.36" r="13.10" fill="#6C8A53" />
  <circle cx="294.12" cy="252.41" r="13.10" fill="#6C8A53" />
  <circle cx="299.99" cy="269.45" r="13.10" fill="#6C8A53" />
  <circle cx="285.59" cy="280.30" r="13.10" fill="#6C8A53" />
  <circle cx="271.20" cy="291.15" r="13.10" fill="#6C8A53" />
  <circle cx="256.80" cy="301.99" r="13.10" fill="#6C8A53" />
  <circle cx="242.04" cy="291.65" r="13.10" fill="#6C8A53" />
  <circle cx="227.27" cy="281.32" r="13.10" fill="#6C8A53" />
  <circle cx="212.51" cy="270.98" r="13.10" fill="#6C8A53" />
  <circle cx="217.78" cy="253.74" r="13.10" fill="#6C8A53" />
  <circle cx="223.05" cy="236.50" r="13.10" fill="#6C8A53" />
  <circle cx="198.62" cy="238.46" r="13.10" fill="#36543B" />
  <circle cx="212.70" cy="227.85" r="13.10" fill="#36543B" />
  <circle cx="226.79" cy="217.23" r="13.10" fill="#36543B" />
  <circle cx="240.87" cy="206.62" r="13.10" fill="#36543B" />
  <circle cx="254.95" cy="196.01" r="13.10" fill="#36543B" />
  <circle cx="269.40" cy="206.12" r="13.10" fill="#36543B" />
  <circle cx="283.84" cy="216.24" r="13.10" fill="#36543B" />
  <circle cx="298.29" cy="226.35" r="13.10" fill="#36543B" />
  <circle cx="312.73" cy="236.47" r="13.10" fill="#36543B" />
  <circle cx="307.58" cy="253.33" r="13.10" fill="#36543B" />
  <circle cx="302.42" cy="270.19" r="13.10" fill="#36543B" />
  <circle cx="297.26" cy="287.06" r="13.10" fill="#36543B" />
  <circle cx="292.11" cy="303.92" r="13.10" fill="#36543B" />
  <circle cx="274.48" cy="304.23" r="13.10" fill="#36543B" />
  <circle cx="256.85" cy="304.53" r="13.10" fill="#36543B" />
  <circle cx="239.22" cy="304.84" r="13.10" fill="#36543B" />
  <circle cx="221.59" cy="305.15" r="13.10" fill="#36543B" />
  <circle cx="215.84" cy="288.48" r="13.10" fill="#36543B" />
  <circle cx="210.10" cy="271.80" r="13.10" fill="#36543B" />
  <circle cx="204.36" cy="255.13" r="13.10" fill="#36543B" /></g></svg>