<svg xmlns="http://www.w3.org/2000/svg" viewBox="0 0 540 540" role="img" aria-label="Trellis QR code for The Number Garden"><defs><linearGradient id="trellis-bg" x1="0%" y1="0%" x2="100%" y2="100%"><stop offset="0%" stop-color="#F4EFDE"/><stop offset="100%" stop-color="#FFFAF2"/></linearGradient></defs><rect width="540" height="540" rx="26.400000000000002" fill="url(#trellis-bg)"/><rect x="33.6" y="33.6" width="472.8" height="472.8" rx="20.4" fill="none" stroke="#DFE8D1" stroke-width="1.5" opacity="0.85"/><rect x="206.16" y="50.16" width="7.68" height="7.68" rx="3.84" fill="#1F2A1F"/><rect x="254.16" y="50.16" width="7.68" height="7.68" rx="3.84" fill="#1F2A1F"/><rect x="259.92" y="50.64" width="20.16" height="6.72" rx="3.36" fill="#1F2A1F"/><rect x="290.64" y="43.92" width="6.72" height="20.16" rx="3.36" fill="#6C8A53"/><rect x="314.16" y="50.16" width="7.68" height="7.68" rx="3.84" fill="#1F2A1F"/><rect x="374.16" y="50.16" width="7.68" height="7.68" rx="3.84" fill="#1F2A1F"/><rect x="151.92" y="62.64" width="20.16" height="6.72" rx="3.36" fill="#1F2A1F"/><rect x="163.92" y="62.64" width="20.16" height="6.72" rx="3.36" fill="#1F2A1F"/><rect x="182.16" y="62.16" width="7.68" height="7.68" rx="3.84" fill="#6C8A53"/><rect x="211.92" y="62.64" width="20.16" height="6.72" rx="3.36" fill="#1F2A1F"/><rect x="223.92" y="62.64" width="20.16" height="6.72" rx="3.36" fill="#6C8A53"/><rect x="254.64" y="55.92" width="6.72" height="20.16" rx="3.36" fill="#1F2A1F"/><rect x="290.16" y="62.16" width="7.68" height="7.68" rx="3.84" fill="#1F2A1F"/><rect x="295.92" y="62.64" width="20.16" height="6.72" rx="3.36" fill="#1F2A1F"/><rect x="319.92" y="62.64" width="20.16" height="6.72" rx="3.36" fill="#6C8A53"/><rect x="331.92" y="62.64" width="20.16" height="6.72" rx="3.36" fill="#1F2A1F"/><rect x="350.16" y="62.16" width="7.68" height="7.68" rx="3.84" fill="#1F2A1F"/><rect x="362.16" y="62.16" width="7.68" height="7.68" rx="3.84" fill="#1F2A1F"/><rect x="146.16" y="74.16" width="7.68" height="7.68" rx="3.12" fill="#1F2A1F"/><rect x="182.16" y="74.16" width="7.68" height="7.68" rx="3.84" fill="#1F2A1F"/><rect x="194.16" y="74.16" width="7.68" height="7.68" rx="3.84" fill="#1F2A1F"/><rect x="206.16" y="74.16" width="7.68" height="7.68" rx="3.84" fill="#1F2A1F"/><rect x="266.64" y="67.92" width="6.72" height="20.16" rx="3.36" fill="#6C8A53"/><rect x="350.16" y="74.16" width="7.68" height="7.68" rx="3.84" fill="#1F2A1F"/><rect x="362.16" y="74.16" width="7.68" height="7.68" rx="3.84" fill="#6C8A53"/><rect x="367.92" y="74.64" width="20.16" height="6.72" rx="3.36" fill="#1F2A1F"/><rect x="386.16" y="74.16" width="7.68" height="7.68" rx="3.84" fill="#1F2A1F"/><rect x="146.16" y="86.16" width="7.68" height="7.68" rx="3.12" fill="#1F2A1F"/><rect x="158.16" y="86.16" width="7.68" height="7.68" rx="3.84" fill="#6C8A53"/><rect x="194.16" y="86.16" width="7.68" height="7.68" rx="3.84" fill="#1F2A1F"/><rect x="206.16" y="86.16" width="7.68" height="7.68" rx="3.84" fill="#6C8A53"/><rect x="230.16" y="86.16" width="7.68" height="7.68" rx="3.84" fill="#1F2A1F"/><rect x="235.92" y="86.64" width="20.16" height="6.72" rx="3.36" fill="#1F2A1F"/><rect x="266.16" y="86.16" width="7.68" height="7.68" rx="3.84" fill="#1F2A1F"/><rect x="271.92" y="86.64" width="20.16" height="6.72" rx="3.36" fill="#1F2A1F"/><rect x="307.92" y="86.64" width="20.16" height="6.72" rx="3.36" fill="#1F2A1F"/><rect x="319.92" y="86.64" width="20.16" height="6.72" rx="3.36" fill="#1F2A1F"/><rect x="362.64" y="79.92" width="6.72" height="20.16" rx="3.36" fill="#1F2A1F"/><rect x="386.64" y="79.92" width="6.72" height="20.16" rx="3.36" fill="#1F2A1F"/><rect x="158.64" y="91.92" width="6.72" height="20.16" rx="3.36" fill="#1F2A1F"/><rect x="218.16" y="98.16" width="7.68" height="7.68" rx="3.84" fill="#1F2A1F"/><rect x="230.16" y="98.16" width="7.68" height="7.68" rx="3.84" fill="#1F2A1F"/><rect x="266.64" y="91.92" width="6.72" height="20.16" rx="3.36" fill="#1F2A1F"/><rect x="302.16" y="98.16" width="7.68" height="7.68" rx="3.84" fill="#1F2A1F"/><rect x="362.64" y="91.92" width="6.72" height="20.16" rx="3.36" fill="#1F2A1F"/><rect x="386.64" y="91.92" width="6.72" height="20.16" rx="3.36" fill="#6C8A53"/><rect x="158.16" y="110.16" width="7.68" height="7.68" rx="3.84" fill="#1F2A1F"/><rect x="170.16" y="110.16" width="7.68" height="7.68" rx="3.84" fill="#1F2A1F"/><rect x="175.92" y="110.64" width="20.16" height="6.72" rx="3.36" fill="#6C8A53"/><rect x="199.92" y="110.64" width="20.16" height="6.72" rx="3.36" fill="#1F2A1F"/><rect x="218.16" y="110.16" width="7.68" height="7.68" rx="3.84" fill="#1F2A1F"/><rect x="266.16" y="110.16" width="7.68" height="7.68" rx="3.84" fill="#1F2A1F"/><rect x="271.92" y="110.64" width="20.16" height="6.72" rx="3.36" fill="#6C8A53"/><rect x="290.16" y="110.16" width="7.68" height="7.68" rx="3.84" fill="#1F2A1F"/><rect x="314.64" y="103.92" width="6.72" height="20.16" rx="3.36" fill="#1F2A1F"/><rect x="350.16" y="110.16" width="7.68" height="7.68" rx="3.84" fill="#1F2A1F"/><rect x="367.92" y="110.64" width="20.16" height="6.72" rx="3.36" fill="#6C8A53"/><rect x="386.16" y="110.16" width="7.68" height="7.68" rx="3.84" fill="#1F2A1F"/><rect x="146.16" y="122.16" width="7.68" height="7.68" rx="3.12" fill="#1F2A1F"/><rect x="170.16" y="122.16" width="7.68" height="7.68" rx="3.12" fill="#6C8A53"/><rect x="194.16" y="122.16" width="7.68" height="7.68" rx="3.12" fill="#1F2A1F"/><rect x="218.16" y="122.16" width="7.68" height="7.68" rx="3.12" fill="#6C8A53"/><rect x="242.16" y="122.16" width="7.68" height="7.68" rx="3.12" fill="#1F2A1F"/><rect x="266.16" y="122.16" width="7.68" height="7.68" rx="3.12" fill="#6C8A53"/><rect x="290.16" y="122.16" width="7.68" height="7.68" rx="3.12" fill="#1F2A1F"/><rect x="314.16" y="122.16" width="7.68" height="7.68" rx="3.12" fill="#6C8A53"/><rect x="338.16" y="122.16" width="7.68" height="7.68" rx="3.12" fill="#1F2A1F"/><rect x="362.16" y="122.16" width="7.68" height="7.68" rx="3.12" fill="#6C8A53"/><rect x="386.16" y="122.16" width="7.68" height="7.68" rx="3.12" fill="#1F2A1F"/><rect x="146.16" y="134.16" width="7.68" height="7.68" rx="3.12" fill="#1F2A1F"/><rect x="158.16" y="134.16" width="7.68" height="7.68" rx="3.84" fill="#6C8A53"/><rect x="170.16" y="134.16" width="7.68" height="7.68" rx="3.84" fill="#1F2A1F"/><rect x="182.16" y="134.16" width="7.68" height="7.68" rx="3.84" fill="#1F2A1F"/><rect x="199.92" y="134.64" width="20.16" height="6.72" rx="3.36" fill="#6C8A53"/><rect x="218.16" y="134.16" width="7.68" height="7.68" rx="3.84" fill="#1F2A1F"/><rect x="230.16" y="134.16" width="7.68" height="7.68" rx="3.84" fill="#1F2A1F"/><rect x="242.16" y="134.16" width="7.68" height="7.68" rx="3.84" fill="#1F2A1F"/><rect x="266.16" y="134.16" width="7.68" height="7.68" rx="3.84" fill="#1F2A1F"/><rect x="278.16" y="134.16" width="7.68" height="7.68" rx="3.84" fill="#1F2A1F"/><rect x="302.16" y="134.16" width="7.68" height="7.68" rx="3.84" fill="#6C8A53"/><rect x="326.64" y="127.92" width="6.72" height="20.16" rx="3.36" fill="#1F2A1F"/><rect x="362.64" y="127.92" width="6.72" height="20.16" rx="3.36" fill="#1F2A1F"/><rect x="98.16" y="146.16" width="7.68" height="7.68" rx="3.12" fill="#6C8A53"/><rect x="122.16" y="146.16" width="7.68" height="7.68" rx="3.12" fill="#1F2A1F"/><rect x="134.16" y="146.16" width="7.68" height="7.68" rx="3.12" fill="#1F2A1F"/><rect x="146.16" y="146.16" width="7.68" height="7.68" rx="3.12" fill="#6C8A53"/><rect x="158.16" y="146.16" width="7.68" height="7.68" rx="3.84" fill="#1F2A1F"/><rect x="170.16" y="146.16" width="7.68" height="7.68" rx="3.84" fill="#1F2A1F"/><rect x="182.16" y="146.16" width="7.68" height="7.68" rx="3.84" fill="#1F2A1F"/><rect x="230.64" y="139.92" width="6.72" height="20.16" rx="3.36" fill="#1F2A1F"/><rect x="247.92" y="146.64" width="20.16" height="6.72" rx="3.36" fill="#1F2A1F"/><rect x="266.16" y="146.16" width="7.68" height="7.68" rx="3.84" fill="#1F2A1F"/><rect x="278.16" y="146.16" width="7.68" height="7.68" rx="3.84" fill="#1F2A1F"/><rect x="290.16" y="146.16" width="7.68" height="7.68" rx="3.84" fill="#6C8A53"/><rect x="314.16" y="146.16" width="7.68" height="7.68" rx="3.84" fill="#1F2A1F"/><rect x="326.16" y="146.16" width="7.68" height="7.68" rx="3.84" fill="#1F2A1F"/><rect x="398.16" y="146.16" width="7.68" height="7.68" rx="3.12" fill="#1F2A1F"/><rect x="410.16" y="146.16" width="7.68" height="7.68" rx="3.12" fill="#1F2A1F"/><rect x="446.16" y="146.16" width="7.68" height="7.68" rx="3.12" fill="#1F2A1F"/><rect x="458.16" y="146.16" width="7.68" height="7.68" rx="3.12" fill="#1F2A1F"/><rect x="55.92" y="158.64" width="20.16" height="6.72" rx="3.36" fill="#1F2A1F"/><rect x="74.16" y="158.16" width="7.68" height="7.68" rx="3.84" fill="#1F2A1F"/><rect x="79.92" y="158.64" width="20.16" height="6.72" rx="3.36" fill="#6C8A53"/><rect x="110.64" y="151.92" width="6.72" height="20.16" rx="3.36" fill="#1F2A1F"/><rect x="146.64" y="151.92" width="6.72" height="20.16" rx="3.36" fill="#1F2A1F"/><rect x="194.64" y="151.92" width="6.72" height="20.16" rx="3.36" fill="#1F2A1F"/><rect x="242.16" y="158.16" width="7.68" height="7.68" rx="3.84" fill="#1F2A1F"/><rect x="290.16" y="158.16" width="7.68" height="7.68" rx="3.84" fill="#1F2A1F"/><rect x="295.92" y="158.64" width="20.16" height="6.72" rx="3.36" fill="#1F2A1F"/><rect x="314.16" y="158.16" width="7.68" height="7.68" rx="3.84" fill="#1F2A1F"/><rect x="326.16" y="158.16" width="7.68" height="7.68" rx="3.84" fill="#6C8A53"/><rect x="350.64" y="151.92" width="6.72" height="20.16" rx="3.36" fill="#1F2A1F"/><rect x="374.16" y="158.16" width="7.68" height="7.68" rx="3.84" fill="#6C8A53"/><rect x="379.92" y="158.64" width="20.16" height="6.72" rx="3.36" fill="#1F2A1F"/><rect x="434.16" y="158.16" width="7.68" height="7.68" rx="3.84" fill="#1F2A1F"/><rect x="74.64" y="163.92" width="6.72" height="20.16" rx="3.36" fill="#6C8A53"/><rect x="91.92" y="170.64" width="20.16" height="6.72" rx="3.36" fill="#1F2A1F"/><rect x="110.16" y="170.16" width="7.68" height="7.68" rx="3.84" fill="#1F2A1F"/><rect x="122.16" y="170.16" width="7.68" height="7.68" rx="3.12" fill="#6C8A53"/><rect x="146.16" y="170.16" width="7.68" height="7.68" rx="3.84" fill="#1F2A1F"/><rect x="151.92" y="170.64" width="20.16" height="6.72" rx="3.36" fill="#1F2A1F"/><rect x="194.64" y="163.92" width="6.72" height="20.16" rx="3.36" fill="#1F2A1F"/><rect x="230.64" y="163.92" width="6.72" height="20.16" rx="3.36" fill="#1F2A1F"/><rect x="338.16" y="170.16" width="7.68" height="7.68" rx="3.84" fill="#1F2A1F"/><rect x="350.16" y="170.16" width="7.68" height="7.68" rx="3.84" fill="#1F2A1F"/><rect x="374.64" y="163.92" width="6.72" height="20.16" rx="3.36" fill="#1F2A1F"/><rect x="398.16" y="170.16" width="7.68" height="7.68" rx="3.84" fill="#1F2A1F"/><rect x="422.16" y="170.16" width="7.68" height="7.68" rx="3.84" fill="#1F2A1F"/><rect x="458.64" y="163.92" width="6.72" height="20.16" rx="3.36" fill="#6C8A53"/><rect x="55.92" y="182.64" width="20.16" height="6.72" rx="3.36" fill="#6C8A53"/><rect x="74.16" y="182.16" width="7.68" height="7.68" rx="3.84" fill="#1F2A1F"/><rect x="79.92" y="182.64" width="20.16" height="6.72" rx="3.36" fill="#1F2A1F"/><rect x="194.16" y="182.16" width="7.68" height="7.68" rx="3.84" fill="#1F2A1F"/><rect x="199.92" y="182.64" width="20.16" height="6.72" rx="3.36" fill="#6C8A53"/><rect x="218.16" y="182.16" width="7.68" height="7.68" rx="3.84" fill="#1F2A1F"/><rect x="230.16" y="182.16" width="7.68" height="7.68" rx="3.84" fill="#1F2A1F"/><rect x="235.92" y="182.64" width="20.16" height="6.72" rx="3.36" fill="#1F2A1F"/><rect x="247.92" y="182.64" width="20.16" height="6.72" rx="3.36" fill="#6C8A53"/><rect x="259.92" y="182.64" width="20.16" height="6.72" rx="3.36" fill="#1F2A1F"/><rect x="290.16" y="182.16" width="7.68" height="7.68" rx="3.84" fill="#1F2A1F"/><rect x="302.16" y="182.16" width="7.68" height="7.68" rx="3.84" fill="#6C8A53"/><rect x="326.16" y="182.16" width="7.68" height="7.68" rx="3.84" fill="#1F2A1F"/><rect x="338.16" y="182.16" width="7.68" height="7.68" rx="3.84" fill="#1F2A1F"/><rect x="350.16" y="182.16" width="7.68" height="7.68" rx="3.84" fill="#6C8A53"/><rect x="374.16" y="182.16" width="7.68" height="7.68" rx="3.84" fill="#1F2A1F"/><rect x="386.16" y="182.16" width="7.68" height="7.68" rx="3.84" fill="#1F2A1F"/><rect x="410.64" y="175.92" width="6.72" height="20.16" rx="3.36" fill="#1F2A1F"/><rect x="434.16" y="182.16" width="7.68" height="7.68" rx="3.84" fill="#1F2A1F"/><rect x="446.16" y="182.16" width="7.68" height="7.68" rx="3.84" fill="#6C8A53"/><rect x="458.16" y="182.16" width="7.68" height="7.68" rx="3.84" fill="#1F2A1F"/><rect x="470.16" y="182.16" width="7.68" height="7.68" rx="3.84" fill="#1F2A1F"/><rect x="475.92" y="182.64" width="20.16" height="6.72" rx="3.36" fill="#1F2A1F"/><rect x="122.16" y="194.16" width="7.68" height="7.68" rx="3.12" fill="#1F2A1F"/><rect x="146.16" y="194.16" width="7.68" height="7.68" rx="3.84" fill="#6C8A53"/><rect x="170.64" y="187.92" width="6.72" height="20.16" rx="3.36" fill="#1F2A1F"/><rect x="194.64" y="187.92" width="6.72" height="20.16" rx="3.36" fill="#6C8A53"/><rect x="218.64" y="187.92" width="6.72" height="20.16" rx="3.36" fill="#1F2A1F"/><rect x="271.92" y="194.64" width="20.16" height="6.72" rx="3.36" fill="#1F2A1F"/><rect x="290.16" y="194.16" width="7.68" height="7.68" rx="3.84" fill="#6C8A53"/><rect x="302.16" y="194.16" width="7.68" height="7.68" rx="3.84" fill="#1F2A1F"/><rect x="326.64" y="187.92" width="6.72" height="20.16" rx="3.36" fill="#1F2A1F"/><rect x="350.64" y="187.92" width="6.72" height="20.16" rx="3.36" fill="#1F2A1F"/><rect x="386.16" y="194.16" width="7.68" height="7.68" rx="3.84" fill="#6C8A53"/><rect x="391.92" y="194.64" width="20.16" height="6.72" rx="3.36" fill="#1F2A1F"/><rect x="410.16" y="194.16" width="7.68" height="7.68" rx="3.84" fill="#1F2A1F"/><rect x="434.16" y="194.16" width="7.68" height="7.68" rx="3.84" fill="#6C8A53"/><rect x="446.16" y="194.16" width="7.68" height="7.68" rx="3.84" fill="#1F2A1F"/><rect x="458.16" y="194.16" width="7.68" height="7.68" rx="3.84" fill="#1F2A1F"/><rect x="470.16" y="194.16" width="7.68" height="7.68" rx="3.84" fill="#1F2A1F"/><rect x="62.16" y="206.16" width="7.68" height="7.68" rx="3.84" fill="#1F2A1F"/><rect x="74.16" y="206.16" width="7.68" height="7.68" rx="3.84" fill="#1F2A1F"/><rect x="91.92" y="206.64" width="20.16" height="6.72" rx="3.36" fill="#1F2A1F"/><rect x="110.16" y="206.16" width="7.68" height="7.68" rx="3.84" fill="#1F2A1F"/><rect x="170.64" y="199.92" width="6.72" height="20.16" rx="3.36" fill="#1F2A1F"/><rect x="194.64" y="199.92" width="6.72" height="20.16" rx="3.36" fill="#1F2A1F"/><rect x="254.16" y="206.16" width="7.68" height="7.68" rx="3.84" fill="#1F2A1F"/><rect x="290.16" y="206.16" width="7.68" height="7.68" rx="3.84" fill="#1F2A1F"/><rect x="302.16" y="206.16" width="7.68" height="7.68" rx="3.84" fill="#1F2A1F"/><rect x="355.92" y="206.64" width="20.16" height="6.72" rx="3.36" fill="#1F2A1F"/><rect x="367.92" y="206.64" width="20.16" height="6.72" rx="3.36" fill="#6C8A53"/><rect x="410.16" y="206.16" width="7.68" height="7.68" rx="3.84" fill="#1F2A1F"/><rect x="422.16" y="206.16" width="7.68" height="7.68" rx="3.84" fill="#6C8A53"/><rect x="434.16" y="206.16" width="7.68" height="7.68" rx="3.84" fill="#1F2A1F"/><rect x="458.64" y="199.92" width="6.72" height="20.16" rx="3.36" fill="#1F2A1F"/><rect x="482.16" y="206.16" width="7.68" height="7.68" rx="3.84" fill="#1F2A1F"/><rect x="43.92" y="218.64" width="20.16" height="6.72" rx="3.36" fill="#1F2A1F"/><rect x="62.16" y="218.16" width="7.68" height="7.68" rx="3.84" fill="#1F2A1F"/><rect x="74.16" y="218.16" width="7.68" height="7.68" rx="3.84" fill="#6C8A53"/><rect x="110.16" y="218.16" width="7.68" height="7.68" rx="3.84" fill="#1F2A1F"/><rect x="122.16" y="218.16" width="7.68" height="7.68" rx="3.12" fill="#6C8A53"/><rect x="158.16" y="218.16" width="7.68" height="7.68" rx="3.84" fill="#1F2A1F"/><rect x="170.16" y="218.16" width="7.68" height="7.68" rx="3.84" fill="#6C8A53"/><rect x="211.92" y="218.64" width="20.16" height="6.72" rx="3.36" fill="#6C8A53"/><rect x="223.92" y="218.64" width="20.16" height="6.72" rx="3.36" fill="#1F2A1F"/><rect x="290.64" y="211.92" width="6.72" height="20.16" rx="3.36" fill="#1F2A1F"/><rect x="307.92" y="218.64" width="20.16" height="6.72" rx="3.36" fill="#6C8A53"/><rect x="319.92" y="218.64" width="20.16" height="6.72" rx="3.36" fill="#1F2A1F"/><rect x="391.92" y="218.64" width="20.16" height="6.72" rx="3.36" fill="#1F2A1F"/><rect x="410.16" y="218.16" width="7.68" height="7.68" rx="3.84" fill="#6C8A53"/><rect x="422.16" y="218.16" width="7.68" height="7.68" rx="3.84" fill="#1F2A1F"/><rect x="434.16" y="218.16" width="7.68" height="7.68" rx="3.84" fill="#1F2A1F"/><rect x="458.64" y="211.92" width="6.72" height="20.16" rx="3.36" fill="#6C8A53"/><rect x="62.64" y="223.92" width="6.72" height="20.16" rx="3.36" fill="#6C8A53"/><rect x="86.16" y="230.16" width="7.68" height="7.68" rx="3.84" fill="#1F2A1F"/><rect x="127.92" y="230.64" width="20.16" height="6.72" rx="3.36" fill="#1F2A1F"/><rect x="139.92" y="230.64" width="20.16" height="6.72" rx="3.36" fill="#1F2A1F"/><rect x="158.16" y="230.16" width="7.68" height="7.68" rx="3.84" fill="#6C8A53"/><rect x="175.92" y="230.64" width="20.16" height="6.72" rx="3.36" fill="#1F2A1F"/><rect x="187.92" y="230.64" width="20.16" height="6.72" rx="3.36" fill="#1F2A1F"/><rect x="350.16" y="230.16" width="7.68" height="7.68" rx="3.84" fill="#6C8A53"/><rect x="355.92" y="230.64" width="20.16" height="6.72" rx="3.36" fill="#1F2A1F"/><rect x="386.64" y="223.92" width="6.72" height="20.16" rx="3.36" fill="#1F2A1F"/><rect x="410.64" y="223.92" width="6.72" height="20.16" rx="3.36" fill="#1F2A1F"/><rect x="446.64" y="223.92" width="6.72" height="20.16" rx="3.36" fill="#6C8A53"/><rect x="463.92" y="230.64" width="20.16" height="6.72" rx="3.36" fill="#1F2A1F"/><rect x="475.92" y="230.64" width="20.16" height="6.72" rx="3.36" fill="#1F2A1F"/><rect x="62.64" y="235.92" width="6.72" height="20.16" rx="3.36" fill="#1F2A1F"/><rect x="103.92" y="242.64" width="20.16" height="6.72" rx="3.36" fill="#1F2A1F"/><rect x="122.16" y="242.16" width="7.68" height="7.68" rx="3.12" fill="#1F2A1F"/><rect x="158.16" y="242.16" width="7.68" height="7.68" rx="3.84" fill="#1F2A1F"/><rect x="170.16" y="242.16" width="7.68" height="7.68" rx="3.84" fill="#1F2A1F"/><rect x="218.16" y="242.16" width="7.68" height="7.68" rx="3.84" fill="#1F2A1F"/><rect x="350.64" y="235.92" width="6.72" height="20.16" rx="3.36" fill="#1F2A1F"/><rect x="374.16" y="242.16" width="7.68" height="7.68" rx="3.84" fill="#1F2A1F"/><rect x="386.16" y="242.16" width="7.68" height="7.68" rx="3.84" fill="#6C8A53"/><rect x="410.16" y="242.16" width="7.68" height="7.68" rx="3.84" fill="#1F2A1F"/><rect x="422.16" y="242.16" width="7.68" height="7.68" rx="3.84" fill="#1F2A1F"/><rect x="446.64" y="235.92" width="6.72" height="20.16" rx="3.36" fill="#1F2A1F"/><rect x="50.64" y="247.92" width="6.72" height="20.16" rx="3.36" fill="#1F2A1F"/><rect x="74.64" y="247.92" width="6.72" height="20.16" rx="3.36" fill="#1F2A1F"/><rect x="98.64" y="247.92" width="6.72" height="20.16" rx="3.36" fill="#1F2A1F"/><rect x="158.16" y="254.16" width="7.68" height="7.68" rx="3.84" fill="#1F2A1F"/><rect x="170.16" y="254.16" width="7.68" height="7.68" rx="3.84" fill="#1F2A1F"/><rect x="206.64" y="247.92" width="6.72" height="20.16" rx="3.36" fill="#1F2A1F"/><rect x="338.16" y="254.16" width="7.68" height="7.68" rx="3.84" fill="#1F2A1F"/><rect x="350.16" y="254.16" width="7.68" height="7.68" rx="3.84" fill="#1F2A1F"/><rect x="362.16" y="254.16" width="7.68" height="7.68" rx="3.84" fill="#1F2A1F"/><rect x="374.16" y="254.16" width="7.68" height="7.68" rx="3.84" fill="#6C8A53"/><rect x="386.16" y="254.16" width="7.68" height="7.68" rx="3.84" fill="#1F2A1F"/><rect x="391.92" y="254.64" width="20.16" height="6.72" rx="3.36" fill="#1F2A1F"/><rect x="410.16" y="254.16" width="7.68" height="7.68" rx="3.84" fill="#1F2A1F"/><rect x="422.16" y="254.16" width="7.68" height="7.68" rx="3.84" fill="#6C8A53"/><rect x="434.16" y="254.16" width="7.68" height="7.68" rx="3.84" fill="#1F2A1F"/><rect x="446.16" y="254.16" width="7.68" height="7.68" rx="3.84" fill="#1F2A1F"/><rect x="451.92" y="254.64" width="20.16" height="6.72" rx="3.36" fill="#1F2A1F"/><rect x="470.16" y="254.16" width="7.68" height="7.68" rx="3.84" fill="#6C8A53"/><rect x="50.16" y="266.16" width="7.68" height="7.68" rx="3.84" fill="#1F2A1F"/><rect x="62.16" y="266.16" width="7.68" height="7.68" rx="3.84" fill="#1F2A1F"/><rect x="74.16" y="266.16" width="7.68" height="7.68" rx="3.84" fill="#6C8A53"/><rect x="98.16" y="266.16" width="7.68" height="7.68" rx="3.84" fill="#1F2A1F"/><rect x="103.92" y="266.64" width="20.16" height="6.72" rx="3.36" fill="#1F2A1F"/><rect x="122.16" y="266.16" width="7.68" height="7.68" rx="3.12" fill="#6C8A53"/><rect x="146.16" y="266.16" width="7.68" height="7.68" rx="3.84" fill="#1F2A1F"/><rect x="158.16" y="266.16" width="7.68" height="7.68" rx="3.84" fill="#1F2A1F"/><rect x="182.16" y="266.16" width="7.68" height="7.68" rx="3.84" fill="#1F2A1F"/><rect x="194.16" y="266.16" width="7.68" height="7.68" rx="3.84" fill="#1F2A1F"/><rect x="206.16" y="266.16" width="7.68" height="7.68" rx="3.84" fill="#1F2A1F"/><rect x="319.92" y="266.64" width="20.16" height="6.72" rx="3.36" fill="#1F2A1F"/><rect x="338.16" y="266.16" width="7.68" height="7.68" rx="3.84" fill="#1F2A1F"/><rect x="350.16" y="266.16" width="7.68" height="7.68" rx="3.84" fill="#1F2A1F"/><rect x="362.16" y="266.16" width="7.68" height="7.68" rx="3.84" fill="#6C8A53"/><rect x="374.16" y="266.16" width="7.68" height="7.68" rx="3.84" fill="#1F2A1F"/><rect x="386.16" y="266.16" width="7.68" height="7.68" rx="3.84" fill="#1F2A1F"/><rect x="434.16" y="266.16" width="7.68" height="7.68" rx="3.84" fill="#1F2A1F"/><rect x="446.16" y="266.16" width="7.68" height="7.68" rx="3.84" fill="#1F2A1F"/><rect x="470.16" y="266.16" width="7.68" height="7.68" rx="3.84" fill="#1F2A1F"/><rect x="482.16" y="266.16" width="7.68" height="7.68" rx="3.84" fill="#1F2A1F"/><rect x="50.16" y="278.16" width="7.68" height="7.68" rx="3.84" fill="#1F2A1F"/><rect x="62.16" y="278.16" width="7.68" height="7.68" rx="3.84" fill="#6C8A53"/><rect x="98.64" y="271.92" width="6.72" height="20.16" rx="3.36" fill="#1F2A1F"/><rect x="146.16" y="278.16" width="7.68" height="7.68" rx="3.84" fill="#1F2A1F"/><rect x="158.16" y="278.16" width="7.68" height="7.68" rx="3.84" fill="#6C8A53"/><rect x="182.16" y="278.16" width="7.68" height="7.68" rx="3.84" fill="#1F2A1F"/><rect x="194.16" y="278.16" width="7.68" height="7.68" rx="3.84" fill="#1F2A1F"/><rect x="206.16" y="278.16" width="7.68" height="7.68" rx="3.84" fill="#6C8A53"/><rect x="338.64" y="271.92" width="6.72" height="20.16" rx="3.36" fill="#1F2A1F"/><rect x="386.64" y="271.92" width="6.72" height="20.16" rx="3.36" fill="#1F2A1F"/><rect x="422.16" y="278.16" width="7.68" height="7.68" rx="3.84" fill="#1F2A1F"/><rect x="434.16" y="278.16" width="7.68" height="7.68" rx="3.84" fill="#1F2A1F"/><rect x="446.16" y="278.16" width="7.68" height="7.68" rx="3.84" fill="#6C8A53"/><rect x="470.16" y="278.16" width="7.68" height="7.68" rx="3.84" fill="#1F2A1F"/><rect x="482.16" y="278.16" width="7.68" height="7.68" rx="3.84" fill="#1F2A1F"/><rect x="50.16" y="290.16" width="7.68" height="7.68" rx="3.84" fill="#6C8A53"/><rect x="62.16" y="290.16" width="7.68" height="7.68" rx="3.84" fill="#1F2A1F"/><rect x="86.16" y="290.16" width="7.68" height="7.68" rx="3.84" fill="#1F2A1F"/><rect x="98.16" y="290.16" width="7.68" height="7.68" rx="3.84" fill="#6C8A53"/><rect x="122.16" y="290.16" width="7.68" height="7.68" rx="3.12" fill="#1F2A1F"/><rect x="158.16" y="290.16" width="7.68" height="7.68" rx="3.84" fill="#1F2A1F"/><rect x="163.92" y="290.64" width="20.16" height="6.72" rx="3.36" fill="#1F2A1F"/><rect x="182.16" y="290.16" width="7.68" height="7.68" rx="3.84" fill="#1F2A1F"/><rect x="194.16" y="290.16" width="7.68" height="7.68" rx="3.84" fill="#6C8A53"/><rect x="314.16" y="290.16" width="7.68" height="7.68" rx="3.84" fill="#1F2A1F"/><rect x="319.92" y="290.64" width="20.16" height="6.72" rx="3.36" fill="#1F2A1F"/><rect x="338.16" y="290.16" width="7.68" height="7.68" rx="3.84" fill="#6C8A53"/><rect x="343.92" y="290.64" width="20.16" height="6.72" rx="3.36" fill="#1F2A1F"/><rect x="398.64" y="283.92" width="6.72" height="20.16" rx="3.36" fill="#1F2A1F"/><rect x="422.16" y="290.16" width="7.68" height="7.68" rx="3.84" fill="#1F2A1F"/><rect x="434.16" y="290.16" width="7.68" height="7.68" rx="3.84" fill="#6C8A53"/><rect x="470.16" y="290.16" width="7.68" height="7.68" rx="3.84" fill="#1F2A1F"/><rect x="482.16" y="290.16" width="7.68" height="7.68" rx="3.84" fill="#6C8A53"/><rect x="86.16" y="302.16" width="7.68" height="7.68" rx="3.84" fill="#6C8A53"/><rect x="98.16" y="302.16" width="7.68" height="7.68" rx="3.84" fill="#1F2A1F"/><rect x="110.16" y="302.16" width="7.68" height="7.68" rx="3.84" fill="#1F2A1F"/><rect x="139.92" y="302.64" width="20.16" height="6.72" rx="3.36" fill="#1F2A1F"/><rect x="158.16" y="302.16" width="7.68" height="7.68" rx="3.84" fill="#1F2A1F"/><rect x="182.16" y="302.16" width="7.68" height="7.68" rx="3.84" fill="#6C8A53"/><rect x="194.16" y="302.16" width="7.68" height="7.68" rx="3.84" fill="#1F2A1F"/><rect x="206.16" y="302.16" width="7.68" height="7.68" rx="3.84" fill="#1F2A1F"/><rect x="314.64" y="295.92" width="6.72" height="20.16" rx="3.36" fill="#1F2A1F"/><rect x="338.64" y="295.92" width="6.72" height="20.16" rx="3.36" fill="#1F2A1F"/><rect x="362.16" y="302.16" width="7.68" height="7.68" rx="3.84" fill="#1F2A1F"/><rect x="379.92" y="302.64" width="20.16" height="6.72" rx="3.36" fill="#1F2A1F"/><rect x="398.16" y="302.16" width="7.68" height="7.68" rx="3.84" fill="#1F2A1F"/><rect x="403.92" y="302.64" width="20.16" height="6.72" rx="3.36" fill="#1F2A1F"/><rect x="422.16" y="302.16" width="7.68" height="7.68" rx="3.84" fill="#6C8A53"/><rect x="434.16" y="302.16" width="7.68" height="7.68" rx="3.84" fill="#1F2A1F"/><rect x="458.16" y="302.16" width="7.68" height="7.68" rx="3.84" fill="#1F2A1F"/><rect x="62.16" y="314.16" width="7.68" height="7.68" rx="3.84" fill="#1F2A1F"/><rect x="74.16" y="314.16" width="7.68" height="7.68" rx="3.84" fill="#6C8A53"/><rect x="98.16" y="314.16" width="7.68" height="7.68" rx="3.84" fill="#1F2A1F"/><rect x="110.16" y="314.16" width="7.68" height="7.68" rx="3.84" fill="#1F2A1F"/><rect x="122.16" y="314.16" width="7.68" height="7.68" rx="3.12" fill="#6C8A53"/><rect x="127.92" y="314.64" width="20.16" height="6.72" rx="3.36" fill="#1F2A1F"/><rect x="170.16" y="314.16" width="7.68" height="7.68" rx="3.84" fill="#6C8A53"/><rect x="206.64" y="307.92" width="6.72" height="20.16" rx="3.36" fill="#1F2A1F"/><rect x="230.16" y="314.16" width="7.68" height="7.68" rx="3.84" fill="#1F2A1F"/><rect x="290.64" y="307.92" width="6.72" height="20.16" rx="3.36" fill="#1F2A1F"/><rect x="326.64" y="307.92" width="6.72" height="20.16" rx="3.36" fill="#1F2A1F"/><rect x="374.64" y="307.92" width="6.72" height="20.16" rx="3.36" fill="#1F2A1F"/><rect x="422.16" y="314.16" width="7.68" height="7.68" rx="3.84" fill="#1F2A1F"/><rect x="434.16" y="314.16" width="7.68" height="7.68" rx="3.84" fill="#1F2A1F"/><rect x="482.16" y="314.16" width="7.68" height="7.68" rx="3.84" fill="#1F2A1F"/><rect x="43.92" y="326.64" width="20.16" height="6.72" rx="3.36" fill="#1F2A1F"/><rect x="62.16" y="326.16" width="7.68" height="7.68" rx="3.84" fill="#6C8A53"/><rect x="74.16" y="326.16" width="7.68" height="7.68" rx="3.84" fill="#1F2A1F"/><rect x="86.16" y="326.16" width="7.68" height="7.68" rx="3.84" fill="#1F2A1F"/><rect x="98.16" y="326.16" width="7.68" height="7.68" rx="3.84" fill="#1F2A1F"/><rect x="146.16" y="326.16" width="7.68" height="7.68" rx="3.84" fill="#1F2A1F"/><rect x="206.64" y="319.92" width="6.72" height="20.16" rx="3.36" fill="#6C8A53"/><rect x="235.92" y="326.64" width="20.16" height="6.72" rx="3.36" fill="#1F2A1F"/><rect x="247.92" y="326.64" width="20.16" height="6.72" rx="3.36" fill="#6C8A53"/><rect x="266.16" y="326.16" width="7.68" height="7.68" rx="3.84" fill="#1F2A1F"/><rect x="278.16" y="326.16" width="7.68" height="7.68" rx="3.84" fill="#1F2A1F"/><rect x="290.16" y="326.16" width="7.68" height="7.68" rx="3.84" fill="#1F2A1F"/><rect x="302.16" y="326.16" width="7.68" height="7.68" rx="3.84" fill="#6C8A53"/><rect x="314.16" y="326.16" width="7.68" height="7.68" rx="3.84" fill="#1F2A1F"/><rect x="326.16" y="326.16" width="7.68" height="7.68" rx="3.84" fill="#1F2A1F"/><rect x="338.16" y="326.16" width="7.68" height="7.68" rx="3.84" fill="#1F2A1F"/><rect x="350.16" y="326.16" width="7.68" height="7.68" rx="3.84" fill="#6C8A53"/><rect x="355.92" y="326.64" width="20.16" height="6.72" rx="3.36" fill="#1F2A1F"/><rect x="374.16" y="326.16" width="7.68" height="7.68" rx="3.84" fill="#1F2A1F"/><rect x="398.64" y="319.92" width="6.72" height="20.16" rx="3.36" fill="#6C8A53"/><rect x="422.16" y="326.16" width="7.68" height="7.68" rx="3.84" fill="#1F2A1F"/><rect x="434.16" y="326.16" width="7.68" height="7.68" rx="3.84" fill="#1F2A1F"/><rect x="458.64" y="319.92" width="6.72" height="20.16" rx="3.36" fill="#1F2A1F"/><rect x="74.16" y="338.16" width="7.68" height="7.68" rx="3.84" fill="#1F2A1F"/><rect x="86.16" y="338.16" width="7.68" height="7.68" rx="3.84" fill="#1F2A1F"/><rect x="103.92" y="338.64" width="20.16" height="6.72" rx="3.36" fill="#1F2A1F"/><rect x="122.16" y="338.16" width="7.68" height="7.68" rx="3.12" fill="#1F2A1F"/><rect x="158.64" y="331.92" width="6.72" height="20.16" rx="3.36" fill="#1F2A1F"/><rect x="182.64" y="331.92" width="6.72" height="20.16" rx="3.36" fill="#1F2A1F"/><rect x="230.16" y="338.16" width="7.68" height="7.68" rx="3.84" fill="#1F2A1F"/><rect x="266.16" y="338.16" width="7.68" height="7.68" rx="3.84" fill="#1F2A1F"/><rect x="278.16" y="338.16" width="7.68" height="7.68" rx="3.84" fill="#1F2A1F"/><rect x="290.16" y="338.16" width="7.68" height="7.68" rx="3.84" fill="#6C8A53"/><rect x="302.16" y="338.16" width="7.68" height="7.68" rx="3.84" fill="#1F2A1F"/><rect x="314.16" y="338.16" width="7.68" height="7.68" rx="3.84" fill="#1F2A1F"/><rect x="326.16" y="338.16" width="7.68" height="7.68" rx="3.84" fill="#1F2A1F"/><rect x="338.16" y="338.16" width="7.68" height="7.68" rx="3.84" fill="#6C8A53"/><rect x="350.16" y="338.16" width="7.68" height="7.68" rx="3.84" fill="#1F2A1F"/><rect x="398.64" y="331.92" width="6.72" height="20.16" rx="3.36" fill="#1F2A1F"/><rect x="434.16" y="338.16" width="7.68" height="7.68" rx="3.84" fill="#6C8A53"/><rect x="446.16" y="338.16" width="7.68" height="7.68" rx="3.84" fill="#1F2A1F"/><rect x="458.16" y="338.16" width="7.68" height="7.68" rx="3.84" fill="#1F2A1F"/><rect x="482.64" y="331.92" width="6.72" height="20.16" rx="3.36" fill="#6C8A53"/><rect x="55.92" y="350.64" width="20.16" height="6.72" rx="3.36" fill="#1F2A1F"/><rect x="74.16" y="350.16" width="7.68" height="7.68" rx="3.84" fill="#1F2A1F"/><rect x="86.16" y="350.16" width="7.68" height="7.68" rx="3.84" fill="#6C8A53"/><rect x="98.16" y="350.16" width="7.68" height="7.68" rx="3.84" fill="#1F2A1F"/><rect x="139.92" y="350.64" width="20.16" height="6.72" rx="3.36" fill="#1F2A1F"/><rect x="158.16" y="350.16" width="7.68" height="7.68" rx="3.84" fill="#1F2A1F"/><rect x="163.92" y="350.64" width="20.16" height="6.72" rx="3.36" fill="#1F2A1F"/><rect x="182.16" y="350.16" width="7.68" height="7.68" rx="3.84" fill="#6C8A53"/><rect x="194.16" y="350.16" width="7.68" height="7.68" rx="3.84" fill="#1F2A1F"/><rect x="218.16" y="350.16" width="7.68" height="7.68" rx="3.84" fill="#1F2A1F"/><rect x="235.92" y="350.64" width="20.16" height="6.72" rx="3.36" fill="#1F2A1F"/><rect x="254.16" y="350.16" width="7.68" height="7.68" rx="3.84" fill="#1F2A1F"/><rect x="302.16" y="350.16" width="7.68" height="7.68" rx="3.84" fill="#1F2A1F"/><rect x="314.16" y="350.16" width="7.68" height="7.68" rx="3.84" fill="#1F2A1F"/><rect x="362.64" y="343.92" width="6.72" height="20.16" rx="3.36" fill="#1F2A1F"/><rect x="379.92" y="350.64" width="20.16" height="6.72" rx="3.36" fill="#1F2A1F"/><rect x="398.16" y="350.16" width="7.68" height="7.68" rx="3.84" fill="#1F2A1F"/><rect x="403.92" y="350.64" width="20.16" height="6.72" rx="3.36" fill="#1F2A1F"/><rect x="446.64" y="343.92" width="6.72" height="20.16" rx="3.36" fill="#1F2A1F"/><rect x="470.16" y="350.16" width="7.68" height="7.68" rx="3.84" fill="#6C8A53"/><rect x="482.16" y="350.16" width="7.68" height="7.68" rx="3.84" fill="#1F2A1F"/><rect x="86.16" y="362.16" width="7.68" height="7.68" rx="3.84" fill="#1F2A1F"/><rect x="98.16" y="362.16" width="7.68" height="7.68" rx="3.84" fill="#1F2A1F"/><rect x="103.92" y="362.64" width="20.16" height="6.72" rx="3.36" fill="#1F2A1F"/><rect x="122.16" y="362.16" width="7.68" height="7.68" rx="3.12" fill="#6C8A53"/><rect x="182.16" y="362.16" width="7.68" height="7.68" rx="3.84" fill="#1F2A1F"/><rect x="194.16" y="362.16" width="7.68" height="7.68" rx="3.84" fill="#1F2A1F"/><rect x="230.16" y="362.16" width="7.68" height="7.68" rx="3.84" fill="#1F2A1F"/><rect x="254.64" y="355.92" width="6.72" height="20.16" rx="3.36" fill="#1F2A1F"/><rect x="290.16" y="362.16" width="7.68" height="7.68" rx="3.84" fill="#1F2A1F"/><rect x="331.92" y="362.64" width="20.16" height="6.72" rx="3.36" fill="#1F2A1F"/><rect x="350.16" y="362.16" width="7.68" height="7.68" rx="3.84" fill="#1F2A1F"/><rect x="362.16" y="362.16" width="7.68" height="7.68" rx="3.84" fill="#6C8A53"/><rect x="415.92" y="362.64" width="20.16" height="6.72" rx="3.36" fill="#1F2A1F"/><rect x="427.92" y="362.64" width="20.16" height="6.72" rx="3.36" fill="#1F2A1F"/><rect x="470.16" y="362.16" width="7.68" height="7.68" rx="3.84" fill="#1F2A1F"/><rect x="482.16" y="362.16" width="7.68" height="7.68" rx="3.84" fill="#1F2A1F"/><rect x="67.92" y="374.64" width="20.16" height="6.72" rx="3.36" fill="#1F2A1F"/><rect x="86.16" y="374.16" width="7.68" height="7.68" rx="3.84" fill="#1F2A1F"/><rect x="98.16" y="374.16" width="7.68" height="7.68" rx="3.84" fill="#1F2A1F"/><rect x="134.16" y="374.16" width="7.68" height="7.68" rx="3.84" fill="#1F2A1F"/><rect x="146.16" y="374.16" width="7.68" height="7.68" rx="3.84" fill="#1F2A1F"/><rect x="194.16" y="374.16" width="7.68" height="7.68" rx="3.84" fill="#1F2A1F"/><rect x="206.16" y="374.16" width="7.68" height="7.68" rx="3.84" fill="#6C8A53"/><rect x="235.92" y="374.64" width="20.16" height="6.72" rx="3.36" fill="#1F2A1F"/><rect x="254.16" y="374.16" width="7.68" height="7.68" rx="3.84" fill="#6C8A53"/><rect x="259.92" y="374.64" width="20.16" height="6.72" rx="3.36" fill="#1F2A1F"/><rect x="271.92" y="374.64" width="20.16" height="6.72" rx="3.36" fill="#1F2A1F"/><rect x="326.64" y="367.92" width="6.72" height="20.16" rx="3.36" fill="#1F2A1F"/><rect x="350.64" y="367.92" width="6.72" height="20.16" rx="3.36" fill="#6C8A53"/><rect x="367.92" y="374.64" width="20.16" height="6.72" rx="3.36" fill="#1F2A1F"/><rect x="379.92" y="374.64" width="20.16" height="6.72" rx="3.36" fill="#1F2A1F"/><rect x="458.16" y="374.16" width="7.68" height="7.68" rx="3.84" fill="#1F2A1F"/><rect x="470.16" y="374.16" width="7.68" height="7.68" rx="3.84" fill="#1F2A1F"/><rect x="43.92" y="386.64" width="20.16" height="6.72" rx="3.36" fill="#6C8A53"/><rect x="55.92" y="386.64" width="20.16" height="6.72" rx="3.36" fill="#1F2A1F"/><rect x="122.16" y="386.16" width="7.68" height="7.68" rx="3.12" fill="#1F2A1F"/><rect x="134.16" y="386.16" width="7.68" height="7.68" rx="3.84" fill="#1F2A1F"/><rect x="146.16" y="386.16" width="7.68" height="7.68" rx="3.84" fill="#6C8A53"/><rect x="206.64" y="379.92" width="6.72" height="20.16" rx="3.36" fill="#1F2A1F"/><rect x="230.16" y="386.16" width="7.68" height="7.68" rx="3.84" fill="#1F2A1F"/><rect x="290.64" y="379.92" width="6.72" height="20.16" rx="3.36" fill="#6C8A53"/><rect x="326.16" y="386.16" width="7.68" height="7.68" rx="3.84" fill="#1F2A1F"/><rect x="338.16" y="386.16" width="7.68" height="7.68" rx="3.84" fill="#6C8A53"/><rect x="350.16" y="386.16" width="7.68" height="7.68" rx="3.84" fill="#1F2A1F"/><rect x="458.64" y="379.92" width="6.72" height="20.16" rx="3.36" fill="#1F2A1F"/><rect x="146.16" y="398.16" width="7.68" height="7.68" rx="3.12" fill="#1F2A1F"/><rect x="151.92" y="398.64" width="20.16" height="6.72" rx="3.36" fill="#1F2A1F"/><rect x="163.92" y="398.64" width="20.16" height="6.72" rx="3.36" fill="#1F2A1F"/><rect x="194.64" y="391.92" width="6.72" height="20.16" rx="3.36" fill="#1F2A1F"/><rect x="266.16" y="398.16" width="7.68" height="7.68" rx="3.84" fill="#1F2A1F"/><rect x="290.64" y="391.92" width="6.72" height="20.16" rx="3.36" fill="#1F2A1F"/><rect x="307.92" y="398.64" width="20.16" height="6.72" rx="3.36" fill="#1F2A1F"/><rect x="326.16" y="398.16" width="7.68" height="7.68" rx="3.84" fill="#6C8A53"/><rect x="338.16" y="398.16" width="7.68" height="7.68" rx="3.84" fill="#1F2A1F"/><rect x="350.16" y="398.16" width="7.68" height="7.68" rx="3.84" fill="#1F2A1F"/><rect x="374.16" y="398.16" width="7.68" height="7.68" rx="3.84" fill="#6C8A53"/><rect x="463.92" y="398.64" width="20.16" height="6.72" rx="3.36" fill="#6C8A53"/><rect x="482.16" y="398.16" width="7.68" height="7.68" rx="3.84" fill="#1F2A1F"/><rect x="146.16" y="410.16" width="7.68" height="7.68" rx="3.12" fill="#1F2A1F"/><rect x="194.16" y="410.16" width="7.68" height="7.68" rx="3.84" fill="#1F2A1F"/><rect x="206.16" y="410.16" width="7.68" height="7.68" rx="3.84" fill="#1F2A1F"/><rect x="254.16" y="410.16" width="7.68" height="7.68" rx="3.84" fill="#1F2A1F"/><rect x="278.64" y="403.92" width="6.72" height="20.16" rx="3.36" fill="#1F2A1F"/><rect x="326.16" y="410.16" width="7.68" height="7.68" rx="3.84" fill="#1F2A1F"/><rect x="338.16" y="410.16" width="7.68" height="7.68" rx="3.84" fill="#1F2A1F"/><rect x="350.16" y="410.16" width="7.68" height="7.68" rx="3.84" fill="#1F2A1F"/><rect x="439.92" y="410.64" width="20.16" height="6.72" rx="3.36" fill="#1F2A1F"/><rect x="458.16" y="410.16" width="7.68" height="7.68" rx="3.84" fill="#6C8A53"/><rect x="482.64" y="403.92" width="6.72" height="20.16" rx="3.36" fill="#1F2A1F"/><rect x="151.92" y="422.64" width="20.16" height="6.72" rx="3.36" fill="#6C8A53"/><rect x="170.16" y="422.16" width="7.68" height="7.68" rx="3.84" fill="#1F2A1F"/><rect x="182.16" y="422.16" width="7.68" height="7.68" rx="3.84" fill="#1F2A1F"/><rect x="206.64" y="415.92" width="6.72" height="20.16" rx="3.36" fill="#6C8A53"/><rect x="259.92" y="422.64" width="20.16" height="6.72" rx="3.36" fill="#1F2A1F"/><rect x="278.16" y="422.16" width="7.68" height="7.68" rx="3.84" fill="#1F2A1F"/><rect x="302.16" y="422.16" width="7.68" height="7.68" rx="3.84" fill="#6C8A53"/><rect x="350.16" y="422.16" width="7.68" height="7.68" rx="3.84" fill="#6C8A53"/><rect x="362.16" y="422.16" width="7.68" height="7.68" rx="3.84" fill="#1F2A1F"/><rect x="367.92" y="422.64" width="20.16" height="6.72" rx="3.36" fill="#1F2A1F"/><rect x="458.16" y="422.16" width="7.68" height="7.68" rx="3.84" fill="#1F2A1F"/><rect x="470.16" y="422.16" width="7.68" height="7.68" rx="3.84" fill="#1F2A1F"/><rect x="482.16" y="422.16" width="7.68" height="7.68" rx="3.84" fill="#1F2A1F"/><rect x="146.16" y="434.16" width="7.68" height="7.68" rx="3.12" fill="#6C8A53"/><rect x="170.16" y="434.16" width="7.68" height="7.68" rx="3.84" fill="#1F2A1F"/><rect x="182.16" y="434.16" width="7.68" height="7.68" rx="3.84" fill="#1F2A1F"/><rect x="194.16" y="434.16" width="7.68" height="7.68" rx="3.84" fill="#6C8A53"/><rect x="206.16" y="434.16" width="7.68" height="7.68" rx="3.84" fill="#1F2A1F"/><rect x="211.92" y="434.64" width="20.16" height="6.72" rx="3.36" fill="#1F2A1F"/><rect x="290.64" y="427.92" width="6.72" height="20.16" rx="3.36" fill="#6C8A53"/><rect x="314.16" y="434.16" width="7.68" height="7.68" rx="3.84" fill="#1F2A1F"/><rect x="338.16" y="434.16" width="7.68" height="7.68" rx="3.84" fill="#6C8A53"/><rect x="350.16" y="434.16" width="7.68" height="7.68" rx="3.84" fill="#1F2A1F"/><rect x="362.16" y="434.16" width="7.68" height="7.68" rx="3.84" fill="#1F2A1F"/><rect x="439.92" y="434.64" width="20.16" height="6.72" rx="3.36" fill="#1F2A1F"/><rect x="458.16" y="434.16" width="7.68" height="7.68" rx="3.84" fill="#1F2A1F"/><rect x="470.16" y="434.16" width="7.68" height="7.68" rx="3.84" fill="#1F2A1F"/><rect x="482.16" y="434.16" width="7.68" height="7.68" rx="3.84" fill="#6C8A53"/><rect x="158.16" y="446.16" width="7.68" height="7.68" rx="3.84" fill="#1F2A1F"/><rect x="170.16" y="446.16" width="7.68" height="7.68" rx="3.84" fill="#1F2A1F"/><rect x="194.64" y="439.92" width="6.72" height="20.16" rx="3.36" fill="#1F2A1F"/><rect x="242.16" y="446.16" width="7.68" height="7.68" rx="3.84" fill="#1F2A1F"/><rect x="247.92" y="446.64" width="20.16" height="6.72" rx="3.36" fill="#1F2A1F"/><rect x="266.16" y="446.16" width="7.68" height="7.68" rx="3.84" fill="#1F2A1F"/><rect x="271.92" y="446.64" width="20.16" height="6.72" rx="3.36" fill="#6C8A53"/><rect x="290.16" y="446.16" width="7.68" height="7.68" rx="3.84" fill="#1F2A1F"/><rect x="338.16" y="446.16" width="7.68" height="7.68" rx="3.84" fill="#1F2A1F"/><rect x="350.16" y="446.16" width="7.68" height="7.68" rx="3.84" fill="#1F2A1F"/><rect x="362.16" y="446.16" width="7.68" height="7.68" rx="3.84" fill="#1F2A1F"/><rect x="386.16" y="446.16" width="7.68" height="7.68" rx="3.84" fill="#1F2A1F"/><rect x="398.16" y="446.16" width="7.68" height="7.68" rx="3.84" fill="#1F2A1F"/><rect x="403.92" y="446.64" width="20.16" height="6.72" rx="3.36" fill="#1F2A1F"/><rect x="415.92" y="446.64" width="20.16" height="6.72" rx="3.36" fill="#6C8A53"/><rect x="427.92" y="446.64" width="20.16" height="6.72" rx="3.36" fill="#1F2A1F"/><rect x="458.16" y="446.16" width="7.68" height="7.68" rx="3.84" fill="#1F2A1F"/><rect x="470.16" y="446.16" width="7.68" height="7.68" rx="3.84" fill="#6C8A53"/><rect x="482.16" y="446.16" width="7.68" height="7.68" rx="3.84" fill="#1F2A1F"/><rect x="158.64" y="451.92" width="6.72" height="20.16" rx="3.36" fill="#1F2A1F"/><rect x="182.16" y="458.16" width="7.68" height="7.68" rx="3.84" fill="#1F2A1F"/><rect x="194.16" y="458.16" width="7.68" height="7.68" rx="3.84" fill="#1F2A1F"/><rect x="206.16" y="458.16" width="7.68" height="7.68" rx="3.84" fill="#1F2A1F"/><rect x="218.16" y="458.16" width="7.68" height="7.68" rx="3.84" fill="#6C8A53"/><rect x="242.64" y="451.92" width="6.72" height="20.16" rx="3.36" fill="#1F2A1F"/><rect x="266.64" y="451.92" width="6.72" height="20.16" rx="3.36" fill="#6C8A53"/><rect x="302.16" y="458.16" width="7.68" height="7.68" rx="3.84" fill="#1F2A1F"/><rect x="307.92" y="458.64" width="20.16" height="6.72" rx="3.36" fill="#6C8A53"/><rect x="319.92" y="458.64" width="20.16" height="6.72" rx="3.36" fill="#1F2A1F"/><rect x="338.16" y="458.16" width="7.68" height="7.68" rx="3.84" fill="#1F2A1F"/><rect x="350.16" y="458.16" width="7.68" height="7.68" rx="3.84" fill="#1F2A1F"/><rect x="362.16" y="458.16" width="7.68" height="7.68" rx="3.84" fill="#6C8A53"/><rect x="386.16" y="458.16" width="7.68" height="7.68" rx="3.84" fill="#1F2A1F"/><rect x="398.16" y="458.16" width="7.68" height="7.68" rx="3.84" fill="#1F2A1F"/><rect x="470.16" y="458.16" width="7.68" height="7.68" rx="3.84" fill="#1F2A1F"/><rect x="482.16" y="458.16" width="7.68" height="7.68" rx="3.84" fill="#1F2A1F"/><rect x="182.16" y="470.16" width="7.68" height="7.68" rx="3.84" fill="#1F2A1F"/><rect x="194.16" y="470.16" width="7.68" height="7.68" rx="3.84" fill="#1F2A1F"/><rect x="206.16" y="470.16" width="7.68" height="7.68" rx="3.84" fill="#6C8A53"/><rect x="218.16" y="470.16" width="7.68" height="7.68" rx="3.84" fill="#1F2A1F"/><rect x="230.16" y="470.16" width="7.68" height="7.68" rx="3.84" fill="#1F2A1F"/><rect x="266.64" y="463.92" width="6.72" height="20.16" rx="3.36" fill="#1F2A1F"/><rect x="302.64" y="463.92" width="6.72" height="20.16" rx="3.36" fill="#6C8A53"/><rect x="338.16" y="470.16" width="7.68" height="7.68" rx="3.84" fill="#1F2A1F"/><rect x="350.16" y="470.16" width="7.68" height="7.68" rx="3.84" fill="#6C8A53"/><rect x="362.16" y="470.16" width="7.68" height="7.68" rx="3.84" fill="#1F2A1F"/><rect x="410.16" y="470.16" width="7.68" height="7.68" rx="3.84" fill="#1F2A1F"/><rect x="415.92" y="470.64" width="20.16" height="6.72" rx="3.36" fill="#1F2A1F"/><rect x="458.16" y="470.16" width="7.68" height="7.68" rx="3.84" fill="#1F2A1F"/><rect x="482.64" y="463.92" width="6.72" height="20.16" rx="3.36" fill="#1F2A1F"/><rect x="194.16" y="482.16" width="7.68" height="7.68" rx="3.84" fill="#6C8A53"/><rect x="206.16" y="482.16" width="7.68" height="7.68" rx="3.84" fill="#1F2A1F"/><rect x="230.64" y="475.92" width="6.72" height="20.16" rx="3.36" fill="#1F2A1F"/><rect x="247.92" y="482.64" width="20.16" height="6.72" rx="3.36" fill="#1F2A1F"/><rect x="266.16" y="482.16" width="7.68" height="7.68" rx="3.84" fill="#1F2A1F"/><rect x="290.16" y="482.16" width="7.68" height="7.68" rx="3.84" fill="#6C8A53"/><rect x="350.64" y="475.92" width="6.72" height="20.16" rx="3.36" fill="#1F2A1F"/><rect x="374.16" y="482.16" width="7.68" height="7.68" rx="3.84" fill="#1F2A1F"/><rect x="391.92" y="482.64" width="20.16" height="6.72" rx="3.36" fill="#1F2A1F"/><rect x="410.16" y="482.16" width="7.68" height="7.68" rx="3.84" fill="#1F2A1F"/><rect x="434.16" y="482.16" width="7.68" height="7.68" rx="3.84" fill="#6C8A53"/><rect x="482.64" y="475.92" width="6.72" height="20.16" rx="3.36" fill="#6C8A53"/><rect x="48" y="48" width="84" height="84" rx="18" fill="#1F2A1F"/><rect x="60" y="60" width="60" height="60" rx="13.2" fill="#FFFAF2"/><rect x="72" y="72" width="36" height="36" rx="8.64" fill="#F4C96B"/><rect x="408" y="48" width="84" height="84" rx="18" fill="#1F2A1F"/><rect x="420" y="60" width="60" height="60" rx="13.2" fill="#FFFAF2"/><rect x="432" y="72" width="36" height="36" rx="8.64" fill="#F4C96B"/><rect x="48" y="408" width="84" height="84" rx="18" fill="#1F2A1F"/><rect x="60" y="420" width="60" height="60" rx="13.2" fill="#FFFAF2"/><rect x="72" y="432" width="36" height="36" rx="8.64" fill="#F4C96B"/><rect x="384" y="384" width="60" height="60" rx="12.6" fill="#1F2A1F"/><rect x="396" y="396" width="36" height="36" rx="8.16" fill="#FFFAF2"/><rect x="408" y="408" width="12" height="12" rx="2.88" fill="#6C8A53"/><g transform="translate(270 270) scale(0.52) translate(-99 -99)"><circle cx="99.00" cy="99.00" r="13.1" fill="#36543b" />
  <circle cx="111.58" cy="81.69" r="13.1" fill="#dbe8d0" />
  <circle cx="119.35" cy="105.61" r="13.1" fill="#dbe8d0" />
  <circle cx="99.00" cy="120.40" r="13.1" fill="#dbe8d0" />
  <circle cx="78.65" cy="105.61" r="13.1" fill="#dbe8d0" />
  <circle cx="86.42" cy="81.69" r="13.1" fill="#dbe8d0" />
  <circle cx="99.00" cy="64.00" r="13.1" fill="#dbe8d0" />
  <circle cx="115.64" cy="76.09" r="13.1" fill="#dbe8d0" />
  <circle cx="132.29" cy="88.18" r="13.1" fill="#dbe8d0" />
  <circle cx="125.93" cy="107.75" r="13.1" fill="#dbe8d0" />
  <circle cx="119.57" cy="127.32" r="13.1" fill="#dbe8d0" />
  <circle cx="99.00" cy="127.32" r="13.1" fill="#dbe8d0" />
  <circle cx="78.43" cy="127.32" r="13.1" fill="#dbe8d0" />
  <circle cx="72.07" cy="107.75" r="13.1" fill="#dbe8d0" />
  <circle cx="65.71" cy="88.18" r="13.1" fill="#dbe8d0" />
  <circle cx="82.36" cy="76.09" r="13.1" fill="#dbe8d0" />
  <circle cx="70.43" cy="59.68" r="13.8" fill="#6c8a53" />
  <circle cx="89.48" cy="59.68" r="13.8" fill="#6c8a53" />
  <circle cx="108.52" cy="59.68" r="13.8" fill="#6c8a53" />
  <circle cx="127.57" cy="59.68" r="13.8" fill="#6c8a53" />
  <circle cx="133.45" cy="77.79" r="13.8" fill="#6c8a53" />
  <circle cx="139.34" cy="95.91" r="13.8" fill="#6c8a53" />
  <circle cx="145.22" cy="114.02" r="13.8" fill="#6c8a53" />
  <circle cx="129.81" cy="125.21" r="13.8" fill="#6c8a53" />
  <circle cx="114.41" cy="136.41" r="13.8" fill="#6c8a53" />
  <circle cx="99.00" cy="147.60" r="13.8" fill="#6c8a53" />
  <circle cx="83.59" cy="136.41" r="13.8" fill="#6c8a53" />
  <circle cx="68.19" cy="125.21" r="13.8" fill="#6c8a53" />
  <circle cx="52.78" cy="114.02" r="13.8" fill="#6c8a53" />
  <circle cx="58.66" cy="95.91" r="13.8" fill="#6c8a53" />
  <circle cx="64.55" cy="77.79" r="13.8" fill="#6c8a53" />
  <circle cx="40.80" cy="80.09" r="12.2" fill="#36543b" />
  <circle cx="55.35" cy="69.52" r="12.2" fill="#36543b" />
  <circle cx="69.90" cy="58.94" r="12.2" fill="#36543b" />
  <circle cx="84.45" cy="48.37" r="12.2" fill="#36543b" />
  <circle cx="99.00" cy="37.80" r="12.2" fill="#36543b" />
  <circle cx="113.55" cy="48.37" r="12.2" fill="#36543b" />
  <circle cx="128.10" cy="58.94" r="12.2" fill="#36543b" />
  <circle cx="142.65" cy="69.52" r="12.2" fill="#36543b" />
  <circle cx="157.20" cy="80.09" r="12.2" fill="#36543b" />
  <circle cx="151.65" cy="97.19" r="12.2" fill="#36543b" />
  <circle cx="146.09" cy="114.30" r="12.2" fill="#36543b" />
  <circle cx="140.53" cy="131.41" r="12.2" fill="#36543b" />
  <circle cx="134.97" cy="148.51" r="12.2" fill="#36543b" />
  <circle cx="116.99" cy="148.51" r="12.2" fill="#36543b" />
  <circle cx="99.00" cy="148.51" r="12.2" fill="#36543b" />
  <circle cx="81.01" cy="148.51" r="12.2" fill="#36543b" />
  <circle cx="63.03" cy="148.51" r="12.2" fill="#36543b" />
  <circle cx="57.47" cy="131.41" r="12.2" fill="#36543b" />
  <circle cx="51.91" cy="114.30" r="12.2" fill="#36543b" />
  <circle cx="46.35" cy="97.19" r="12.2" fill="#36543b" /></g></svg>