<svg xmlns="http://www.w3.org/2000/svg" viewBox="205 0 105.26 64.84" width="105.26" height="64.84" preserveAspectRatio="xMidYMid meet">
  <defs>
    <style>
      .cls-1{fill:#d51f35;}
      .cls-2{fill:#a71426;}
      .cls-3{fill:#1b5091;}
      .cls-4{fill:#6084b2;}
    </style>
  </defs>
  <path class="cls-1" d="M216.94,52.18l-.79-2.53h-5.22l-.83,2.53h-4.36l6.17-17h3.22l6.17,17Zm-3.31-10.54-1.53,4.53h3Z"/>
  <path class="cls-1" d="M227.67,52.33a6.32,6.32,0,0,1-4.72-1.91c-1.79-1.79-1.72-4.17-1.72-6.72s-.07-4.93,1.72-6.72a6.32,6.32,0,0,1,4.72-1.91,6.14,6.14,0,0,1,6.43,5.53h-4.24a2.1,2.1,0,0,0-2.17-1.81,2,2,0,0,0-1.64.71c-.38.5-.64,1.1-.64,4.19s.26,3.69.64,4.2a2,2,0,0,0,1.64.71,2.1,2.1,0,0,0,2.17-1.81h4.24A6.14,6.14,0,0,1,227.67,52.33Z"/>
  <path class="cls-1" d="M245,52.18l-.79-2.53H239l-.83,2.53h-4.36l6.17-17h3.22l6.17,17Zm-3.31-10.54-1.53,4.53h3Z"/>
  <path class="cls-1" d="M261.21,50.52a6.32,6.32,0,0,1-4.58,1.67h-6.29v-17h6.29a6.32,6.32,0,0,1,4.58,1.67c2,2,1.76,4.15,1.76,6.82S263.18,48.54,261.21,50.52Zm-2.86-10.63a2.17,2.17,0,0,0-2-1h-1.84v9.53h1.84a2.17,2.17,0,0,0,2-1c.33-.48.45-.93.45-3.81S258.68,40.36,258.34,39.88Z"/>
  <path class="cls-1" d="M265.09,52.18v-17h11.54v3.72h-7.37v2.84h6.29v3.72h-6.29v3h7.37v3.72Z"/>
  <path class="cls-1" d="M290.48,52.18V44.06l-2.41,4.2H285.4L283,44.06v8.13h-4.17v-17h4.1l3.81,7.48,3.81-7.48h4.1v17Z"/>
  <path class="cls-1" d="M305.14,45.27v6.91H301V45.27l-5.12-10.06h4.55l2.67,6.1,2.65-6.1h4.55Z"/>
  <path class="cls-1" d="M227.88,23.51c6.28,4.86,9.93-6.62,1.53-7.05-4.17-.22-7.23,2.43-7.47,7.13-.63,12.31,16.68,7.79,11.25,2.09-1.22,2.57-6.57,4-6.24-2.39.43-8.55,6.71-3.58.94.23"/>
  <path class="cls-1" d="M293,25.29c-16,0-25,10.83-25-3.17,0-.83,0-2.05.11-3.42.34,0,.68,0,1,0,5.85,0,4.62-4.57,4.62-4.57a20.31,20.31,0,0,1-5.31.76,18.2,18.2,0,0,1,.7-3.36c-1.91-.7-3.74-.45-4.8,2.79A11.83,11.83,0,0,1,261,12.67c-1.21,2.41-.22,4.32,2.65,5.31a45.05,45.05,0,0,0-.23,5.06c0,12.13,7.44,8.1,26.66,8.27,8.1.07,11.48,2.65,12.6,6.47,5.6-4.48,1.8-12.48-9.67-12.48"/>
  <path class="cls-1" d="M247.83,23.69c0-10.81-13.68-7.92-11.8-1.8,1.94-2.16,6.77-3.65,7.36,1.48-7.36-4.61-11.71,8-2.25,8a7,7,0,0,0,3.92-1,2.63,2.63,0,0,0,2.92.61c-.54-1-.14-3.8-.14-7.25m-4.39.23c0,.18,0,.38,0,.59,0,9.19-7.7,3.4,0-.59"/>
  <path class="cls-1" d="M254,20.45c0-2,4.23-.68,5.49.85,5.24-5.27-10.13-7.59-10.13-.63,0,5.61,8,4,8,6.42,0,2.21-5.34.14-6.89-1.1-5.07,5.11,11.17,8.66,11.17.65,0-5.06-7.61-4.17-7.61-6.19"/>
  <path class="cls-2" d="M276.21,28.86c.66.64,8.06,0,3.87-1.14"/>
  <path class="cls-2" d="M283.06,27.88c.69.66,8.2.11,4-1.37"/>
  <path class="cls-2" d="M289.75,27c.16,1.06,8.41,1.18,5.42-.6"/>
  <path class="cls-2" d="M297.16,27.3c.81,1.72,7.32,3.26,4.77.53"/>
  <path class="cls-2" d="M303.5,31.37c.26,3,1.29,3.06,1.42,1.35"/>
  <path class="cls-3" d="M276,28.86c-.5-.42,1.61-2.76,2.4-2.76s2.34,1.82,1.92,2.26-3.76,1-4.32.5"/>
  <path class="cls-4" d="M276.87,28.3a.25.25,0,0,1,0-.1A.86.86,0,0,1,277,28a1.91,1.91,0,0,1,.44-.55A1.89,1.89,0,0,1,278,27a1.32,1.32,0,0,1,.23-.08l.1,0a.25.25,0,0,1,0,.1.86.86,0,0,1-.1.23,1.91,1.91,0,0,1-.44.55,1.89,1.89,0,0,1-.58.4,1.32,1.32,0,0,1-.23.08l-.1,0"/>
  <path class="cls-3" d="M282.71,27.76c-.55-.47,1.84-3,2.71-3s2.55,2,2.06,2.53-4.17,1-4.77.47"/>
  <path class="cls-4" d="M283.53,27.07a.52.52,0,0,0,0-.1,1.86,1.86,0,0,1,.13-.24,2.43,2.43,0,0,1,.52-.58,2.73,2.73,0,0,1,.64-.42,1.33,1.33,0,0,1,.26-.1l.11,0a.52.52,0,0,0,0,.1,1.86,1.86,0,0,1-.13.24,2.43,2.43,0,0,1-.52.58,2.73,2.73,0,0,1-.64.42,1.33,1.33,0,0,1-.26.1.28.28,0,0,1-.11,0"/>
  <path class="cls-3" d="M289.59,27c-.56-.58,2.35-3.24,3.34-3.16s2.71,2.56,2.13,3.06-4.82.74-5.46.1"/>
  <path class="cls-4" d="M290.54,26.33a.45.45,0,0,1,.06-.11,1.79,1.79,0,0,1,.19-.29,4.76,4.76,0,0,1,.69-.73,4.28,4.28,0,0,1,.82-.55l.31-.15.13,0a.45.45,0,0,1-.06.11,1.79,1.79,0,0,1-.19.29,4.75,4.75,0,0,1-.69.73,4.28,4.28,0,0,1-.82.55l-.31.15a.28.28,0,0,1-.13,0"/>
  <path class="cls-3" d="M297.1,27.3c-.35-.63,2.74-2.19,3.56-1.9s1.71,2.79,1.1,3.08-4.27-.48-4.66-1.18"/>
  <path class="cls-4" d="M298,27.07l.08-.1a1.48,1.48,0,0,1,.23-.21,4.27,4.27,0,0,1,.77-.48A3.45,3.45,0,0,1,300,26l.31,0h.13l-.08.1a1.48,1.48,0,0,1-.23.21,4.27,4.27,0,0,1-.77.48,3.67,3.67,0,0,1-.87.29l-.31,0H298"/>
  <path class="cls-3" d="M303.27,29.73c.26-.44,2.35.85,2.47,1.47s-1.06,2.06-1.47,1.81-1.27-2.77-1-3.27"/>
  <path class="cls-4" d="M303.92,30.54l0,0,.13,0a.48.48,0,0,1,.56.24.26.26,0,0,1,0,.13.16.16,0,0,1,0,.06l0,0-.13,0a.45.45,0,0,1-.32,0,.55.55,0,0,1-.24-.23.26.26,0,0,1,0-.13.08.08,0,0,1,0,0"/>
  <path class="cls-1" d="M215.06,9.52c5.69,0,9.25,6.19,1,12.69,7.34,2.52,4.3,9.55-2.68,9.55-4.79,0-7.65-3.53-7.65-11.59,0-5.29,2-6.3,6.57-4.25-2.23,5.29-2.7,13.46,1,13.46,2.93,0,3.2-4.08-2-6.24,6.89-5.38,5.15-9.21,3.58-9.21-2.56,0-3,4-2.43,6C206.49,21.95,206.69,9.52,215.06,9.52Z"/>
</svg>
