<svg xmlns="http://www.w3.org/2000/svg" viewBox="0 0 198.00 198.00" role="img" aria-labelledby="title desc">
  <title id="title">The Number Garden pentagonal circle mark</title>
  <desc id="desc">Overlapping circles arranged on pentagonal-number rings.</desc>
  <circle cx="99.00" cy="99.00" r="13.1" fill="#36543b" />
  <circle cx="111.58" cy="81.69" r="13.1" fill="#dbe8d0" />
  <circle cx="119.35" cy="105.61" r="13.1" fill="#dbe8d0" />
  <circle cx="99.00" cy="120.40" r="13.1" fill="#dbe8d0" />
  <circle cx="78.65" cy="105.61" r="13.1" fill="#dbe8d0" />
  <circle cx="86.42" cy="81.69" r="13.1" fill="#dbe8d0" />
  <circle cx="99.00" cy="64.00" r="13.1" fill="#dbe8d0" />
  <circle cx="115.64" cy="76.09" r="13.1" fill="#dbe8d0" />
  <circle cx="132.29" cy="88.18" r="13.1" fill="#dbe8d0" />
  <circle cx="125.93" cy="107.75" r="13.1" fill="#dbe8d0" />
  <circle cx="119.57" cy="127.32" r="13.1" fill="#dbe8d0" />
  <circle cx="99.00" cy="127.32" r="13.1" fill="#dbe8d0" />
  <circle cx="78.43" cy="127.32" r="13.1" fill="#dbe8d0" />
  <circle cx="72.07" cy="107.75" r="13.1" fill="#dbe8d0" />
  <circle cx="65.71" cy="88.18" r="13.1" fill="#dbe8d0" />
  <circle cx="82.36" cy="76.09" r="13.1" fill="#dbe8d0" />
  <circle cx="70.43" cy="59.68" r="13.8" fill="#6c8a53" />
  <circle cx="89.48" cy="59.68" r="13.8" fill="#6c8a53" />
  <circle cx="108.52" cy="59.68" r="13.8" fill="#6c8a53" />
  <circle cx="127.57" cy="59.68" r="13.8" fill="#6c8a53" />
  <circle cx="133.45" cy="77.79" r="13.8" fill="#6c8a53" />
  <circle cx="139.34" cy="95.91" r="13.8" fill="#6c8a53" />
  <circle cx="145.22" cy="114.02" r="13.8" fill="#6c8a53" />
  <circle cx="129.81" cy="125.21" r="13.8" fill="#6c8a53" />
  <circle cx="114.41" cy="136.41" r="13.8" fill="#6c8a53" />
  <circle cx="99.00" cy="147.60" r="13.8" fill="#6c8a53" />
  <circle cx="83.59" cy="136.41" r="13.8" fill="#6c8a53" />
  <circle cx="68.19" cy="125.21" r="13.8" fill="#6c8a53" />
  <circle cx="52.78" cy="114.02" r="13.8" fill="#6c8a53" />
  <circle cx="58.66" cy="95.91" r="13.8" fill="#6c8a53" />
  <circle cx="64.55" cy="77.79" r="13.8" fill="#6c8a53" />
  <circle cx="40.80" cy="80.09" r="12.2" fill="#36543b" />
  <circle cx="55.35" cy="69.52" r="12.2" fill="#36543b" />
  <circle cx="69.90" cy="58.94" r="12.2" fill="#36543b" />
  <circle cx="84.45" cy="48.37" r="12.2" fill="#36543b" />
  <circle cx="99.00" cy="37.80" r="12.2" fill="#36543b" />
  <circle cx="113.55" cy="48.37" r="12.2" fill="#36543b" />
  <circle cx="128.10" cy="58.94" r="12.2" fill="#36543b" />
  <circle cx="142.65" cy="69.52" r="12.2" fill="#36543b" />
  <circle cx="157.20" cy="80.09" r="12.2" fill="#36543b" />
  <circle cx="151.65" cy="97.19" r="12.2" fill="#36543b" />
  <circle cx="146.09" cy="114.30" r="12.2" fill="#36543b" />
  <circle cx="140.53" cy="131.41" r="12.2" fill="#36543b" />
  <circle cx="134.97" cy="148.51" r="12.2" fill="#36543b" />
  <circle cx="116.99" cy="148.51" r="12.2" fill="#36543b" />
  <circle cx="99.00" cy="148.51" r="12.2" fill="#36543b" />
  <circle cx="81.01" cy="148.51" r="12.2" fill="#36543b" />
  <circle cx="63.03" cy="148.51" r="12.2" fill="#36543b" />
  <circle cx="57.47" cy="131.41" r="12.2" fill="#36543b" />
  <circle cx="51.91" cy="114.30" r="12.2" fill="#36543b" />
  <circle cx="46.35" cy="97.19" r="12.2" fill="#36543b" />
</svg>
