<svg xmlns="http://www.w3.org/2000/svg" viewBox="0 0 492 492" role="img" aria-label="Print Card QR code for The Number Garden"><defs><linearGradient id="print-card-bg" x1="0%" y1="0%" x2="100%" y2="100%"><stop offset="0%" stop-color="#FFFAF2"/><stop offset="100%" stop-color="#FFFAF2"/></linearGradient></defs><rect width="492" height="492" rx="26.400000000000002" fill="url(#print-card-bg)"/><rect x="33.6" y="33.6" width="424.8" height="424.8" rx="20.4" fill="none" stroke="#DFE8D1" stroke-width="1.5" opacity="0.85"/><rect x="156.24" y="48.24" width="11.52" height="11.52" rx="0.48" fill="#1F2A1F"/><rect x="168.24" y="48.24" width="11.52" height="11.52" rx="0.48" fill="#1F2A1F"/><rect x="204.24" y="48.24" width="11.52" height="11.52" rx="0.48" fill="#1F2A1F"/><rect x="216.24" y="48.24" width="11.52" height="11.52" rx="0.48" fill="#1F2A1F"/><rect x="228.24" y="48.24" width="11.52" height="11.52" rx="0.48" fill="#1F2A1F"/><rect x="252.24" y="48.24" width="11.52" height="11.52" rx="0.48" fill="#1F2A1F"/><rect x="264.24" y="48.24" width="11.52" height="11.52" rx="0.48" fill="#1F2A1F"/><rect x="276.24" y="48.24" width="11.52" height="11.52" rx="0.48" fill="#1F2A1F"/><rect x="300.24" y="48.24" width="11.52" height="11.52" rx="0.48" fill="#1F2A1F"/><rect x="336.24" y="48.24" width="11.52" height="11.52" rx="0.48" fill="#1F2A1F"/><rect x="144.24" y="60.24" width="11.52" height="11.52" rx="0.48" fill="#1F2A1F"/><rect x="192.24" y="60.24" width="11.52" height="11.52" rx="0.48" fill="#1F2A1F"/><rect x="216.24" y="60.24" width="11.52" height="11.52" rx="0.48" fill="#1F2A1F"/><rect x="228.24" y="60.24" width="11.52" height="11.52" rx="0.48" fill="#1F2A1F"/><rect x="240.24" y="60.24" width="11.52" height="11.52" rx="0.48" fill="#1F2A1F"/><rect x="264.24" y="60.24" width="11.52" height="11.52" rx="0.48" fill="#1F2A1F"/><rect x="276.24" y="60.24" width="11.52" height="11.52" rx="0.48" fill="#1F2A1F"/><rect x="288.24" y="60.24" width="11.52" height="11.52" rx="0.48" fill="#1F2A1F"/><rect x="300.24" y="60.24" width="11.52" height="11.52" rx="0.48" fill="#1F2A1F"/><rect x="324.24" y="60.24" width="11.52" height="11.52" rx="0.48" fill="#1F2A1F"/><rect x="144.24" y="72.24" width="11.52" height="11.52" rx="0.48" fill="#1F2A1F"/><rect x="156.24" y="72.24" width="11.52" height="11.52" rx="0.48" fill="#1F2A1F"/><rect x="216.24" y="72.24" width="11.52" height="11.52" rx="0.48" fill="#1F2A1F"/><rect x="228.24" y="72.24" width="11.52" height="11.52" rx="0.48" fill="#1F2A1F"/><rect x="240.24" y="72.24" width="11.52" height="11.52" rx="0.48" fill="#1F2A1F"/><rect x="252.24" y="72.24" width="11.52" height="11.52" rx="0.48" fill="#1F2A1F"/><rect x="264.24" y="72.24" width="11.52" height="11.52" rx="0.48" fill="#1F2A1F"/><rect x="276.24" y="72.24" width="11.52" height="11.52" rx="0.48" fill="#1F2A1F"/><rect x="288.24" y="72.24" width="11.52" height="11.52" rx="0.48" fill="#1F2A1F"/><rect x="144.24" y="84.24" width="11.52" height="11.52" rx="0.48" fill="#1F2A1F"/><rect x="156.24" y="84.24" width="11.52" height="11.52" rx="0.48" fill="#1F2A1F"/><rect x="168.24" y="84.24" width="11.52" height="11.52" rx="0.48" fill="#1F2A1F"/><rect x="180.24" y="84.24" width="11.52" height="11.52" rx="0.48" fill="#1F2A1F"/><rect x="204.24" y="84.24" width="11.52" height="11.52" rx="0.48" fill="#1F2A1F"/><rect x="216.24" y="84.24" width="11.52" height="11.52" rx="0.48" fill="#1F2A1F"/><rect x="228.24" y="84.24" width="11.52" height="11.52" rx="0.48" fill="#1F2A1F"/><rect x="240.24" y="84.24" width="11.52" height="11.52" rx="0.48" fill="#1F2A1F"/><rect x="252.24" y="84.24" width="11.52" height="11.52" rx="0.48" fill="#1F2A1F"/><rect x="264.24" y="84.24" width="11.52" height="11.52" rx="0.48" fill="#1F2A1F"/><rect x="276.24" y="84.24" width="11.52" height="11.52" rx="0.48" fill="#1F2A1F"/><rect x="156.24" y="96.24" width="11.52" height="11.52" rx="0.48" fill="#1F2A1F"/><rect x="180.24" y="96.24" width="11.52" height="11.52" rx="0.48" fill="#1F2A1F"/><rect x="192.24" y="96.24" width="11.52" height="11.52" rx="0.48" fill="#1F2A1F"/><rect x="216.24" y="96.24" width="11.52" height="11.52" rx="0.48" fill="#1F2A1F"/><rect x="228.24" y="96.24" width="11.52" height="11.52" rx="0.48" fill="#1F2A1F"/><rect x="240.24" y="96.24" width="11.52" height="11.52" rx="0.48" fill="#1F2A1F"/><rect x="276.24" y="96.24" width="11.52" height="11.52" rx="0.48" fill="#1F2A1F"/><rect x="336.24" y="96.24" width="11.52" height="11.52" rx="0.48" fill="#1F2A1F"/><rect x="144.24" y="108.24" width="11.52" height="11.52" rx="0.48" fill="#1F2A1F"/><rect x="156.24" y="108.24" width="11.52" height="11.52" rx="0.48" fill="#1F2A1F"/><rect x="204.24" y="108.24" width="11.52" height="11.52" rx="0.48" fill="#1F2A1F"/><rect x="216.24" y="108.24" width="11.52" height="11.52" rx="0.48" fill="#1F2A1F"/><rect x="228.24" y="108.24" width="11.52" height="11.52" rx="0.48" fill="#1F2A1F"/><rect x="252.24" y="108.24" width="11.52" height="11.52" rx="0.48" fill="#1F2A1F"/><rect x="264.24" y="108.24" width="11.52" height="11.52" rx="0.48" fill="#1F2A1F"/><rect x="312.24" y="108.24" width="11.52" height="11.52" rx="0.48" fill="#1F2A1F"/><rect x="144.24" y="120.24" width="11.52" height="11.52" rx="0.48" fill="#1F2A1F"/><rect x="168.24" y="120.24" width="11.52" height="11.52" rx="0.48" fill="#1F2A1F"/><rect x="192.24" y="120.24" width="11.52" height="11.52" rx="0.48" fill="#1F2A1F"/><rect x="216.24" y="120.24" width="11.52" height="11.52" rx="0.48" fill="#1F2A1F"/><rect x="240.24" y="120.24" width="11.52" height="11.52" rx="0.48" fill="#1F2A1F"/><rect x="264.24" y="120.24" width="11.52" height="11.52" rx="0.48" fill="#1F2A1F"/><rect x="288.24" y="120.24" width="11.52" height="11.52" rx="0.48" fill="#1F2A1F"/><rect x="312.24" y="120.24" width="11.52" height="11.52" rx="0.48" fill="#1F2A1F"/><rect x="336.24" y="120.24" width="11.52" height="11.52" rx="0.48" fill="#1F2A1F"/><rect x="180.24" y="132.24" width="11.52" height="11.52" rx="0.48" fill="#1F2A1F"/><rect x="192.24" y="132.24" width="11.52" height="11.52" rx="0.48" fill="#1F2A1F"/><rect x="216.24" y="132.24" width="11.52" height="11.52" rx="0.48" fill="#1F2A1F"/><rect x="228.24" y="132.24" width="11.52" height="11.52" rx="0.48" fill="#1F2A1F"/><rect x="288.24" y="132.24" width="11.52" height="11.52" rx="0.48" fill="#1F2A1F"/><rect x="324.24" y="132.24" width="11.52" height="11.52" rx="0.48" fill="#1F2A1F"/><rect x="60.24" y="144.24" width="11.52" height="11.52" rx="0.48" fill="#1F2A1F"/><rect x="72.24" y="144.24" width="11.52" height="11.52" rx="0.48" fill="#1F2A1F"/><rect x="120.24" y="144.24" width="11.52" height="11.52" rx="0.48" fill="#1F2A1F"/><rect x="156.24" y="144.24" width="11.52" height="11.52" rx="0.48" fill="#1F2A1F"/><rect x="180.24" y="144.24" width="11.52" height="11.52" rx="0.48" fill="#1F2A1F"/><rect x="192.24" y="144.24" width="11.52" height="11.52" rx="0.48" fill="#1F2A1F"/><rect x="204.24" y="144.24" width="11.52" height="11.52" rx="0.48" fill="#1F2A1F"/><rect x="228.24" y="144.24" width="11.52" height="11.52" rx="0.48" fill="#1F2A1F"/><rect x="252.24" y="144.24" width="11.52" height="11.52" rx="0.48" fill="#1F2A1F"/><rect x="300.24" y="144.24" width="11.52" height="11.52" rx="0.48" fill="#1F2A1F"/><rect x="336.24" y="144.24" width="11.52" height="11.52" rx="0.48" fill="#1F2A1F"/><rect x="348.24" y="144.24" width="11.52" height="11.52" rx="0.48" fill="#1F2A1F"/><rect x="372.24" y="144.24" width="11.52" height="11.52" rx="0.48" fill="#1F2A1F"/><rect x="396.24" y="144.24" width="11.52" height="11.52" rx="0.48" fill="#1F2A1F"/><rect x="408.24" y="144.24" width="11.52" height="11.52" rx="0.48" fill="#1F2A1F"/><rect x="420.24" y="144.24" width="11.52" height="11.52" rx="0.48" fill="#1F2A1F"/><rect x="48.24" y="156.24" width="11.52" height="11.52" rx="0.48" fill="#1F2A1F"/><rect x="72.24" y="156.24" width="11.52" height="11.52" rx="0.48" fill="#1F2A1F"/><rect x="84.24" y="156.24" width="11.52" height="11.52" rx="0.48" fill="#1F2A1F"/><rect x="108.24" y="156.24" width="11.52" height="11.52" rx="0.48" fill="#1F2A1F"/><rect x="168.24" y="156.24" width="11.52" height="11.52" rx="0.48" fill="#1F2A1F"/><rect x="180.24" y="156.24" width="11.52" height="11.52" rx="0.48" fill="#1F2A1F"/><rect x="192.24" y="156.24" width="11.52" height="11.52" rx="0.48" fill="#1F2A1F"/><rect x="216.24" y="156.24" width="11.52" height="11.52" rx="0.48" fill="#1F2A1F"/><rect x="228.24" y="156.24" width="11.52" height="11.52" rx="0.48" fill="#1F2A1F"/><rect x="240.24" y="156.24" width="11.52" height="11.52" rx="0.48" fill="#1F2A1F"/><rect x="252.24" y="156.24" width="11.52" height="11.52" rx="0.48" fill="#1F2A1F"/><rect x="264.24" y="156.24" width="11.52" height="11.52" rx="0.48" fill="#1F2A1F"/><rect x="288.24" y="156.24" width="11.52" height="11.52" rx="0.48" fill="#1F2A1F"/><rect x="336.24" y="156.24" width="11.52" height="11.52" rx="0.48" fill="#1F2A1F"/><rect x="348.24" y="156.24" width="11.52" height="11.52" rx="0.48" fill="#1F2A1F"/><rect x="372.24" y="156.24" width="11.52" height="11.52" rx="0.48" fill="#1F2A1F"/><rect x="408.24" y="156.24" width="11.52" height="11.52" rx="0.48" fill="#1F2A1F"/><rect x="432.24" y="156.24" width="11.52" height="11.52" rx="0.48" fill="#1F2A1F"/><rect x="60.24" y="168.24" width="11.52" height="11.52" rx="0.48" fill="#1F2A1F"/><rect x="72.24" y="168.24" width="11.52" height="11.52" rx="0.48" fill="#1F2A1F"/><rect x="96.24" y="168.24" width="11.52" height="11.52" rx="0.48" fill="#1F2A1F"/><rect x="108.24" y="168.24" width="11.52" height="11.52" rx="0.48" fill="#1F2A1F"/><rect x="120.24" y="168.24" width="11.52" height="11.52" rx="0.48" fill="#1F2A1F"/><rect x="180.24" y="168.24" width="11.52" height="11.52" rx="0.48" fill="#1F2A1F"/><rect x="204.24" y="168.24" width="11.52" height="11.52" rx="0.48" fill="#1F2A1F"/><rect x="228.24" y="168.24" width="11.52" height="11.52" rx="0.48" fill="#1F2A1F"/><rect x="264.24" y="168.24" width="11.52" height="11.52" rx="0.48" fill="#1F2A1F"/><rect x="288.24" y="168.24" width="11.52" height="11.52" rx="0.48" fill="#1F2A1F"/><rect x="312.24" y="168.24" width="11.52" height="11.52" rx="0.48" fill="#1F2A1F"/><rect x="336.24" y="168.24" width="11.52" height="11.52" rx="0.48" fill="#1F2A1F"/><rect x="348.24" y="168.24" width="11.52" height="11.52" rx="0.48" fill="#1F2A1F"/><rect x="372.24" y="168.24" width="11.52" height="11.52" rx="0.48" fill="#1F2A1F"/><rect x="396.24" y="168.24" width="11.52" height="11.52" rx="0.48" fill="#1F2A1F"/><rect x="72.24" y="180.24" width="11.52" height="11.52" rx="0.48" fill="#1F2A1F"/><rect x="84.24" y="180.24" width="11.52" height="11.52" rx="0.48" fill="#1F2A1F"/><rect x="108.24" y="180.24" width="11.52" height="11.52" rx="0.48" fill="#1F2A1F"/><rect x="132.24" y="180.24" width="11.52" height="11.52" rx="0.48" fill="#1F2A1F"/><rect x="144.24" y="180.24" width="11.52" height="11.52" rx="0.48" fill="#1F2A1F"/><rect x="168.24" y="180.24" width="11.52" height="11.52" rx="0.48" fill="#1F2A1F"/><rect x="192.24" y="180.24" width="11.52" height="11.52" rx="0.48" fill="#1F2A1F"/><rect x="228.24" y="180.24" width="11.52" height="11.52" rx="0.48" fill="#1F2A1F"/><rect x="300.24" y="180.24" width="11.52" height="11.52" rx="0.48" fill="#1F2A1F"/><rect x="312.24" y="180.24" width="11.52" height="11.52" rx="0.48" fill="#1F2A1F"/><rect x="336.24" y="180.24" width="11.52" height="11.52" rx="0.48" fill="#1F2A1F"/><rect x="360.24" y="180.24" width="11.52" height="11.52" rx="0.48" fill="#1F2A1F"/><rect x="384.24" y="180.24" width="11.52" height="11.52" rx="0.48" fill="#1F2A1F"/><rect x="396.24" y="180.24" width="11.52" height="11.52" rx="0.48" fill="#1F2A1F"/><rect x="420.24" y="180.24" width="11.52" height="11.52" rx="0.48" fill="#1F2A1F"/><rect x="60.24" y="192.24" width="11.52" height="11.52" rx="0.48" fill="#1F2A1F"/><rect x="72.24" y="192.24" width="11.52" height="11.52" rx="0.48" fill="#1F2A1F"/><rect x="84.24" y="192.24" width="11.52" height="11.52" rx="0.48" fill="#1F2A1F"/><rect x="96.24" y="192.24" width="11.52" height="11.52" rx="0.48" fill="#1F2A1F"/><rect x="120.24" y="192.24" width="11.52" height="11.52" rx="0.48" fill="#1F2A1F"/><rect x="156.24" y="192.24" width="11.52" height="11.52" rx="0.48" fill="#1F2A1F"/><rect x="180.24" y="192.24" width="11.52" height="11.52" rx="0.48" fill="#1F2A1F"/><rect x="192.24" y="192.24" width="11.52" height="11.52" rx="0.48" fill="#1F2A1F"/><rect x="216.24" y="192.24" width="11.52" height="11.52" rx="0.48" fill="#1F2A1F"/><rect x="240.24" y="192.24" width="11.52" height="11.52" rx="0.48" fill="#1F2A1F"/><rect x="288.24" y="192.24" width="11.52" height="11.52" rx="0.48" fill="#1F2A1F"/><rect x="312.24" y="192.24" width="11.52" height="11.52" rx="0.48" fill="#1F2A1F"/><rect x="324.24" y="192.24" width="11.52" height="11.52" rx="0.48" fill="#1F2A1F"/><rect x="348.24" y="192.24" width="11.52" height="11.52" rx="0.48" fill="#1F2A1F"/><rect x="360.24" y="192.24" width="11.52" height="11.52" rx="0.48" fill="#1F2A1F"/><rect x="384.24" y="192.24" width="11.52" height="11.52" rx="0.48" fill="#1F2A1F"/><rect x="396.24" y="192.24" width="11.52" height="11.52" rx="0.48" fill="#1F2A1F"/><rect x="408.24" y="192.24" width="11.52" height="11.52" rx="0.48" fill="#1F2A1F"/><rect x="432.24" y="192.24" width="11.52" height="11.52" rx="0.48" fill="#1F2A1F"/><rect x="48.24" y="204.24" width="11.52" height="11.52" rx="0.48" fill="#1F2A1F"/><rect x="60.24" y="204.24" width="11.52" height="11.52" rx="0.48" fill="#1F2A1F"/><rect x="72.24" y="204.24" width="11.52" height="11.52" rx="0.48" fill="#1F2A1F"/><rect x="132.24" y="204.24" width="11.52" height="11.52" rx="0.48" fill="#1F2A1F"/><rect x="144.24" y="204.24" width="11.52" height="11.52" rx="0.48" fill="#1F2A1F"/><rect x="156.24" y="204.24" width="11.52" height="11.52" rx="0.48" fill="#1F2A1F"/><rect x="168.24" y="204.24" width="11.52" height="11.52" rx="0.48" fill="#1F2A1F"/><rect x="180.24" y="204.24" width="11.52" height="11.52" rx="0.48" fill="#1F2A1F"/><rect x="240.24" y="204.24" width="11.52" height="11.52" rx="0.48" fill="#1F2A1F"/><rect x="252.24" y="204.24" width="11.52" height="11.52" rx="0.48" fill="#1F2A1F"/><rect x="264.24" y="204.24" width="11.52" height="11.52" rx="0.48" fill="#1F2A1F"/><rect x="288.24" y="204.24" width="11.52" height="11.52" rx="0.48" fill="#1F2A1F"/><rect x="300.24" y="204.24" width="11.52" height="11.52" rx="0.48" fill="#1F2A1F"/><rect x="312.24" y="204.24" width="11.52" height="11.52" rx="0.48" fill="#1F2A1F"/><rect x="348.24" y="204.24" width="11.52" height="11.52" rx="0.48" fill="#1F2A1F"/><rect x="384.24" y="204.24" width="11.52" height="11.52" rx="0.48" fill="#1F2A1F"/><rect x="408.24" y="204.24" width="11.52" height="11.52" rx="0.48" fill="#1F2A1F"/><rect x="48.24" y="216.24" width="11.52" height="11.52" rx="0.48" fill="#1F2A1F"/><rect x="60.24" y="216.24" width="11.52" height="11.52" rx="0.48" fill="#1F2A1F"/><rect x="84.24" y="216.24" width="11.52" height="11.52" rx="0.48" fill="#1F2A1F"/><rect x="96.24" y="216.24" width="11.52" height="11.52" rx="0.48" fill="#1F2A1F"/><rect x="120.24" y="216.24" width="11.52" height="11.52" rx="0.48" fill="#1F2A1F"/><rect x="144.24" y="216.24" width="11.52" height="11.52" rx="0.48" fill="#1F2A1F"/><rect x="156.24" y="216.24" width="11.52" height="11.52" rx="0.48" fill="#1F2A1F"/><rect x="264.24" y="216.24" width="11.52" height="11.52" rx="0.48" fill="#1F2A1F"/><rect x="288.24" y="216.24" width="11.52" height="11.52" rx="0.48" fill="#1F2A1F"/><rect x="312.24" y="216.24" width="11.52" height="11.52" rx="0.48" fill="#1F2A1F"/><rect x="324.24" y="216.24" width="11.52" height="11.52" rx="0.48" fill="#1F2A1F"/><rect x="336.24" y="216.24" width="11.52" height="11.52" rx="0.48" fill="#1F2A1F"/><rect x="348.24" y="216.24" width="11.52" height="11.52" rx="0.48" fill="#1F2A1F"/><rect x="408.24" y="216.24" width="11.52" height="11.52" rx="0.48" fill="#1F2A1F"/><rect x="420.24" y="216.24" width="11.52" height="11.52" rx="0.48" fill="#1F2A1F"/><rect x="60.24" y="228.24" width="11.52" height="11.52" rx="0.48" fill="#1F2A1F"/><rect x="72.24" y="228.24" width="11.52" height="11.52" rx="0.48" fill="#1F2A1F"/><rect x="108.24" y="228.24" width="11.52" height="11.52" rx="0.48" fill="#1F2A1F"/><rect x="132.24" y="228.24" width="11.52" height="11.52" rx="0.48" fill="#1F2A1F"/><rect x="168.24" y="228.24" width="11.52" height="11.52" rx="0.48" fill="#1F2A1F"/><rect x="180.24" y="228.24" width="11.52" height="11.52" rx="0.48" fill="#1F2A1F"/><rect x="276.24" y="228.24" width="11.52" height="11.52" rx="0.48" fill="#1F2A1F"/><rect x="300.24" y="228.24" width="11.52" height="11.52" rx="0.48" fill="#1F2A1F"/><rect x="312.24" y="228.24" width="11.52" height="11.52" rx="0.48" fill="#1F2A1F"/><rect x="324.24" y="228.24" width="11.52" height="11.52" rx="0.48" fill="#1F2A1F"/><rect x="336.24" y="228.24" width="11.52" height="11.52" rx="0.48" fill="#1F2A1F"/><rect x="372.24" y="228.24" width="11.52" height="11.52" rx="0.48" fill="#1F2A1F"/><rect x="384.24" y="228.24" width="11.52" height="11.52" rx="0.48" fill="#1F2A1F"/><rect x="408.24" y="228.24" width="11.52" height="11.52" rx="0.48" fill="#1F2A1F"/><rect x="48.24" y="240.24" width="11.52" height="11.52" rx="0.48" fill="#1F2A1F"/><rect x="60.24" y="240.24" width="11.52" height="11.52" rx="0.48" fill="#1F2A1F"/><rect x="84.24" y="240.24" width="11.52" height="11.52" rx="0.48" fill="#1F2A1F"/><rect x="120.24" y="240.24" width="11.52" height="11.52" rx="0.48" fill="#1F2A1F"/><rect x="156.24" y="240.24" width="11.52" height="11.52" rx="0.48" fill="#1F2A1F"/><rect x="204.24" y="240.24" width="11.52" height="11.52" rx="0.48" fill="#1F2A1F"/><rect x="288.24" y="240.24" width="11.52" height="11.52" rx="0.48" fill="#1F2A1F"/><rect x="324.24" y="240.24" width="11.52" height="11.52" rx="0.48" fill="#1F2A1F"/><rect x="336.24" y="240.24" width="11.52" height="11.52" rx="0.48" fill="#1F2A1F"/><rect x="348.24" y="240.24" width="11.52" height="11.52" rx="0.48" fill="#1F2A1F"/><rect x="372.24" y="240.24" width="11.52" height="11.52" rx="0.48" fill="#1F2A1F"/><rect x="384.24" y="240.24" width="11.52" height="11.52" rx="0.48" fill="#1F2A1F"/><rect x="396.24" y="240.24" width="11.52" height="11.52" rx="0.48" fill="#1F2A1F"/><rect x="408.24" y="240.24" width="11.52" height="11.52" rx="0.48" fill="#1F2A1F"/><rect x="60.24" y="252.24" width="11.52" height="11.52" rx="0.48" fill="#1F2A1F"/><rect x="96.24" y="252.24" width="11.52" height="11.52" rx="0.48" fill="#1F2A1F"/><rect x="132.24" y="252.24" width="11.52" height="11.52" rx="0.48" fill="#1F2A1F"/><rect x="144.24" y="252.24" width="11.52" height="11.52" rx="0.48" fill="#1F2A1F"/><rect x="156.24" y="252.24" width="11.52" height="11.52" rx="0.48" fill="#1F2A1F"/><rect x="180.24" y="252.24" width="11.52" height="11.52" rx="0.48" fill="#1F2A1F"/><rect x="204.24" y="252.24" width="11.52" height="11.52" rx="0.48" fill="#1F2A1F"/><rect x="300.24" y="252.24" width="11.52" height="11.52" rx="0.48" fill="#1F2A1F"/><rect x="312.24" y="252.24" width="11.52" height="11.52" rx="0.48" fill="#1F2A1F"/><rect x="336.24" y="252.24" width="11.52" height="11.52" rx="0.48" fill="#1F2A1F"/><rect x="348.24" y="252.24" width="11.52" height="11.52" rx="0.48" fill="#1F2A1F"/><rect x="360.24" y="252.24" width="11.52" height="11.52" rx="0.48" fill="#1F2A1F"/><rect x="384.24" y="252.24" width="11.52" height="11.52" rx="0.48" fill="#1F2A1F"/><rect x="420.24" y="252.24" width="11.52" height="11.52" rx="0.48" fill="#1F2A1F"/><rect x="432.24" y="252.24" width="11.52" height="11.52" rx="0.48" fill="#1F2A1F"/><rect x="48.24" y="264.24" width="11.52" height="11.52" rx="0.48" fill="#1F2A1F"/><rect x="72.24" y="264.24" width="11.52" height="11.52" rx="0.48" fill="#1F2A1F"/><rect x="84.24" y="264.24" width="11.52" height="11.52" rx="0.48" fill="#1F2A1F"/><rect x="96.24" y="264.24" width="11.52" height="11.52" rx="0.48" fill="#1F2A1F"/><rect x="108.24" y="264.24" width="11.52" height="11.52" rx="0.48" fill="#1F2A1F"/><rect x="120.24" y="264.24" width="11.52" height="11.52" rx="0.48" fill="#1F2A1F"/><rect x="132.24" y="264.24" width="11.52" height="11.52" rx="0.48" fill="#1F2A1F"/><rect x="144.24" y="264.24" width="11.52" height="11.52" rx="0.48" fill="#1F2A1F"/><rect x="156.24" y="264.24" width="11.52" height="11.52" rx="0.48" fill="#1F2A1F"/><rect x="168.24" y="264.24" width="11.52" height="11.52" rx="0.48" fill="#1F2A1F"/><rect x="264.24" y="264.24" width="11.52" height="11.52" rx="0.48" fill="#1F2A1F"/><rect x="276.24" y="264.24" width="11.52" height="11.52" rx="0.48" fill="#1F2A1F"/><rect x="288.24" y="264.24" width="11.52" height="11.52" rx="0.48" fill="#1F2A1F"/><rect x="300.24" y="264.24" width="11.52" height="11.52" rx="0.48" fill="#1F2A1F"/><rect x="336.24" y="264.24" width="11.52" height="11.52" rx="0.48" fill="#1F2A1F"/><rect x="348.24" y="264.24" width="11.52" height="11.52" rx="0.48" fill="#1F2A1F"/><rect x="384.24" y="264.24" width="11.52" height="11.52" rx="0.48" fill="#1F2A1F"/><rect x="408.24" y="264.24" width="11.52" height="11.52" rx="0.48" fill="#1F2A1F"/><rect x="420.24" y="264.24" width="11.52" height="11.52" rx="0.48" fill="#1F2A1F"/><rect x="48.24" y="276.24" width="11.52" height="11.52" rx="0.48" fill="#1F2A1F"/><rect x="72.24" y="276.24" width="11.52" height="11.52" rx="0.48" fill="#1F2A1F"/><rect x="132.24" y="276.24" width="11.52" height="11.52" rx="0.48" fill="#1F2A1F"/><rect x="156.24" y="276.24" width="11.52" height="11.52" rx="0.48" fill="#1F2A1F"/><rect x="216.24" y="276.24" width="11.52" height="11.52" rx="0.48" fill="#1F2A1F"/><rect x="288.24" y="276.24" width="11.52" height="11.52" rx="0.48" fill="#1F2A1F"/><rect x="312.24" y="276.24" width="11.52" height="11.52" rx="0.48" fill="#1F2A1F"/><rect x="336.24" y="276.24" width="11.52" height="11.52" rx="0.48" fill="#1F2A1F"/><rect x="348.24" y="276.24" width="11.52" height="11.52" rx="0.48" fill="#1F2A1F"/><rect x="360.24" y="276.24" width="11.52" height="11.52" rx="0.48" fill="#1F2A1F"/><rect x="372.24" y="276.24" width="11.52" height="11.52" rx="0.48" fill="#1F2A1F"/><rect x="396.24" y="276.24" width="11.52" height="11.52" rx="0.48" fill="#1F2A1F"/><rect x="420.24" y="276.24" width="11.52" height="11.52" rx="0.48" fill="#1F2A1F"/><rect x="48.24" y="288.24" width="11.52" height="11.52" rx="0.48" fill="#1F2A1F"/><rect x="60.24" y="288.24" width="11.52" height="11.52" rx="0.48" fill="#1F2A1F"/><rect x="72.24" y="288.24" width="11.52" height="11.52" rx="0.48" fill="#1F2A1F"/><rect x="120.24" y="288.24" width="11.52" height="11.52" rx="0.48" fill="#1F2A1F"/><rect x="156.24" y="288.24" width="11.52" height="11.52" rx="0.48" fill="#1F2A1F"/><rect x="168.24" y="288.24" width="11.52" height="11.52" rx="0.48" fill="#1F2A1F"/><rect x="192.24" y="288.24" width="11.52" height="11.52" rx="0.48" fill="#1F2A1F"/><rect x="204.24" y="288.24" width="11.52" height="11.52" rx="0.48" fill="#1F2A1F"/><rect x="216.24" y="288.24" width="11.52" height="11.52" rx="0.48" fill="#1F2A1F"/><rect x="252.24" y="288.24" width="11.52" height="11.52" rx="0.48" fill="#1F2A1F"/><rect x="264.24" y="288.24" width="11.52" height="11.52" rx="0.48" fill="#1F2A1F"/><rect x="276.24" y="288.24" width="11.52" height="11.52" rx="0.48" fill="#1F2A1F"/><rect x="300.24" y="288.24" width="11.52" height="11.52" rx="0.48" fill="#1F2A1F"/><rect x="312.24" y="288.24" width="11.52" height="11.52" rx="0.48" fill="#1F2A1F"/><rect x="324.24" y="288.24" width="11.52" height="11.52" rx="0.48" fill="#1F2A1F"/><rect x="360.24" y="288.24" width="11.52" height="11.52" rx="0.48" fill="#1F2A1F"/><rect x="372.24" y="288.24" width="11.52" height="11.52" rx="0.48" fill="#1F2A1F"/><rect x="384.24" y="288.24" width="11.52" height="11.52" rx="0.48" fill="#1F2A1F"/><rect x="408.24" y="288.24" width="11.52" height="11.52" rx="0.48" fill="#1F2A1F"/><rect x="96.24" y="300.24" width="11.52" height="11.52" rx="0.48" fill="#1F2A1F"/><rect x="144.24" y="300.24" width="11.52" height="11.52" rx="0.48" fill="#1F2A1F"/><rect x="156.24" y="300.24" width="11.52" height="11.52" rx="0.48" fill="#1F2A1F"/><rect x="168.24" y="300.24" width="11.52" height="11.52" rx="0.48" fill="#1F2A1F"/><rect x="216.24" y="300.24" width="11.52" height="11.52" rx="0.48" fill="#1F2A1F"/><rect x="228.24" y="300.24" width="11.52" height="11.52" rx="0.48" fill="#1F2A1F"/><rect x="240.24" y="300.24" width="11.52" height="11.52" rx="0.48" fill="#1F2A1F"/><rect x="252.24" y="300.24" width="11.52" height="11.52" rx="0.48" fill="#1F2A1F"/><rect x="264.24" y="300.24" width="11.52" height="11.52" rx="0.48" fill="#1F2A1F"/><rect x="288.24" y="300.24" width="11.52" height="11.52" rx="0.48" fill="#1F2A1F"/><rect x="300.24" y="300.24" width="11.52" height="11.52" rx="0.48" fill="#1F2A1F"/><rect x="372.24" y="300.24" width="11.52" height="11.52" rx="0.48" fill="#1F2A1F"/><rect x="384.24" y="300.24" width="11.52" height="11.52" rx="0.48" fill="#1F2A1F"/><rect x="432.24" y="300.24" width="11.52" height="11.52" rx="0.48" fill="#1F2A1F"/><rect x="84.24" y="312.24" width="11.52" height="11.52" rx="0.48" fill="#1F2A1F"/><rect x="96.24" y="312.24" width="11.52" height="11.52" rx="0.48" fill="#1F2A1F"/><rect x="120.24" y="312.24" width="11.52" height="11.52" rx="0.48" fill="#1F2A1F"/><rect x="132.24" y="312.24" width="11.52" height="11.52" rx="0.48" fill="#1F2A1F"/><rect x="192.24" y="312.24" width="11.52" height="11.52" rx="0.48" fill="#1F2A1F"/><rect x="216.24" y="312.24" width="11.52" height="11.52" rx="0.48" fill="#1F2A1F"/><rect x="240.24" y="312.24" width="11.52" height="11.52" rx="0.48" fill="#1F2A1F"/><rect x="252.24" y="312.24" width="11.52" height="11.52" rx="0.48" fill="#1F2A1F"/><rect x="276.24" y="312.24" width="11.52" height="11.52" rx="0.48" fill="#1F2A1F"/><rect x="300.24" y="312.24" width="11.52" height="11.52" rx="0.48" fill="#1F2A1F"/><rect x="312.24" y="312.24" width="11.52" height="11.52" rx="0.48" fill="#1F2A1F"/><rect x="336.24" y="312.24" width="11.52" height="11.52" rx="0.48" fill="#1F2A1F"/><rect x="348.24" y="312.24" width="11.52" height="11.52" rx="0.48" fill="#1F2A1F"/><rect x="396.24" y="312.24" width="11.52" height="11.52" rx="0.48" fill="#1F2A1F"/><rect x="48.24" y="324.24" width="11.52" height="11.52" rx="0.48" fill="#1F2A1F"/><rect x="60.24" y="324.24" width="11.52" height="11.52" rx="0.48" fill="#1F2A1F"/><rect x="156.24" y="324.24" width="11.52" height="11.52" rx="0.48" fill="#1F2A1F"/><rect x="168.24" y="324.24" width="11.52" height="11.52" rx="0.48" fill="#1F2A1F"/><rect x="180.24" y="324.24" width="11.52" height="11.52" rx="0.48" fill="#1F2A1F"/><rect x="192.24" y="324.24" width="11.52" height="11.52" rx="0.48" fill="#1F2A1F"/><rect x="252.24" y="324.24" width="11.52" height="11.52" rx="0.48" fill="#1F2A1F"/><rect x="276.24" y="324.24" width="11.52" height="11.52" rx="0.48" fill="#1F2A1F"/><rect x="300.24" y="324.24" width="11.52" height="11.52" rx="0.48" fill="#1F2A1F"/><rect x="312.24" y="324.24" width="11.52" height="11.52" rx="0.48" fill="#1F2A1F"/><rect x="336.24" y="324.24" width="11.52" height="11.52" rx="0.48" fill="#1F2A1F"/><rect x="348.24" y="324.24" width="11.52" height="11.52" rx="0.48" fill="#1F2A1F"/><rect x="360.24" y="324.24" width="11.52" height="11.52" rx="0.48" fill="#1F2A1F"/><rect x="372.24" y="324.24" width="11.52" height="11.52" rx="0.48" fill="#1F2A1F"/><rect x="384.24" y="324.24" width="11.52" height="11.52" rx="0.48" fill="#1F2A1F"/><rect x="432.24" y="324.24" width="11.52" height="11.52" rx="0.48" fill="#1F2A1F"/><rect x="60.24" y="336.24" width="11.52" height="11.52" rx="0.48" fill="#1F2A1F"/><rect x="72.24" y="336.24" width="11.52" height="11.52" rx="0.48" fill="#1F2A1F"/><rect x="84.24" y="336.24" width="11.52" height="11.52" rx="0.48" fill="#1F2A1F"/><rect x="96.24" y="336.24" width="11.52" height="11.52" rx="0.48" fill="#1F2A1F"/><rect x="120.24" y="336.24" width="11.52" height="11.52" rx="0.48" fill="#1F2A1F"/><rect x="132.24" y="336.24" width="11.52" height="11.52" rx="0.48" fill="#1F2A1F"/><rect x="144.24" y="336.24" width="11.52" height="11.52" rx="0.48" fill="#1F2A1F"/><rect x="180.24" y="336.24" width="11.52" height="11.52" rx="0.48" fill="#1F2A1F"/><rect x="204.24" y="336.24" width="11.52" height="11.52" rx="0.48" fill="#1F2A1F"/><rect x="216.24" y="336.24" width="11.52" height="11.52" rx="0.48" fill="#1F2A1F"/><rect x="252.24" y="336.24" width="11.52" height="11.52" rx="0.48" fill="#1F2A1F"/><rect x="276.24" y="336.24" width="11.52" height="11.52" rx="0.48" fill="#1F2A1F"/><rect x="300.24" y="336.24" width="11.52" height="11.52" rx="0.48" fill="#1F2A1F"/><rect x="312.24" y="336.24" width="11.52" height="11.52" rx="0.48" fill="#1F2A1F"/><rect x="420.24" y="336.24" width="11.52" height="11.52" rx="0.48" fill="#1F2A1F"/><rect x="168.24" y="348.24" width="11.52" height="11.52" rx="0.48" fill="#1F2A1F"/><rect x="192.24" y="348.24" width="11.52" height="11.52" rx="0.48" fill="#1F2A1F"/><rect x="228.24" y="348.24" width="11.52" height="11.52" rx="0.48" fill="#1F2A1F"/><rect x="240.24" y="348.24" width="11.52" height="11.52" rx="0.48" fill="#1F2A1F"/><rect x="276.24" y="348.24" width="11.52" height="11.52" rx="0.48" fill="#1F2A1F"/><rect x="312.24" y="348.24" width="11.52" height="11.52" rx="0.48" fill="#1F2A1F"/><rect x="324.24" y="348.24" width="11.52" height="11.52" rx="0.48" fill="#1F2A1F"/><rect x="420.24" y="348.24" width="11.52" height="11.52" rx="0.48" fill="#1F2A1F"/><rect x="432.24" y="348.24" width="11.52" height="11.52" rx="0.48" fill="#1F2A1F"/><rect x="156.24" y="360.24" width="11.52" height="11.52" rx="0.48" fill="#1F2A1F"/><rect x="216.24" y="360.24" width="11.52" height="11.52" rx="0.48" fill="#1F2A1F"/><rect x="228.24" y="360.24" width="11.52" height="11.52" rx="0.48" fill="#1F2A1F"/><rect x="240.24" y="360.24" width="11.52" height="11.52" rx="0.48" fill="#1F2A1F"/><rect x="252.24" y="360.24" width="11.52" height="11.52" rx="0.48" fill="#1F2A1F"/><rect x="264.24" y="360.24" width="11.52" height="11.52" rx="0.48" fill="#1F2A1F"/><rect x="276.24" y="360.24" width="11.52" height="11.52" rx="0.48" fill="#1F2A1F"/><rect x="300.24" y="360.24" width="11.52" height="11.52" rx="0.48" fill="#1F2A1F"/><rect x="312.24" y="360.24" width="11.52" height="11.52" rx="0.48" fill="#1F2A1F"/><rect x="408.24" y="360.24" width="11.52" height="11.52" rx="0.48" fill="#1F2A1F"/><rect x="156.24" y="372.24" width="11.52" height="11.52" rx="0.48" fill="#1F2A1F"/><rect x="168.24" y="372.24" width="11.52" height="11.52" rx="0.48" fill="#1F2A1F"/><rect x="180.24" y="372.24" width="11.52" height="11.52" rx="0.48" fill="#1F2A1F"/><rect x="192.24" y="372.24" width="11.52" height="11.52" rx="0.48" fill="#1F2A1F"/><rect x="204.24" y="372.24" width="11.52" height="11.52" rx="0.48" fill="#1F2A1F"/><rect x="216.24" y="372.24" width="11.52" height="11.52" rx="0.48" fill="#1F2A1F"/><rect x="228.24" y="372.24" width="11.52" height="11.52" rx="0.48" fill="#1F2A1F"/><rect x="264.24" y="372.24" width="11.52" height="11.52" rx="0.48" fill="#1F2A1F"/><rect x="324.24" y="372.24" width="11.52" height="11.52" rx="0.48" fill="#1F2A1F"/><rect x="396.24" y="372.24" width="11.52" height="11.52" rx="0.48" fill="#1F2A1F"/><rect x="408.24" y="372.24" width="11.52" height="11.52" rx="0.48" fill="#1F2A1F"/><rect x="420.24" y="372.24" width="11.52" height="11.52" rx="0.48" fill="#1F2A1F"/><rect x="168.24" y="384.24" width="11.52" height="11.52" rx="0.48" fill="#1F2A1F"/><rect x="192.24" y="384.24" width="11.52" height="11.52" rx="0.48" fill="#1F2A1F"/><rect x="216.24" y="384.24" width="11.52" height="11.52" rx="0.48" fill="#1F2A1F"/><rect x="240.24" y="384.24" width="11.52" height="11.52" rx="0.48" fill="#1F2A1F"/><rect x="252.24" y="384.24" width="11.52" height="11.52" rx="0.48" fill="#1F2A1F"/><rect x="264.24" y="384.24" width="11.52" height="11.52" rx="0.48" fill="#1F2A1F"/><rect x="276.24" y="384.24" width="11.52" height="11.52" rx="0.48" fill="#1F2A1F"/><rect x="312.24" y="384.24" width="11.52" height="11.52" rx="0.48" fill="#1F2A1F"/><rect x="324.24" y="384.24" width="11.52" height="11.52" rx="0.48" fill="#1F2A1F"/><rect x="420.24" y="384.24" width="11.52" height="11.52" rx="0.48" fill="#1F2A1F"/><rect x="432.24" y="384.24" width="11.52" height="11.52" rx="0.48" fill="#1F2A1F"/><rect x="156.24" y="396.24" width="11.52" height="11.52" rx="0.48" fill="#1F2A1F"/><rect x="168.24" y="396.24" width="11.52" height="11.52" rx="0.48" fill="#1F2A1F"/><rect x="180.24" y="396.24" width="11.52" height="11.52" rx="0.48" fill="#1F2A1F"/><rect x="192.24" y="396.24" width="11.52" height="11.52" rx="0.48" fill="#1F2A1F"/><rect x="216.24" y="396.24" width="11.52" height="11.52" rx="0.48" fill="#1F2A1F"/><rect x="228.24" y="396.24" width="11.52" height="11.52" rx="0.48" fill="#1F2A1F"/><rect x="240.24" y="396.24" width="11.52" height="11.52" rx="0.48" fill="#1F2A1F"/><rect x="252.24" y="396.24" width="11.52" height="11.52" rx="0.48" fill="#1F2A1F"/><rect x="288.24" y="396.24" width="11.52" height="11.52" rx="0.48" fill="#1F2A1F"/><rect x="300.24" y="396.24" width="11.52" height="11.52" rx="0.48" fill="#1F2A1F"/><rect x="348.24" y="396.24" width="11.52" height="11.52" rx="0.48" fill="#1F2A1F"/><rect x="372.24" y="396.24" width="11.52" height="11.52" rx="0.48" fill="#1F2A1F"/><rect x="396.24" y="396.24" width="11.52" height="11.52" rx="0.48" fill="#1F2A1F"/><rect x="408.24" y="396.24" width="11.52" height="11.52" rx="0.48" fill="#1F2A1F"/><rect x="144.24" y="408.24" width="11.52" height="11.52" rx="0.48" fill="#1F2A1F"/><rect x="156.24" y="408.24" width="11.52" height="11.52" rx="0.48" fill="#1F2A1F"/><rect x="204.24" y="408.24" width="11.52" height="11.52" rx="0.48" fill="#1F2A1F"/><rect x="216.24" y="408.24" width="11.52" height="11.52" rx="0.48" fill="#1F2A1F"/><rect x="228.24" y="408.24" width="11.52" height="11.52" rx="0.48" fill="#1F2A1F"/><rect x="240.24" y="408.24" width="11.52" height="11.52" rx="0.48" fill="#1F2A1F"/><rect x="264.24" y="408.24" width="11.52" height="11.52" rx="0.48" fill="#1F2A1F"/><rect x="288.24" y="408.24" width="11.52" height="11.52" rx="0.48" fill="#1F2A1F"/><rect x="372.24" y="408.24" width="11.52" height="11.52" rx="0.48" fill="#1F2A1F"/><rect x="384.24" y="408.24" width="11.52" height="11.52" rx="0.48" fill="#1F2A1F"/><rect x="396.24" y="408.24" width="11.52" height="11.52" rx="0.48" fill="#1F2A1F"/><rect x="432.24" y="408.24" width="11.52" height="11.52" rx="0.48" fill="#1F2A1F"/><rect x="144.24" y="420.24" width="11.52" height="11.52" rx="0.48" fill="#1F2A1F"/><rect x="168.24" y="420.24" width="11.52" height="11.52" rx="0.48" fill="#1F2A1F"/><rect x="204.24" y="420.24" width="11.52" height="11.52" rx="0.48" fill="#1F2A1F"/><rect x="252.24" y="420.24" width="11.52" height="11.52" rx="0.48" fill="#1F2A1F"/><rect x="264.24" y="420.24" width="11.52" height="11.52" rx="0.48" fill="#1F2A1F"/><rect x="312.24" y="420.24" width="11.52" height="11.52" rx="0.48" fill="#1F2A1F"/><rect x="360.24" y="420.24" width="11.52" height="11.52" rx="0.48" fill="#1F2A1F"/><rect x="384.24" y="420.24" width="11.52" height="11.52" rx="0.48" fill="#1F2A1F"/><rect x="396.24" y="420.24" width="11.52" height="11.52" rx="0.48" fill="#1F2A1F"/><rect x="156.24" y="432.24" width="11.52" height="11.52" rx="0.48" fill="#1F2A1F"/><rect x="168.24" y="432.24" width="11.52" height="11.52" rx="0.48" fill="#1F2A1F"/><rect x="180.24" y="432.24" width="11.52" height="11.52" rx="0.48" fill="#1F2A1F"/><rect x="252.24" y="432.24" width="11.52" height="11.52" rx="0.48" fill="#1F2A1F"/><rect x="288.24" y="432.24" width="11.52" height="11.52" rx="0.48" fill="#1F2A1F"/><rect x="300.24" y="432.24" width="11.52" height="11.52" rx="0.48" fill="#1F2A1F"/><rect x="312.24" y="432.24" width="11.52" height="11.52" rx="0.48" fill="#1F2A1F"/><rect x="336.24" y="432.24" width="11.52" height="11.52" rx="0.48" fill="#1F2A1F"/><rect x="372.24" y="432.24" width="11.52" height="11.52" rx="0.48" fill="#1F2A1F"/><rect x="396.24" y="432.24" width="11.52" height="11.52" rx="0.48" fill="#1F2A1F"/><rect x="420.24" y="432.24" width="11.52" height="11.52" rx="0.48" fill="#1F2A1F"/><rect x="48" y="48" width="84" height="84" rx="18" fill="#1F2A1F"/><rect x="60" y="60" width="60" height="60" rx="13.2" fill="#FFFAF2"/><rect x="72" y="72" width="36" height="36" rx="8.64" fill="#1F2A1F"/><rect x="360" y="48" width="84" height="84" rx="18" fill="#1F2A1F"/><rect x="372" y="60" width="60" height="60" rx="13.2" fill="#FFFAF2"/><rect x="384" y="72" width="36" height="36" rx="8.64" fill="#1F2A1F"/><rect x="48" y="360" width="84" height="84" rx="18" fill="#1F2A1F"/><rect x="60" y="372" width="60" height="60" rx="13.2" fill="#FFFAF2"/><rect x="72" y="384" width="36" height="36" rx="8.64" fill="#1F2A1F"/><rect x="336" y="336" width="60" height="60" rx="12.6" fill="#1F2A1F"/><rect x="348" y="348" width="36" height="36" rx="8.16" fill="#FFFAF2"/><rect x="360" y="360" width="12" height="12" rx="2.88" fill="#1F2A1F"/><g transform="translate(246 246) scale(0.29) translate(-99 -99)"><circle cx="99.00" cy="99.00" r="13.1" fill="#36543b" />
  <circle cx="111.58" cy="81.69" r="13.1" fill="#dbe8d0" />
  <circle cx="119.35" cy="105.61" r="13.1" fill="#dbe8d0" />
  <circle cx="99.00" cy="120.40" r="13.1" fill="#dbe8d0" />
  <circle cx="78.65" cy="105.61" r="13.1" fill="#dbe8d0" />
  <circle cx="86.42" cy="81.69" r="13.1" fill="#dbe8d0" />
  <circle cx="99.00" cy="64.00" r="13.1" fill="#dbe8d0" />
  <circle cx="115.64" cy="76.09" r="13.1" fill="#dbe8d0" />
  <circle cx="132.29" cy="88.18" r="13.1" fill="#dbe8d0" />
  <circle cx="125.93" cy="107.75" r="13.1" fill="#dbe8d0" />
  <circle cx="119.57" cy="127.32" r="13.1" fill="#dbe8d0" />
  <circle cx="99.00" cy="127.32" r="13.1" fill="#dbe8d0" />
  <circle cx="78.43" cy="127.32" r="13.1" fill="#dbe8d0" />
  <circle cx="72.07" cy="107.75" r="13.1" fill="#dbe8d0" />
  <circle cx="65.71" cy="88.18" r="13.1" fill="#dbe8d0" />
  <circle cx="82.36" cy="76.09" r="13.1" fill="#dbe8d0" />
  <circle cx="70.43" cy="59.68" r="13.8" fill="#6c8a53" />
  <circle cx="89.48" cy="59.68" r="13.8" fill="#6c8a53" />
  <circle cx="108.52" cy="59.68" r="13.8" fill="#6c8a53" />
  <circle cx="127.57" cy="59.68" r="13.8" fill="#6c8a53" />
  <circle cx="133.45" cy="77.79" r="13.8" fill="#6c8a53" />
  <circle cx="139.34" cy="95.91" r="13.8" fill="#6c8a53" />
  <circle cx="145.22" cy="114.02" r="13.8" fill="#6c8a53" />
  <circle cx="129.81" cy="125.21" r="13.8" fill="#6c8a53" />
  <circle cx="114.41" cy="136.41" r="13.8" fill="#6c8a53" />
  <circle cx="99.00" cy="147.60" r="13.8" fill="#6c8a53" />
  <circle cx="83.59" cy="136.41" r="13.8" fill="#6c8a53" />
  <circle cx="68.19" cy="125.21" r="13.8" fill="#6c8a53" />
  <circle cx="52.78" cy="114.02" r="13.8" fill="#6c8a53" />
  <circle cx="58.66" cy="95.91" r="13.8" fill="#6c8a53" />
  <circle cx="64.55" cy="77.79" r="13.8" fill="#6c8a53" />
  <circle cx="40.80" cy="80.09" r="12.2" fill="#36543b" />
  <circle cx="55.35" cy="69.52" r="12.2" fill="#36543b" />
  <circle cx="69.90" cy="58.94" r="12.2" fill="#36543b" />
  <circle cx="84.45" cy="48.37" r="12.2" fill="#36543b" />
  <circle cx="99.00" cy="37.80" r="12.2" fill="#36543b" />
  <circle cx="113.55" cy="48.37" r="12.2" fill="#36543b" />
  <circle cx="128.10" cy="58.94" r="12.2" fill="#36543b" />
  <circle cx="142.65" cy="69.52" r="12.2" fill="#36543b" />
  <circle cx="157.20" cy="80.09" r="12.2" fill="#36543b" />
  <circle cx="151.65" cy="97.19" r="12.2" fill="#36543b" />
  <circle cx="146.09" cy="114.30" r="12.2" fill="#36543b" />
  <circle cx="140.53" cy="131.41" r="12.2" fill="#36543b" />
  <circle cx="134.97" cy="148.51" r="12.2" fill="#36543b" />
  <circle cx="116.99" cy="148.51" r="12.2" fill="#36543b" />
  <circle cx="99.00" cy="148.51" r="12.2" fill="#36543b" />
  <circle cx="81.01" cy="148.51" r="12.2" fill="#36543b" />
  <circle cx="63.03" cy="148.51" r="12.2" fill="#36543b" />
  <circle cx="57.47" cy="131.41" r="12.2" fill="#36543b" />
  <circle cx="51.91" cy="114.30" r="12.2" fill="#36543b" />
  <circle cx="46.35" cy="97.19" r="12.2" fill="#36543b" /></g></svg>