<svg xmlns="http://www.w3.org/2000/svg" viewBox="48 48 444 444" role="img" aria-label="Seedbed QR code for The Number Garden"><defs><linearGradient id="seedbed-bg" x1="0%" y1="0%" x2="100%" y2="100%"><stop offset="0%" stop-color="#FDF8EF"/><stop offset="100%" stop-color="#FFFAF2"/></linearGradient></defs><rect width="540" height="540" rx="26.400000000000002" fill="none"/><circle cx="210" cy="54" r="3.6" fill="#36543B"/><circle cx="258" cy="54" r="3.6" fill="#36543B"/><circle cx="270" cy="54" r="3.6" fill="#36543B"/><circle cx="294" cy="54" r="3.6" fill="#6C8A53"/><circle cx="318" cy="54" r="3.6" fill="#36543B"/><circle cx="378" cy="54" r="3.6" fill="#36543B"/><circle cx="162" cy="66" r="3.6" fill="#6C8A53"/><circle cx="174" cy="66" r="3.6" fill="#36543B"/><circle cx="186" cy="66" r="3.6" fill="#36543B"/><circle cx="222" cy="66" r="3.6" fill="#6C8A53"/><circle cx="234" cy="66" r="3.6" fill="#36543B"/><circle cx="258" cy="66" r="3.6" fill="#36543B"/><circle cx="294" cy="66" r="3.6" fill="#36543B"/><circle cx="306" cy="66" r="3.6" fill="#36543B"/><circle cx="330" cy="66" r="3.6" fill="#36543B"/><circle cx="342" cy="66" r="3.6" fill="#6C8A53"/><circle cx="354" cy="66" r="3.6" fill="#36543B"/><circle cx="366" cy="66" r="3.6" fill="#36543B"/><rect x="146.4" y="74.4" width="7.2" height="7.2" rx="2.4" fill="#6C8A53"/><circle cx="186" cy="78" r="3.6" fill="#36543B"/><circle cx="198" cy="78" r="3.6" fill="#36543B"/><circle cx="210" cy="78" r="3.6" fill="#6C8A53"/><circle cx="270" cy="78" r="3.6" fill="#6C8A53"/><circle cx="354" cy="78" r="3.6" fill="#36543B"/><circle cx="366" cy="78" r="3.6" fill="#36543B"/><circle cx="378" cy="78" r="3.6" fill="#36543B"/><circle cx="390" cy="78" r="3.6" fill="#6C8A53"/><rect x="146.4" y="86.4" width="7.2" height="7.2" rx="2.4" fill="#36543B"/><circle cx="162" cy="90" r="3.6" fill="#36543B"/><circle cx="198" cy="90" r="3.6" fill="#6C8A53"/><circle cx="210" cy="90" r="3.6" fill="#36543B"/><circle cx="234" cy="90" r="3.6" fill="#36543B"/><circle cx="246" cy="90" r="3.6" fill="#36543B"/><circle cx="270" cy="90" r="3.6" fill="#36543B"/><circle cx="282" cy="90" r="3.6" fill="#36543B"/><circle cx="318" cy="90" r="3.6" fill="#6C8A53"/><circle cx="330" cy="90" r="3.6" fill="#36543B"/><circle cx="366" cy="90" r="3.6" fill="#36543B"/><circle cx="390" cy="90" r="3.6" fill="#36543B"/><circle cx="162" cy="102" r="3.6" fill="#36543B"/><circle cx="222" cy="102" r="3.6" fill="#36543B"/><circle cx="234" cy="102" r="3.6" fill="#36543B"/><circle cx="270" cy="102" r="3.6" fill="#36543B"/><circle cx="306" cy="102" r="3.6" fill="#6C8A53"/><circle cx="366" cy="102" r="3.6" fill="#6C8A53"/><circle cx="390" cy="102" r="3.6" fill="#36543B"/><circle cx="162" cy="114" r="3.6" fill="#36543B"/><circle cx="174" cy="114" r="3.6" fill="#6C8A53"/><circle cx="186" cy="114" r="3.6" fill="#36543B"/><circle cx="210" cy="114" r="3.6" fill="#36543B"/><circle cx="222" cy="114" r="3.6" fill="#36543B"/><circle cx="270" cy="114" r="3.6" fill="#36543B"/><circle cx="282" cy="114" r="3.6" fill="#36543B"/><circle cx="294" cy="114" r="3.6" fill="#6C8A53"/><circle cx="318" cy="114" r="3.6" fill="#36543B"/><circle cx="354" cy="114" r="3.6" fill="#6C8A53"/><circle cx="378" cy="114" r="3.6" fill="#36543B"/><circle cx="390" cy="114" r="3.6" fill="#36543B"/><rect x="146.4" y="122.4" width="7.2" height="7.2" rx="2.4" fill="#36543B"/><rect x="170.4" y="122.4" width="7.2" height="7.2" rx="2.4" fill="#36543B"/><rect x="194.4" y="122.4" width="7.2" height="7.2" rx="2.4" fill="#36543B"/><rect x="218.4" y="122.4" width="7.2" height="7.2" rx="2.4" fill="#6C8A53"/><rect x="242.4" y="122.4" width="7.2" height="7.2" rx="2.4" fill="#36543B"/><rect x="266.4" y="122.4" width="7.2" height="7.2" rx="2.4" fill="#36543B"/><rect x="290.4" y="122.4" width="7.2" height="7.2" rx="2.4" fill="#36543B"/><rect x="314.4" y="122.4" width="7.2" height="7.2" rx="2.4" fill="#36543B"/><rect x="338.4" y="122.4" width="7.2" height="7.2" rx="2.4" fill="#6C8A53"/><rect x="362.4" y="122.4" width="7.2" height="7.2" rx="2.4" fill="#36543B"/><rect x="386.4" y="122.4" width="7.2" height="7.2" rx="2.4" fill="#36543B"/><rect x="146.4" y="134.4" width="7.2" height="7.2" rx="2.4" fill="#6C8A53"/><circle cx="162" cy="138" r="3.6" fill="#36543B"/><circle cx="174" cy="138" r="3.6" fill="#36543B"/><circle cx="186" cy="138" r="3.6" fill="#36543B"/><circle cx="210" cy="138" r="3.6" fill="#6C8A53"/><circle cx="222" cy="138" r="3.6" fill="#36543B"/><circle cx="234" cy="138" r="3.6" fill="#36543B"/><circle cx="246" cy="138" r="3.6" fill="#36543B"/><circle cx="270" cy="138" r="3.6" fill="#6C8A53"/><circle cx="282" cy="138" r="3.6" fill="#36543B"/><circle cx="306" cy="138" r="3.6" fill="#36543B"/><circle cx="330" cy="138" r="3.6" fill="#6C8A53"/><circle cx="366" cy="138" r="3.6" fill="#36543B"/><rect x="98.4" y="146.4" width="7.2" height="7.2" rx="2.4" fill="#36543B"/><rect x="122.4" y="146.4" width="7.2" height="7.2" rx="2.4" fill="#36543B"/><rect x="134.4" y="146.4" width="7.2" height="7.2" rx="2.4" fill="#6C8A53"/><rect x="146.4" y="146.4" width="7.2" height="7.2" rx="2.4" fill="#36543B"/><circle cx="162" cy="150" r="3.6" fill="#36543B"/><circle cx="174" cy="150" r="3.6" fill="#36543B"/><circle cx="186" cy="150" r="3.6" fill="#36543B"/><circle cx="234" cy="150" r="3.6" fill="#36543B"/><circle cx="258" cy="150" r="3.6" fill="#6C8A53"/><circle cx="270" cy="150" r="3.6" fill="#36543B"/><circle cx="282" cy="150" r="3.6" fill="#36543B"/><circle cx="294" cy="150" r="3.6" fill="#36543B"/><circle cx="318" cy="150" r="3.6" fill="#6C8A53"/><circle cx="330" cy="150" r="3.6" fill="#36543B"/><rect x="398.4" y="146.4" width="7.2" height="7.2" rx="2.4" fill="#36543B"/><rect x="410.4" y="146.4" width="7.2" height="7.2" rx="2.4" fill="#36543B"/><rect x="446.4" y="146.4" width="7.2" height="7.2" rx="2.4" fill="#36543B"/><rect x="458.4" y="146.4" width="7.2" height="7.2" rx="2.4" fill="#36543B"/><circle cx="66" cy="162" r="3.6" fill="#6C8A53"/><circle cx="78" cy="162" r="3.6" fill="#36543B"/><circle cx="90" cy="162" r="3.6" fill="#36543B"/><circle cx="114" cy="162" r="3.6" fill="#36543B"/><circle cx="150" cy="162" r="3.6" fill="#36543B"/><circle cx="198" cy="162" r="3.6" fill="#36543B"/><circle cx="246" cy="162" r="3.6" fill="#6C8A53"/><circle cx="294" cy="162" r="3.6" fill="#36543B"/><circle cx="306" cy="162" r="3.6" fill="#6C8A53"/><circle cx="318" cy="162" r="3.6" fill="#36543B"/><circle cx="330" cy="162" r="3.6" fill="#36543B"/><circle cx="354" cy="162" r="3.6" fill="#36543B"/><circle cx="378" cy="162" r="3.6" fill="#36543B"/><circle cx="390" cy="162" r="3.6" fill="#36543B"/><circle cx="438" cy="162" r="3.6" fill="#36543B"/><circle cx="78" cy="174" r="3.6" fill="#36543B"/><circle cx="102" cy="174" r="3.6" fill="#36543B"/><circle cx="114" cy="174" r="3.6" fill="#6C8A53"/><rect x="122.4" y="170.4" width="7.2" height="7.2" rx="2.4" fill="#36543B"/><circle cx="150" cy="174" r="3.6" fill="#36543B"/><circle cx="162" cy="174" r="3.6" fill="#36543B"/><circle cx="198" cy="174" r="3.6" fill="#36543B"/><circle cx="234" cy="174" r="3.6" fill="#6C8A53"/><circle cx="342" cy="174" r="3.6" fill="#36543B"/><circle cx="354" cy="174" r="3.6" fill="#6C8A53"/><circle cx="378" cy="174" r="3.6" fill="#36543B"/><circle cx="402" cy="174" r="3.6" fill="#36543B"/><circle cx="426" cy="174" r="3.6" fill="#36543B"/><circle cx="462" cy="174" r="3.6" fill="#36543B"/><circle cx="66" cy="186" r="3.6" fill="#36543B"/><circle cx="78" cy="186" r="3.6" fill="#36543B"/><circle cx="90" cy="186" r="3.6" fill="#36543B"/><circle cx="198" cy="186" r="3.6" fill="#36543B"/><circle cx="210" cy="186" r="3.6" fill="#36543B"/><circle cx="222" cy="186" r="3.6" fill="#6C8A53"/><circle cx="234" cy="186" r="3.6" fill="#36543B"/><circle cx="246" cy="186" r="3.6" fill="#36543B"/><circle cx="258" cy="186" r="3.6" fill="#36543B"/><circle cx="270" cy="186" r="3.6" fill="#36543B"/><circle cx="294" cy="186" r="3.6" fill="#36543B"/><circle cx="306" cy="186" r="3.6" fill="#36543B"/><circle cx="330" cy="186" r="3.6" fill="#36543B"/><circle cx="342" cy="186" r="3.6" fill="#6C8A53"/><circle cx="354" cy="186" r="3.6" fill="#36543B"/><circle cx="378" cy="186" r="3.6" fill="#36543B"/><circle cx="390" cy="186" r="3.6" fill="#36543B"/><circle cx="414" cy="186" r="3.6" fill="#36543B"/><circle cx="438" cy="186" r="3.6" fill="#36543B"/><circle cx="450" cy="186" r="3.6" fill="#36543B"/><circle cx="462" cy="186" r="3.6" fill="#6C8A53"/><circle cx="474" cy="186" r="3.6" fill="#36543B"/><circle cx="486" cy="186" r="3.6" fill="#36543B"/><rect x="122.4" y="194.4" width="7.2" height="7.2" rx="2.4" fill="#36543B"/><circle cx="150" cy="198" r="3.6" fill="#6C8A53"/><circle cx="174" cy="198" r="3.6" fill="#36543B"/><circle cx="198" cy="198" r="3.6" fill="#36543B"/><circle cx="222" cy="198" r="3.6" fill="#36543B"/><circle cx="282" cy="198" r="3.6" fill="#36543B"/><circle cx="294" cy="198" r="3.6" fill="#36543B"/><circle cx="306" cy="198" r="3.6" fill="#36543B"/><circle cx="330" cy="198" r="3.6" fill="#6C8A53"/><circle cx="354" cy="198" r="3.6" fill="#36543B"/><circle cx="390" cy="198" r="3.6" fill="#6C8A53"/><circle cx="402" cy="198" r="3.6" fill="#36543B"/><circle cx="414" cy="198" r="3.6" fill="#36543B"/><circle cx="438" cy="198" r="3.6" fill="#36543B"/><circle cx="450" cy="198" r="3.6" fill="#6C8A53"/><circle cx="462" cy="198" r="3.6" fill="#36543B"/><circle cx="474" cy="198" r="3.6" fill="#36543B"/><circle cx="66" cy="210" r="3.6" fill="#36543B"/><circle cx="78" cy="210" r="3.6" fill="#6C8A53"/><circle cx="102" cy="210" r="3.6" fill="#36543B"/><circle cx="114" cy="210" r="3.6" fill="#36543B"/><circle cx="174" cy="210" r="3.6" fill="#36543B"/><circle cx="198" cy="210" r="3.6" fill="#6C8A53"/><circle cx="258" cy="210" r="3.6" fill="#6C8A53"/><circle cx="294" cy="210" r="3.6" fill="#36543B"/><circle cx="306" cy="210" r="3.6" fill="#36543B"/><circle cx="366" cy="210" r="3.6" fill="#36543B"/><circle cx="378" cy="210" r="3.6" fill="#6C8A53"/><circle cx="414" cy="210" r="3.6" fill="#36543B"/><circle cx="426" cy="210" r="3.6" fill="#36543B"/><circle cx="438" cy="210" r="3.6" fill="#6C8A53"/><circle cx="462" cy="210" r="3.6" fill="#36543B"/><circle cx="486" cy="210" r="3.6" fill="#36543B"/><circle cx="54" cy="222" r="3.6" fill="#36543B"/><circle cx="66" cy="222" r="3.6" fill="#6C8A53"/><circle cx="78" cy="222" r="3.6" fill="#36543B"/><circle cx="114" cy="222" r="3.6" fill="#36543B"/><rect x="122.4" y="218.4" width="7.2" height="7.2" rx="2.4" fill="#6C8A53"/><circle cx="162" cy="222" r="3.6" fill="#36543B"/><circle cx="174" cy="222" r="3.6" fill="#36543B"/><circle cx="222" cy="222" r="3.6" fill="#36543B"/><circle cx="234" cy="222" r="3.6" fill="#36543B"/><circle cx="258" cy="222" r="3.6" fill="#36543B"/><circle cx="270" cy="222" r="3.6" fill="#36543B"/><circle cx="282" cy="222" r="3.6" fill="#36543B"/><circle cx="294" cy="222" r="3.6" fill="#36543B"/><circle cx="318" cy="222" r="3.6" fill="#36543B"/><circle cx="330" cy="222" r="3.6" fill="#36543B"/><circle cx="402" cy="222" r="3.6" fill="#36543B"/><circle cx="414" cy="222" r="3.6" fill="#36543B"/><circle cx="426" cy="222" r="3.6" fill="#6C8A53"/><circle cx="438" cy="222" r="3.6" fill="#36543B"/><circle cx="462" cy="222" r="3.6" fill="#36543B"/><circle cx="66" cy="234" r="3.6" fill="#36543B"/><circle cx="90" cy="234" r="3.6" fill="#36543B"/><circle cx="138" cy="234" r="3.6" fill="#36543B"/><circle cx="150" cy="234" r="3.6" fill="#36543B"/><circle cx="162" cy="234" r="3.6" fill="#36543B"/><circle cx="186" cy="234" r="3.6" fill="#36543B"/><circle cx="198" cy="234" r="3.6" fill="#36543B"/><circle cx="234" cy="234" r="3.6" fill="#6C8A53"/><circle cx="246" cy="234" r="3.6" fill="#36543B"/><circle cx="258" cy="234" r="3.6" fill="#36543B"/><circle cx="306" cy="234" r="3.6" fill="#36543B"/><circle cx="354" cy="234" r="3.6" fill="#6C8A53"/><circle cx="366" cy="234" r="3.6" fill="#36543B"/><circle cx="390" cy="234" r="3.6" fill="#36543B"/><circle cx="414" cy="234" r="3.6" fill="#6C8A53"/><circle cx="450" cy="234" r="3.6" fill="#36543B"/><circle cx="474" cy="234" r="3.6" fill="#6C8A53"/><circle cx="486" cy="234" r="3.6" fill="#36543B"/><circle cx="66" cy="246" r="3.6" fill="#36543B"/><circle cx="114" cy="246" r="3.6" fill="#36543B"/><rect x="122.4" y="242.4" width="7.2" height="7.2" rx="2.4" fill="#36543B"/><circle cx="162" cy="246" r="3.6" fill="#6C8A53"/><circle cx="174" cy="246" r="3.6" fill="#36543B"/><circle cx="222" cy="246" r="3.6" fill="#6C8A53"/><circle cx="234" cy="246" r="3.6" fill="#36543B"/><circle cx="246" cy="246" r="3.6" fill="#36543B"/><circle cx="258" cy="246" r="3.6" fill="#36543B"/><circle cx="306" cy="246" r="3.6" fill="#36543B"/><circle cx="354" cy="246" r="3.6" fill="#36543B"/><circle cx="378" cy="246" r="3.6" fill="#36543B"/><circle cx="390" cy="246" r="3.6" fill="#36543B"/><circle cx="414" cy="246" r="3.6" fill="#36543B"/><circle cx="426" cy="246" r="3.6" fill="#36543B"/><circle cx="450" cy="246" r="3.6" fill="#36543B"/><circle cx="54" cy="258" r="3.6" fill="#36543B"/><circle cx="78" cy="258" r="3.6" fill="#36543B"/><circle cx="102" cy="258" r="3.6" fill="#36543B"/><circle cx="162" cy="258" r="3.6" fill="#36543B"/><circle cx="174" cy="258" r="3.6" fill="#36543B"/><circle cx="210" cy="258" r="3.6" fill="#6C8A53"/><circle cx="222" cy="258" r="3.6" fill="#36543B"/><circle cx="234" cy="258" r="3.6" fill="#36543B"/><circle cx="246" cy="258" r="3.6" fill="#36543B"/><circle cx="294" cy="258" r="3.6" fill="#36543B"/><circle cx="306" cy="258" r="3.6" fill="#36543B"/><circle cx="342" cy="258" r="3.6" fill="#36543B"/><circle cx="354" cy="258" r="3.6" fill="#36543B"/><circle cx="366" cy="258" r="3.6" fill="#36543B"/><circle cx="378" cy="258" r="3.6" fill="#36543B"/><circle cx="390" cy="258" r="3.6" fill="#6C8A53"/><circle cx="402" cy="258" r="3.6" fill="#36543B"/><circle cx="414" cy="258" r="3.6" fill="#36543B"/><circle cx="426" cy="258" r="3.6" fill="#36543B"/><circle cx="438" cy="258" r="3.6" fill="#36543B"/><circle cx="450" cy="258" r="3.6" fill="#6C8A53"/><circle cx="462" cy="258" r="3.6" fill="#36543B"/><circle cx="474" cy="258" r="3.6" fill="#36543B"/><circle cx="54" cy="270" r="3.6" fill="#36543B"/><circle cx="66" cy="270" r="3.6" fill="#36543B"/><circle cx="78" cy="270" r="3.6" fill="#6C8A53"/><circle cx="102" cy="270" r="3.6" fill="#36543B"/><circle cx="114" cy="270" r="3.6" fill="#36543B"/><rect x="122.4" y="266.4" width="7.2" height="7.2" rx="2.4" fill="#36543B"/><circle cx="150" cy="270" r="3.6" fill="#36543B"/><circle cx="162" cy="270" r="3.6" fill="#36543B"/><circle cx="186" cy="270" r="3.6" fill="#36543B"/><circle cx="198" cy="270" r="3.6" fill="#6C8A53"/><circle cx="210" cy="270" r="3.6" fill="#36543B"/><circle cx="246" cy="270" r="3.6" fill="#36543B"/><circle cx="258" cy="270" r="3.6" fill="#6C8A53"/><circle cx="270" cy="270" r="3.6" fill="#36543B"/><circle cx="282" cy="270" r="3.6" fill="#36543B"/><circle cx="294" cy="270" r="3.6" fill="#36543B"/><circle cx="306" cy="270" r="3.6" fill="#36543B"/><circle cx="330" cy="270" r="3.6" fill="#36543B"/><circle cx="342" cy="270" r="3.6" fill="#36543B"/><circle cx="354" cy="270" r="3.6" fill="#36543B"/><circle cx="366" cy="270" r="3.6" fill="#36543B"/><circle cx="378" cy="270" r="3.6" fill="#6C8A53"/><circle cx="390" cy="270" r="3.6" fill="#36543B"/><circle cx="438" cy="270" r="3.6" fill="#6C8A53"/><circle cx="450" cy="270" r="3.6" fill="#36543B"/><circle cx="474" cy="270" r="3.6" fill="#36543B"/><circle cx="486" cy="270" r="3.6" fill="#36543B"/><circle cx="54" cy="282" r="3.6" fill="#36543B"/><circle cx="66" cy="282" r="3.6" fill="#6C8A53"/><circle cx="102" cy="282" r="3.6" fill="#36543B"/><circle cx="150" cy="282" r="3.6" fill="#36543B"/><circle cx="162" cy="282" r="3.6" fill="#36543B"/><circle cx="186" cy="282" r="3.6" fill="#6C8A53"/><circle cx="198" cy="282" r="3.6" fill="#36543B"/><circle cx="210" cy="282" r="3.6" fill="#36543B"/><circle cx="234" cy="282" r="3.6" fill="#36543B"/><circle cx="246" cy="282" r="3.6" fill="#6C8A53"/><circle cx="258" cy="282" r="3.6" fill="#36543B"/><circle cx="270" cy="282" r="3.6" fill="#36543B"/><circle cx="306" cy="282" r="3.6" fill="#6C8A53"/><circle cx="342" cy="282" r="3.6" fill="#36543B"/><circle cx="390" cy="282" r="3.6" fill="#36543B"/><circle cx="426" cy="282" r="3.6" fill="#6C8A53"/><circle cx="438" cy="282" r="3.6" fill="#36543B"/><circle cx="450" cy="282" r="3.6" fill="#36543B"/><circle cx="474" cy="282" r="3.6" fill="#36543B"/><circle cx="486" cy="282" r="3.6" fill="#6C8A53"/><circle cx="54" cy="294" r="3.6" fill="#6C8A53"/><circle cx="66" cy="294" r="3.6" fill="#36543B"/><circle cx="90" cy="294" r="3.6" fill="#36543B"/><circle cx="102" cy="294" r="3.6" fill="#36543B"/><rect x="122.4" y="290.4" width="7.2" height="7.2" rx="2.4" fill="#36543B"/><circle cx="162" cy="294" r="3.6" fill="#36543B"/><circle cx="174" cy="294" r="3.6" fill="#6C8A53"/><circle cx="186" cy="294" r="3.6" fill="#36543B"/><circle cx="198" cy="294" r="3.6" fill="#36543B"/><circle cx="234" cy="294" r="3.6" fill="#6C8A53"/><circle cx="246" cy="294" r="3.6" fill="#36543B"/><circle cx="258" cy="294" r="3.6" fill="#36543B"/><circle cx="282" cy="294" r="3.6" fill="#36543B"/><circle cx="294" cy="294" r="3.6" fill="#6C8A53"/><circle cx="318" cy="294" r="3.6" fill="#36543B"/><circle cx="330" cy="294" r="3.6" fill="#36543B"/><circle cx="342" cy="294" r="3.6" fill="#36543B"/><circle cx="354" cy="294" r="3.6" fill="#6C8A53"/><circle cx="402" cy="294" r="3.6" fill="#36543B"/><circle cx="426" cy="294" r="3.6" fill="#36543B"/><circle cx="438" cy="294" r="3.6" fill="#36543B"/><circle cx="474" cy="294" r="3.6" fill="#6C8A53"/><circle cx="486" cy="294" r="3.6" fill="#36543B"/><circle cx="90" cy="306" r="3.6" fill="#36543B"/><circle cx="102" cy="306" r="3.6" fill="#6C8A53"/><circle cx="114" cy="306" r="3.6" fill="#36543B"/><circle cx="150" cy="306" r="3.6" fill="#36543B"/><circle cx="162" cy="306" r="3.6" fill="#6C8A53"/><circle cx="186" cy="306" r="3.6" fill="#36543B"/><circle cx="198" cy="306" r="3.6" fill="#36543B"/><circle cx="210" cy="306" r="3.6" fill="#36543B"/><circle cx="246" cy="306" r="3.6" fill="#36543B"/><circle cx="282" cy="306" r="3.6" fill="#6C8A53"/><circle cx="318" cy="306" r="3.6" fill="#36543B"/><circle cx="342" cy="306" r="3.6" fill="#6C8A53"/><circle cx="366" cy="306" r="3.6" fill="#36543B"/><circle cx="390" cy="306" r="3.6" fill="#36543B"/><circle cx="402" cy="306" r="3.6" fill="#6C8A53"/><circle cx="414" cy="306" r="3.6" fill="#36543B"/><circle cx="426" cy="306" r="3.6" fill="#36543B"/><circle cx="438" cy="306" r="3.6" fill="#36543B"/><circle cx="462" cy="306" r="3.6" fill="#6C8A53"/><circle cx="66" cy="318" r="3.6" fill="#36543B"/><circle cx="78" cy="318" r="3.6" fill="#36543B"/><circle cx="102" cy="318" r="3.6" fill="#36543B"/><circle cx="114" cy="318" r="3.6" fill="#36543B"/><rect x="122.4" y="314.4" width="7.2" height="7.2" rx="2.4" fill="#36543B"/><circle cx="138" cy="318" r="3.6" fill="#36543B"/><circle cx="174" cy="318" r="3.6" fill="#36543B"/><circle cx="210" cy="318" r="3.6" fill="#6C8A53"/><circle cx="234" cy="318" r="3.6" fill="#36543B"/><circle cx="270" cy="318" r="3.6" fill="#6C8A53"/><circle cx="294" cy="318" r="3.6" fill="#36543B"/><circle cx="330" cy="318" r="3.6" fill="#6C8A53"/><circle cx="378" cy="318" r="3.6" fill="#36543B"/><circle cx="426" cy="318" r="3.6" fill="#36543B"/><circle cx="438" cy="318" r="3.6" fill="#36543B"/><circle cx="486" cy="318" r="3.6" fill="#36543B"/><circle cx="54" cy="330" r="3.6" fill="#36543B"/><circle cx="66" cy="330" r="3.6" fill="#36543B"/><circle cx="78" cy="330" r="3.6" fill="#6C8A53"/><circle cx="90" cy="330" r="3.6" fill="#36543B"/><circle cx="102" cy="330" r="3.6" fill="#36543B"/><circle cx="150" cy="330" r="3.6" fill="#36543B"/><circle cx="210" cy="330" r="3.6" fill="#36543B"/><circle cx="246" cy="330" r="3.6" fill="#36543B"/><circle cx="258" cy="330" r="3.6" fill="#6C8A53"/><circle cx="270" cy="330" r="3.6" fill="#36543B"/><circle cx="282" cy="330" r="3.6" fill="#36543B"/><circle cx="294" cy="330" r="3.6" fill="#36543B"/><circle cx="306" cy="330" r="3.6" fill="#36543B"/><circle cx="318" cy="330" r="3.6" fill="#6C8A53"/><circle cx="330" cy="330" r="3.6" fill="#36543B"/><circle cx="342" cy="330" r="3.6" fill="#36543B"/><circle cx="354" cy="330" r="3.6" fill="#36543B"/><circle cx="366" cy="330" r="3.6" fill="#36543B"/><circle cx="378" cy="330" r="3.6" fill="#6C8A53"/><circle cx="402" cy="330" r="3.6" fill="#36543B"/><circle cx="426" cy="330" r="3.6" fill="#36543B"/><circle cx="438" cy="330" r="3.6" fill="#6C8A53"/><circle cx="462" cy="330" r="3.6" fill="#36543B"/><circle cx="78" cy="342" r="3.6" fill="#36543B"/><circle cx="90" cy="342" r="3.6" fill="#36543B"/><circle cx="114" cy="342" r="3.6" fill="#36543B"/><rect x="122.4" y="338.4" width="7.2" height="7.2" rx="2.4" fill="#6C8A53"/><circle cx="162" cy="342" r="3.6" fill="#36543B"/><circle cx="186" cy="342" r="3.6" fill="#6C8A53"/><circle cx="234" cy="342" r="3.6" fill="#36543B"/><circle cx="270" cy="342" r="3.6" fill="#36543B"/><circle cx="282" cy="342" r="3.6" fill="#36543B"/><circle cx="294" cy="342" r="3.6" fill="#36543B"/><circle cx="306" cy="342" r="3.6" fill="#6C8A53"/><circle cx="318" cy="342" r="3.6" fill="#36543B"/><circle cx="330" cy="342" r="3.6" fill="#36543B"/><circle cx="342" cy="342" r="3.6" fill="#36543B"/><circle cx="354" cy="342" r="3.6" fill="#36543B"/><circle cx="402" cy="342" r="3.6" fill="#36543B"/><circle cx="438" cy="342" r="3.6" fill="#36543B"/><circle cx="450" cy="342" r="3.6" fill="#36543B"/><circle cx="462" cy="342" r="3.6" fill="#36543B"/><circle cx="486" cy="342" r="3.6" fill="#6C8A53"/><circle cx="66" cy="354" r="3.6" fill="#36543B"/><circle cx="78" cy="354" r="3.6" fill="#36543B"/><circle cx="90" cy="354" r="3.6" fill="#36543B"/><circle cx="102" cy="354" r="3.6" fill="#36543B"/><circle cx="150" cy="354" r="3.6" fill="#36543B"/><circle cx="162" cy="354" r="3.6" fill="#36543B"/><circle cx="174" cy="354" r="3.6" fill="#6C8A53"/><circle cx="186" cy="354" r="3.6" fill="#36543B"/><circle cx="198" cy="354" r="3.6" fill="#36543B"/><circle cx="222" cy="354" r="3.6" fill="#36543B"/><circle cx="246" cy="354" r="3.6" fill="#36543B"/><circle cx="258" cy="354" r="3.6" fill="#36543B"/><circle cx="306" cy="354" r="3.6" fill="#36543B"/><circle cx="318" cy="354" r="3.6" fill="#36543B"/><circle cx="366" cy="354" r="3.6" fill="#36543B"/><circle cx="390" cy="354" r="3.6" fill="#36543B"/><circle cx="402" cy="354" r="3.6" fill="#36543B"/><circle cx="414" cy="354" r="3.6" fill="#6C8A53"/><circle cx="450" cy="354" r="3.6" fill="#36543B"/><circle cx="474" cy="354" r="3.6" fill="#6C8A53"/><circle cx="486" cy="354" r="3.6" fill="#36543B"/><circle cx="90" cy="366" r="3.6" fill="#36543B"/><circle cx="102" cy="366" r="3.6" fill="#6C8A53"/><circle cx="114" cy="366" r="3.6" fill="#36543B"/><rect x="122.4" y="362.4" width="7.2" height="7.2" rx="2.4" fill="#36543B"/><circle cx="186" cy="366" r="3.6" fill="#36543B"/><circle cx="198" cy="366" r="3.6" fill="#36543B"/><circle cx="234" cy="366" r="3.6" fill="#36543B"/><circle cx="258" cy="366" r="3.6" fill="#36543B"/><circle cx="294" cy="366" r="3.6" fill="#36543B"/><circle cx="342" cy="366" r="3.6" fill="#6C8A53"/><circle cx="354" cy="366" r="3.6" fill="#36543B"/><circle cx="366" cy="366" r="3.6" fill="#36543B"/><circle cx="426" cy="366" r="3.6" fill="#36543B"/><circle cx="438" cy="366" r="3.6" fill="#36543B"/><circle cx="474" cy="366" r="3.6" fill="#36543B"/><circle cx="486" cy="366" r="3.6" fill="#36543B"/><circle cx="78" cy="378" r="3.6" fill="#36543B"/><circle cx="90" cy="378" r="3.6" fill="#6C8A53"/><circle cx="102" cy="378" r="3.6" fill="#36543B"/><circle cx="138" cy="378" r="3.6" fill="#36543B"/><circle cx="150" cy="378" r="3.6" fill="#6C8A53"/><circle cx="198" cy="378" r="3.6" fill="#36543B"/><circle cx="210" cy="378" r="3.6" fill="#6C8A53"/><circle cx="246" cy="378" r="3.6" fill="#36543B"/><circle cx="258" cy="378" r="3.6" fill="#36543B"/><circle cx="270" cy="378" r="3.6" fill="#6C8A53"/><circle cx="282" cy="378" r="3.6" fill="#36543B"/><circle cx="330" cy="378" r="3.6" fill="#6C8A53"/><circle cx="354" cy="378" r="3.6" fill="#36543B"/><circle cx="378" cy="378" r="3.6" fill="#36543B"/><circle cx="390" cy="378" r="3.6" fill="#6C8A53"/><circle cx="462" cy="378" r="3.6" fill="#36543B"/><circle cx="474" cy="378" r="3.6" fill="#36543B"/><circle cx="54" cy="390" r="3.6" fill="#36543B"/><circle cx="66" cy="390" r="3.6" fill="#36543B"/><rect x="122.4" y="386.4" width="7.2" height="7.2" rx="2.4" fill="#36543B"/><circle cx="138" cy="390" r="3.6" fill="#6C8A53"/><circle cx="150" cy="390" r="3.6" fill="#36543B"/><circle cx="210" cy="390" r="3.6" fill="#36543B"/><circle cx="234" cy="390" r="3.6" fill="#36543B"/><circle cx="294" cy="390" r="3.6" fill="#36543B"/><circle cx="330" cy="390" r="3.6" fill="#36543B"/><circle cx="342" cy="390" r="3.6" fill="#36543B"/><circle cx="354" cy="390" r="3.6" fill="#36543B"/><circle cx="462" cy="390" r="3.6" fill="#36543B"/><rect x="146.4" y="398.4" width="7.2" height="7.2" rx="2.4" fill="#36543B"/><circle cx="162" cy="402" r="3.6" fill="#36543B"/><circle cx="174" cy="402" r="3.6" fill="#36543B"/><circle cx="198" cy="402" r="3.6" fill="#36543B"/><circle cx="270" cy="402" r="3.6" fill="#36543B"/><circle cx="294" cy="402" r="3.6" fill="#36543B"/><circle cx="318" cy="402" r="3.6" fill="#36543B"/><circle cx="330" cy="402" r="3.6" fill="#36543B"/><circle cx="342" cy="402" r="3.6" fill="#36543B"/><circle cx="354" cy="402" r="3.6" fill="#36543B"/><circle cx="378" cy="402" r="3.6" fill="#36543B"/><circle cx="474" cy="402" r="3.6" fill="#36543B"/><circle cx="486" cy="402" r="3.6" fill="#6C8A53"/><rect x="146.4" y="410.4" width="7.2" height="7.2" rx="2.4" fill="#36543B"/><circle cx="198" cy="414" r="3.6" fill="#36543B"/><circle cx="210" cy="414" r="3.6" fill="#36543B"/><circle cx="258" cy="414" r="3.6" fill="#36543B"/><circle cx="282" cy="414" r="3.6" fill="#36543B"/><circle cx="330" cy="414" r="3.6" fill="#36543B"/><circle cx="342" cy="414" r="3.6" fill="#36543B"/><circle cx="354" cy="414" r="3.6" fill="#6C8A53"/><circle cx="450" cy="414" r="3.6" fill="#36543B"/><circle cx="462" cy="414" r="3.6" fill="#36543B"/><circle cx="486" cy="414" r="3.6" fill="#36543B"/><circle cx="162" cy="426" r="3.6" fill="#6C8A53"/><circle cx="174" cy="426" r="3.6" fill="#36543B"/><circle cx="186" cy="426" r="3.6" fill="#36543B"/><circle cx="210" cy="426" r="3.6" fill="#36543B"/><circle cx="270" cy="426" r="3.6" fill="#36543B"/><circle cx="282" cy="426" r="3.6" fill="#6C8A53"/><circle cx="306" cy="426" r="3.6" fill="#36543B"/><circle cx="354" cy="426" r="3.6" fill="#36543B"/><circle cx="366" cy="426" r="3.6" fill="#36543B"/><circle cx="378" cy="426" r="3.6" fill="#36543B"/><circle cx="462" cy="426" r="3.6" fill="#6C8A53"/><circle cx="474" cy="426" r="3.6" fill="#36543B"/><circle cx="486" cy="426" r="3.6" fill="#36543B"/><rect x="146.4" y="434.4" width="7.2" height="7.2" rx="2.4" fill="#6C8A53"/><circle cx="174" cy="438" r="3.6" fill="#36543B"/><circle cx="186" cy="438" r="3.6" fill="#36543B"/><circle cx="198" cy="438" r="3.6" fill="#36543B"/><circle cx="210" cy="438" r="3.6" fill="#6C8A53"/><circle cx="222" cy="438" r="3.6" fill="#36543B"/><circle cx="294" cy="438" r="3.6" fill="#36543B"/><circle cx="318" cy="438" r="3.6" fill="#36543B"/><circle cx="342" cy="438" r="3.6" fill="#36543B"/><circle cx="354" cy="438" r="3.6" fill="#36543B"/><circle cx="366" cy="438" r="3.6" fill="#36543B"/><circle cx="450" cy="438" r="3.6" fill="#6C8A53"/><circle cx="462" cy="438" r="3.6" fill="#36543B"/><circle cx="474" cy="438" r="3.6" fill="#36543B"/><circle cx="486" cy="438" r="3.6" fill="#36543B"/><circle cx="162" cy="450" r="3.6" fill="#36543B"/><circle cx="174" cy="450" r="3.6" fill="#36543B"/><circle cx="198" cy="450" r="3.6" fill="#6C8A53"/><circle cx="246" cy="450" r="3.6" fill="#36543B"/><circle cx="258" cy="450" r="3.6" fill="#6C8A53"/><circle cx="270" cy="450" r="3.6" fill="#36543B"/><circle cx="282" cy="450" r="3.6" fill="#36543B"/><circle cx="294" cy="450" r="3.6" fill="#36543B"/><circle cx="342" cy="450" r="3.6" fill="#36543B"/><circle cx="354" cy="450" r="3.6" fill="#36543B"/><circle cx="366" cy="450" r="3.6" fill="#36543B"/><circle cx="390" cy="450" r="3.6" fill="#36543B"/><circle cx="402" cy="450" r="3.6" fill="#36543B"/><circle cx="414" cy="450" r="3.6" fill="#36543B"/><circle cx="426" cy="450" r="3.6" fill="#36543B"/><circle cx="438" cy="450" r="3.6" fill="#6C8A53"/><circle cx="462" cy="450" r="3.6" fill="#36543B"/><circle cx="474" cy="450" r="3.6" fill="#36543B"/><circle cx="486" cy="450" r="3.6" fill="#36543B"/><circle cx="162" cy="462" r="3.6" fill="#36543B"/><circle cx="186" cy="462" r="3.6" fill="#6C8A53"/><circle cx="198" cy="462" r="3.6" fill="#36543B"/><circle cx="210" cy="462" r="3.6" fill="#36543B"/><circle cx="222" cy="462" r="3.6" fill="#36543B"/><circle cx="246" cy="462" r="3.6" fill="#6C8A53"/><circle cx="270" cy="462" r="3.6" fill="#36543B"/><circle cx="306" cy="462" r="3.6" fill="#6C8A53"/><circle cx="318" cy="462" r="3.6" fill="#36543B"/><circle cx="330" cy="462" r="3.6" fill="#36543B"/><circle cx="342" cy="462" r="3.6" fill="#36543B"/><circle cx="354" cy="462" r="3.6" fill="#36543B"/><circle cx="366" cy="462" r="3.6" fill="#6C8A53"/><circle cx="390" cy="462" r="3.6" fill="#36543B"/><circle cx="402" cy="462" r="3.6" fill="#36543B"/><circle cx="474" cy="462" r="3.6" fill="#36543B"/><circle cx="486" cy="462" r="3.6" fill="#6C8A53"/><circle cx="186" cy="474" r="3.6" fill="#36543B"/><circle cx="198" cy="474" r="3.6" fill="#36543B"/><circle cx="210" cy="474" r="3.6" fill="#36543B"/><circle cx="222" cy="474" r="3.6" fill="#36543B"/><circle cx="234" cy="474" r="3.6" fill="#6C8A53"/><circle cx="270" cy="474" r="3.6" fill="#36543B"/><circle cx="306" cy="474" r="3.6" fill="#36543B"/><circle cx="342" cy="474" r="3.6" fill="#36543B"/><circle cx="354" cy="474" r="3.6" fill="#6C8A53"/><circle cx="366" cy="474" r="3.6" fill="#36543B"/><circle cx="414" cy="474" r="3.6" fill="#6C8A53"/><circle cx="426" cy="474" r="3.6" fill="#36543B"/><circle cx="462" cy="474" r="3.6" fill="#36543B"/><circle cx="486" cy="474" r="3.6" fill="#36543B"/><circle cx="198" cy="486" r="3.6" fill="#36543B"/><circle cx="210" cy="486" r="3.6" fill="#36543B"/><circle cx="234" cy="486" r="3.6" fill="#36543B"/><circle cx="258" cy="486" r="3.6" fill="#36543B"/><circle cx="270" cy="486" r="3.6" fill="#36543B"/><circle cx="294" cy="486" r="3.6" fill="#36543B"/><circle cx="354" cy="486" r="3.6" fill="#36543B"/><circle cx="378" cy="486" r="3.6" fill="#36543B"/><circle cx="402" cy="486" r="3.6" fill="#6C8A53"/><circle cx="414" cy="486" r="3.6" fill="#36543B"/><circle cx="438" cy="486" r="3.6" fill="#36543B"/><circle cx="486" cy="486" r="3.6" fill="#36543B"/><rect x="48" y="48" width="84" height="84" rx="18" fill="#C86D4B"/><rect x="60" y="60" width="60" height="60" rx="13.2" fill="#FFFAF2"/><rect x="72" y="72" width="36" height="36" rx="8.64" fill="#36543B"/><rect x="408" y="48" width="84" height="84" rx="18" fill="#C86D4B"/><rect x="420" y="60" width="60" height="60" rx="13.2" fill="#FFFAF2"/><rect x="432" y="72" width="36" height="36" rx="8.64" fill="#36543B"/><rect x="48" y="408" width="84" height="84" rx="18" fill="#C86D4B"/><rect x="60" y="420" width="60" height="60" rx="13.2" fill="#FFFAF2"/><rect x="72" y="432" width="36" height="36" rx="8.64" fill="#36543B"/><rect x="384" y="384" width="60" height="60" rx="12.6" fill="#6C8A53"/><rect x="396" y="396" width="36" height="36" rx="8.16" fill="#FFFAF2"/><rect x="408" y="408" width="12" height="12" rx="2.88" fill="#36543B"/></svg>