<svg xmlns="http://www.w3.org/2000/svg" viewBox="48 48 396 396" role="img" aria-label="Seedbed QR code for The Number Garden"><defs><linearGradient id="seedbed-bg" x1="0%" y1="0%" x2="100%" y2="100%"><stop offset="0%" stop-color="#FDF8EF"/><stop offset="100%" stop-color="#FFFAF2"/></linearGradient></defs><circle cx="222" cy="54" r="4.56" fill="#36543B"/><circle cx="234" cy="54" r="4.56" fill="#36543B"/><circle cx="270" cy="54" r="4.56" fill="#36543B"/><circle cx="318" cy="54" r="4.56" fill="#36543B"/><circle cx="342" cy="54" r="4.56" fill="#36543B"/><circle cx="174" cy="66" r="4.56" fill="#36543B"/><circle cx="210" cy="66" r="4.56" fill="#36543B"/><circle cx="222" cy="66" r="4.56" fill="#36543B"/><circle cx="282" cy="66" r="4.56" fill="#36543B"/><circle cx="318" cy="66" r="4.56" fill="#36543B"/><circle cx="342" cy="66" r="4.56" fill="#36543B"/><rect x="145.44" y="73.44" width="9.12" height="9.12" rx="2.4" fill="#36543B"/><circle cx="186" cy="78" r="4.56" fill="#36543B"/><circle cx="198" cy="78" r="4.56" fill="#36543B"/><circle cx="246" cy="78" r="4.56" fill="#36543B"/><circle cx="258" cy="78" r="4.56" fill="#36543B"/><circle cx="270" cy="78" r="4.56" fill="#36543B"/><circle cx="282" cy="78" r="4.56" fill="#36543B"/><circle cx="306" cy="78" r="4.56" fill="#36543B"/><circle cx="318" cy="78" r="4.56" fill="#36543B"/><circle cx="330" cy="78" r="4.56" fill="#36543B"/><circle cx="162" cy="90" r="4.56" fill="#36543B"/><circle cx="186" cy="90" r="4.56" fill="#36543B"/><circle cx="210" cy="90" r="4.56" fill="#36543B"/><circle cx="222" cy="90" r="4.56" fill="#36543B"/><circle cx="234" cy="90" r="4.56" fill="#36543B"/><circle cx="258" cy="90" r="4.56" fill="#36543B"/><circle cx="270" cy="90" r="4.56" fill="#36543B"/><circle cx="282" cy="90" r="4.56" fill="#36543B"/><circle cx="294" cy="90" r="4.56" fill="#36543B"/><circle cx="306" cy="90" r="4.56" fill="#36543B"/><circle cx="318" cy="90" r="4.56" fill="#36543B"/><circle cx="330" cy="90" r="4.56" fill="#36543B"/><circle cx="198" cy="102" r="4.56" fill="#36543B"/><circle cx="210" cy="102" r="4.56" fill="#36543B"/><circle cx="246" cy="102" r="4.56" fill="#36543B"/><circle cx="258" cy="102" r="4.56" fill="#36543B"/><circle cx="282" cy="102" r="4.56" fill="#36543B"/><circle cx="318" cy="102" r="4.56" fill="#36543B"/><circle cx="330" cy="102" r="4.56" fill="#36543B"/><circle cx="342" cy="102" r="4.56" fill="#36543B"/><rect x="145.44" y="109.44" width="9.12" height="9.12" rx="2.4" fill="#36543B"/><circle cx="162" cy="114" r="4.56" fill="#36543B"/><circle cx="186" cy="114" r="4.56" fill="#36543B"/><circle cx="222" cy="114" r="4.56" fill="#36543B"/><circle cx="246" cy="114" r="4.56" fill="#36543B"/><circle cx="258" cy="114" r="4.56" fill="#36543B"/><circle cx="270" cy="114" r="4.56" fill="#36543B"/><circle cx="282" cy="114" r="4.56" fill="#36543B"/><circle cx="294" cy="114" r="4.56" fill="#36543B"/><circle cx="306" cy="114" r="4.56" fill="#36543B"/><circle cx="330" cy="114" r="4.56" fill="#36543B"/><circle cx="342" cy="114" r="4.56" fill="#36543B"/><rect x="145.44" y="121.44" width="9.12" height="9.12" rx="2.4" fill="#36543B"/><rect x="169.44" y="121.44" width="9.12" height="9.12" rx="2.4" fill="#36543B"/><rect x="193.44" y="121.44" width="9.12" height="9.12" rx="2.4" fill="#36543B"/><rect x="217.44" y="121.44" width="9.12" height="9.12" rx="2.4" fill="#36543B"/><rect x="241.44" y="121.44" width="9.12" height="9.12" rx="2.4" fill="#36543B"/><rect x="265.44" y="121.44" width="9.12" height="9.12" rx="2.4" fill="#36543B"/><rect x="289.44" y="121.44" width="9.12" height="9.12" rx="2.4" fill="#36543B"/><rect x="313.44" y="121.44" width="9.12" height="9.12" rx="2.4" fill="#36543B"/><rect x="337.44" y="121.44" width="9.12" height="9.12" rx="2.4" fill="#36543B"/><rect x="145.44" y="133.44" width="9.12" height="9.12" rx="2.4" fill="#36543B"/><circle cx="174" cy="138" r="4.56" fill="#36543B"/><circle cx="186" cy="138" r="4.56" fill="#36543B"/><circle cx="198" cy="138" r="4.56" fill="#36543B"/><circle cx="210" cy="138" r="4.56" fill="#36543B"/><circle cx="234" cy="138" r="4.56" fill="#36543B"/><circle cx="282" cy="138" r="4.56" fill="#36543B"/><circle cx="294" cy="138" r="4.56" fill="#36543B"/><circle cx="306" cy="138" r="4.56" fill="#36543B"/><circle cx="318" cy="138" r="4.56" fill="#36543B"/><circle cx="342" cy="138" r="4.56" fill="#36543B"/><rect x="61.44" y="145.44" width="9.12" height="9.12" rx="2.4" fill="#36543B"/><rect x="73.44" y="145.44" width="9.12" height="9.12" rx="2.4" fill="#36543B"/><rect x="85.44" y="145.44" width="9.12" height="9.12" rx="2.4" fill="#36543B"/><rect x="97.44" y="145.44" width="9.12" height="9.12" rx="2.4" fill="#36543B"/><rect x="109.44" y="145.44" width="9.12" height="9.12" rx="2.4" fill="#36543B"/><rect x="121.44" y="145.44" width="9.12" height="9.12" rx="2.4" fill="#36543B"/><rect x="145.44" y="145.44" width="9.12" height="9.12" rx="2.4" fill="#36543B"/><circle cx="174" cy="150" r="4.56" fill="#36543B"/><circle cx="186" cy="150" r="4.56" fill="#36543B"/><circle cx="210" cy="150" r="4.56" fill="#36543B"/><circle cx="222" cy="150" r="4.56" fill="#36543B"/><circle cx="234" cy="150" r="4.56" fill="#36543B"/><circle cx="258" cy="150" r="4.56" fill="#36543B"/><circle cx="306" cy="150" r="4.56" fill="#36543B"/><circle cx="330" cy="150" r="4.56" fill="#36543B"/><circle cx="342" cy="150" r="4.56" fill="#36543B"/><rect x="349.44" y="145.44" width="9.12" height="9.12" rx="2.4" fill="#36543B"/><rect x="361.44" y="145.44" width="9.12" height="9.12" rx="2.4" fill="#36543B"/><rect x="373.44" y="145.44" width="9.12" height="9.12" rx="2.4" fill="#36543B"/><rect x="409.44" y="145.44" width="9.12" height="9.12" rx="2.4" fill="#36543B"/><circle cx="54" cy="162" r="4.56" fill="#36543B"/><circle cx="78" cy="162" r="4.56" fill="#36543B"/><circle cx="102" cy="162" r="4.56" fill="#36543B"/><circle cx="114" cy="162" r="4.56" fill="#36543B"/><circle cx="138" cy="162" r="4.56" fill="#36543B"/><circle cx="174" cy="162" r="4.56" fill="#36543B"/><circle cx="186" cy="162" r="4.56" fill="#36543B"/><circle cx="282" cy="162" r="4.56" fill="#36543B"/><circle cx="294" cy="162" r="4.56" fill="#36543B"/><circle cx="318" cy="162" r="4.56" fill="#36543B"/><circle cx="354" cy="162" r="4.56" fill="#36543B"/><circle cx="378" cy="162" r="4.56" fill="#36543B"/><circle cx="390" cy="162" r="4.56" fill="#36543B"/><circle cx="402" cy="162" r="4.56" fill="#36543B"/><circle cx="66" cy="174" r="4.56" fill="#36543B"/><circle cx="90" cy="174" r="4.56" fill="#36543B"/><circle cx="114" cy="174" r="4.56" fill="#36543B"/><rect x="121.44" y="169.44" width="9.12" height="9.12" rx="2.4" fill="#36543B"/><circle cx="162" cy="174" r="4.56" fill="#36543B"/><circle cx="210" cy="174" r="4.56" fill="#36543B"/><circle cx="222" cy="174" r="4.56" fill="#36543B"/><circle cx="234" cy="174" r="4.56" fill="#36543B"/><circle cx="246" cy="174" r="4.56" fill="#36543B"/><circle cx="270" cy="174" r="4.56" fill="#36543B"/><circle cx="306" cy="174" r="4.56" fill="#36543B"/><circle cx="318" cy="174" r="4.56" fill="#36543B"/><circle cx="330" cy="174" r="4.56" fill="#36543B"/><circle cx="366" cy="174" r="4.56" fill="#36543B"/><circle cx="378" cy="174" r="4.56" fill="#36543B"/><circle cx="390" cy="174" r="4.56" fill="#36543B"/><circle cx="54" cy="186" r="4.56" fill="#36543B"/><circle cx="66" cy="186" r="4.56" fill="#36543B"/><circle cx="78" cy="186" r="4.56" fill="#36543B"/><circle cx="102" cy="186" r="4.56" fill="#36543B"/><circle cx="114" cy="186" r="4.56" fill="#36543B"/><circle cx="174" cy="186" r="4.56" fill="#36543B"/><circle cx="186" cy="186" r="4.56" fill="#36543B"/><circle cx="210" cy="186" r="4.56" fill="#36543B"/><circle cx="234" cy="186" r="4.56" fill="#36543B"/><circle cx="246" cy="186" r="4.56" fill="#36543B"/><circle cx="282" cy="186" r="4.56" fill="#36543B"/><circle cx="294" cy="186" r="4.56" fill="#36543B"/><circle cx="330" cy="186" r="4.56" fill="#36543B"/><circle cx="342" cy="186" r="4.56" fill="#36543B"/><circle cx="354" cy="186" r="4.56" fill="#36543B"/><circle cx="366" cy="186" r="4.56" fill="#36543B"/><circle cx="438" cy="186" r="4.56" fill="#36543B"/><circle cx="114" cy="198" r="4.56" fill="#36543B"/><rect x="121.44" y="193.44" width="9.12" height="9.12" rx="2.4" fill="#36543B"/><circle cx="150" cy="198" r="4.56" fill="#36543B"/><circle cx="162" cy="198" r="4.56" fill="#36543B"/><circle cx="174" cy="198" r="4.56" fill="#36543B"/><circle cx="186" cy="198" r="4.56" fill="#36543B"/><circle cx="198" cy="198" r="4.56" fill="#36543B"/><circle cx="222" cy="198" r="4.56" fill="#36543B"/><circle cx="234" cy="198" r="4.56" fill="#36543B"/><circle cx="246" cy="198" r="4.56" fill="#36543B"/><circle cx="270" cy="198" r="4.56" fill="#36543B"/><circle cx="306" cy="198" r="4.56" fill="#36543B"/><circle cx="342" cy="198" r="4.56" fill="#36543B"/><circle cx="354" cy="198" r="4.56" fill="#36543B"/><circle cx="366" cy="198" r="4.56" fill="#36543B"/><circle cx="402" cy="198" r="4.56" fill="#36543B"/><circle cx="414" cy="198" r="4.56" fill="#36543B"/><circle cx="438" cy="198" r="4.56" fill="#36543B"/><circle cx="66" cy="210" r="4.56" fill="#36543B"/><circle cx="90" cy="210" r="4.56" fill="#36543B"/><circle cx="138" cy="210" r="4.56" fill="#36543B"/><circle cx="150" cy="210" r="4.56" fill="#36543B"/><circle cx="186" cy="210" r="4.56" fill="#36543B"/><circle cx="210" cy="210" r="4.56" fill="#36543B"/><circle cx="234" cy="210" r="4.56" fill="#36543B"/><circle cx="246" cy="210" r="4.56" fill="#36543B"/><circle cx="258" cy="210" r="4.56" fill="#36543B"/><circle cx="318" cy="210" r="4.56" fill="#36543B"/><circle cx="342" cy="210" r="4.56" fill="#36543B"/><circle cx="378" cy="210" r="4.56" fill="#36543B"/><circle cx="402" cy="210" r="4.56" fill="#36543B"/><circle cx="414" cy="210" r="4.56" fill="#36543B"/><circle cx="426" cy="210" r="4.56" fill="#36543B"/><circle cx="438" cy="210" r="4.56" fill="#36543B"/><circle cx="54" cy="222" r="4.56" fill="#36543B"/><circle cx="66" cy="222" r="4.56" fill="#36543B"/><circle cx="78" cy="222" r="4.56" fill="#36543B"/><circle cx="90" cy="222" r="4.56" fill="#36543B"/><circle cx="102" cy="222" r="4.56" fill="#36543B"/><circle cx="114" cy="222" r="4.56" fill="#36543B"/><rect x="121.44" y="217.44" width="9.12" height="9.12" rx="2.4" fill="#36543B"/><circle cx="138" cy="222" r="4.56" fill="#36543B"/><circle cx="162" cy="222" r="4.56" fill="#36543B"/><circle cx="186" cy="222" r="4.56" fill="#36543B"/><circle cx="198" cy="222" r="4.56" fill="#36543B"/><circle cx="234" cy="222" r="4.56" fill="#36543B"/><circle cx="246" cy="222" r="4.56" fill="#36543B"/><circle cx="258" cy="222" r="4.56" fill="#36543B"/><circle cx="270" cy="222" r="4.56" fill="#36543B"/><circle cx="330" cy="222" r="4.56" fill="#36543B"/><circle cx="378" cy="222" r="4.56" fill="#36543B"/><circle cx="426" cy="222" r="4.56" fill="#36543B"/><circle cx="54" cy="234" r="4.56" fill="#36543B"/><circle cx="66" cy="234" r="4.56" fill="#36543B"/><circle cx="78" cy="234" r="4.56" fill="#36543B"/><circle cx="90" cy="234" r="4.56" fill="#36543B"/><circle cx="102" cy="234" r="4.56" fill="#36543B"/><circle cx="174" cy="234" r="4.56" fill="#36543B"/><circle cx="198" cy="234" r="4.56" fill="#36543B"/><circle cx="210" cy="234" r="4.56" fill="#36543B"/><circle cx="258" cy="234" r="4.56" fill="#36543B"/><circle cx="270" cy="234" r="4.56" fill="#36543B"/><circle cx="294" cy="234" r="4.56" fill="#36543B"/><circle cx="306" cy="234" r="4.56" fill="#36543B"/><circle cx="318" cy="234" r="4.56" fill="#36543B"/><circle cx="342" cy="234" r="4.56" fill="#36543B"/><circle cx="378" cy="234" r="4.56" fill="#36543B"/><circle cx="390" cy="234" r="4.56" fill="#36543B"/><circle cx="402" cy="234" r="4.56" fill="#36543B"/><circle cx="414" cy="234" r="4.56" fill="#36543B"/><circle cx="426" cy="234" r="4.56" fill="#36543B"/><circle cx="438" cy="234" r="4.56" fill="#36543B"/><circle cx="54" cy="246" r="4.56" fill="#36543B"/><circle cx="114" cy="246" r="4.56" fill="#36543B"/><rect x="121.44" y="241.44" width="9.12" height="9.12" rx="2.4" fill="#36543B"/><circle cx="138" cy="246" r="4.56" fill="#36543B"/><circle cx="162" cy="246" r="4.56" fill="#36543B"/><circle cx="174" cy="246" r="4.56" fill="#36543B"/><circle cx="198" cy="246" r="4.56" fill="#36543B"/><circle cx="222" cy="246" r="4.56" fill="#36543B"/><circle cx="246" cy="246" r="4.56" fill="#36543B"/><circle cx="258" cy="246" r="4.56" fill="#36543B"/><circle cx="294" cy="246" r="4.56" fill="#36543B"/><circle cx="306" cy="246" r="4.56" fill="#36543B"/><circle cx="318" cy="246" r="4.56" fill="#36543B"/><circle cx="342" cy="246" r="4.56" fill="#36543B"/><circle cx="378" cy="246" r="4.56" fill="#36543B"/><circle cx="414" cy="246" r="4.56" fill="#36543B"/><circle cx="426" cy="246" r="4.56" fill="#36543B"/><circle cx="438" cy="246" r="4.56" fill="#36543B"/><circle cx="66" cy="258" r="4.56" fill="#36543B"/><circle cx="78" cy="258" r="4.56" fill="#36543B"/><circle cx="102" cy="258" r="4.56" fill="#36543B"/><circle cx="114" cy="258" r="4.56" fill="#36543B"/><circle cx="138" cy="258" r="4.56" fill="#36543B"/><circle cx="162" cy="258" r="4.56" fill="#36543B"/><circle cx="186" cy="258" r="4.56" fill="#36543B"/><circle cx="198" cy="258" r="4.56" fill="#36543B"/><circle cx="222" cy="258" r="4.56" fill="#36543B"/><circle cx="234" cy="258" r="4.56" fill="#36543B"/><circle cx="246" cy="258" r="4.56" fill="#36543B"/><circle cx="318" cy="258" r="4.56" fill="#36543B"/><circle cx="330" cy="258" r="4.56" fill="#36543B"/><circle cx="342" cy="258" r="4.56" fill="#36543B"/><circle cx="354" cy="258" r="4.56" fill="#36543B"/><circle cx="366" cy="258" r="4.56" fill="#36543B"/><circle cx="426" cy="258" r="4.56" fill="#36543B"/><circle cx="54" cy="270" r="4.56" fill="#36543B"/><circle cx="102" cy="270" r="4.56" fill="#36543B"/><rect x="121.44" y="265.44" width="9.12" height="9.12" rx="2.4" fill="#36543B"/><circle cx="150" cy="270" r="4.56" fill="#36543B"/><circle cx="210" cy="270" r="4.56" fill="#36543B"/><circle cx="222" cy="270" r="4.56" fill="#36543B"/><circle cx="234" cy="270" r="4.56" fill="#36543B"/><circle cx="258" cy="270" r="4.56" fill="#36543B"/><circle cx="270" cy="270" r="4.56" fill="#36543B"/><circle cx="306" cy="270" r="4.56" fill="#36543B"/><circle cx="318" cy="270" r="4.56" fill="#36543B"/><circle cx="330" cy="270" r="4.56" fill="#36543B"/><circle cx="354" cy="270" r="4.56" fill="#36543B"/><circle cx="366" cy="270" r="4.56" fill="#36543B"/><circle cx="378" cy="270" r="4.56" fill="#36543B"/><circle cx="414" cy="270" r="4.56" fill="#36543B"/><circle cx="54" cy="282" r="4.56" fill="#36543B"/><circle cx="78" cy="282" r="4.56" fill="#36543B"/><circle cx="102" cy="282" r="4.56" fill="#36543B"/><circle cx="186" cy="282" r="4.56" fill="#36543B"/><circle cx="222" cy="282" r="4.56" fill="#36543B"/><circle cx="258" cy="282" r="4.56" fill="#36543B"/><circle cx="270" cy="282" r="4.56" fill="#36543B"/><circle cx="282" cy="282" r="4.56" fill="#36543B"/><circle cx="306" cy="282" r="4.56" fill="#36543B"/><circle cx="318" cy="282" r="4.56" fill="#36543B"/><circle cx="330" cy="282" r="4.56" fill="#36543B"/><circle cx="342" cy="282" r="4.56" fill="#36543B"/><circle cx="354" cy="282" r="4.56" fill="#36543B"/><circle cx="366" cy="282" r="4.56" fill="#36543B"/><circle cx="390" cy="282" r="4.56" fill="#36543B"/><circle cx="426" cy="282" r="4.56" fill="#36543B"/><circle cx="438" cy="282" r="4.56" fill="#36543B"/><circle cx="78" cy="294" r="4.56" fill="#36543B"/><circle cx="90" cy="294" r="4.56" fill="#36543B"/><rect x="121.44" y="289.44" width="9.12" height="9.12" rx="2.4" fill="#36543B"/><circle cx="162" cy="294" r="4.56" fill="#36543B"/><circle cx="174" cy="294" r="4.56" fill="#36543B"/><circle cx="210" cy="294" r="4.56" fill="#36543B"/><circle cx="222" cy="294" r="4.56" fill="#36543B"/><circle cx="234" cy="294" r="4.56" fill="#36543B"/><circle cx="246" cy="294" r="4.56" fill="#36543B"/><circle cx="258" cy="294" r="4.56" fill="#36543B"/><circle cx="282" cy="294" r="4.56" fill="#36543B"/><circle cx="366" cy="294" r="4.56" fill="#36543B"/><circle cx="378" cy="294" r="4.56" fill="#36543B"/><circle cx="426" cy="294" r="4.56" fill="#36543B"/><circle cx="54" cy="306" r="4.56" fill="#36543B"/><circle cx="66" cy="306" r="4.56" fill="#36543B"/><circle cx="78" cy="306" r="4.56" fill="#36543B"/><circle cx="90" cy="306" r="4.56" fill="#36543B"/><circle cx="114" cy="306" r="4.56" fill="#36543B"/><circle cx="174" cy="306" r="4.56" fill="#36543B"/><circle cx="198" cy="306" r="4.56" fill="#36543B"/><circle cx="210" cy="306" r="4.56" fill="#36543B"/><circle cx="270" cy="306" r="4.56" fill="#36543B"/><circle cx="354" cy="306" r="4.56" fill="#36543B"/><circle cx="378" cy="306" r="4.56" fill="#36543B"/><circle cx="390" cy="306" r="4.56" fill="#36543B"/><circle cx="402" cy="306" r="4.56" fill="#36543B"/><circle cx="414" cy="306" r="4.56" fill="#36543B"/><circle cx="426" cy="306" r="4.56" fill="#36543B"/><circle cx="54" cy="318" r="4.56" fill="#36543B"/><circle cx="78" cy="318" r="4.56" fill="#36543B"/><circle cx="90" cy="318" r="4.56" fill="#36543B"/><circle cx="102" cy="318" r="4.56" fill="#36543B"/><circle cx="114" cy="318" r="4.56" fill="#36543B"/><rect x="121.44" y="313.44" width="9.12" height="9.12" rx="2.4" fill="#36543B"/><circle cx="174" cy="318" r="4.56" fill="#36543B"/><circle cx="186" cy="318" r="4.56" fill="#36543B"/><circle cx="198" cy="318" r="4.56" fill="#36543B"/><circle cx="210" cy="318" r="4.56" fill="#36543B"/><circle cx="234" cy="318" r="4.56" fill="#36543B"/><circle cx="246" cy="318" r="4.56" fill="#36543B"/><circle cx="282" cy="318" r="4.56" fill="#36543B"/><circle cx="306" cy="318" r="4.56" fill="#36543B"/><circle cx="318" cy="318" r="4.56" fill="#36543B"/><circle cx="330" cy="318" r="4.56" fill="#36543B"/><circle cx="414" cy="318" r="4.56" fill="#36543B"/><circle cx="426" cy="318" r="4.56" fill="#36543B"/><circle cx="438" cy="318" r="4.56" fill="#36543B"/><circle cx="90" cy="330" r="4.56" fill="#36543B"/><circle cx="102" cy="330" r="4.56" fill="#36543B"/><circle cx="114" cy="330" r="4.56" fill="#36543B"/><circle cx="138" cy="330" r="4.56" fill="#36543B"/><circle cx="162" cy="330" r="4.56" fill="#36543B"/><circle cx="174" cy="330" r="4.56" fill="#36543B"/><circle cx="186" cy="330" r="4.56" fill="#36543B"/><circle cx="210" cy="330" r="4.56" fill="#36543B"/><circle cx="222" cy="330" r="4.56" fill="#36543B"/><circle cx="258" cy="330" r="4.56" fill="#36543B"/><circle cx="270" cy="330" r="4.56" fill="#36543B"/><circle cx="282" cy="330" r="4.56" fill="#36543B"/><circle cx="294" cy="330" r="4.56" fill="#36543B"/><circle cx="318" cy="330" r="4.56" fill="#36543B"/><circle cx="342" cy="330" r="4.56" fill="#36543B"/><circle cx="378" cy="330" r="4.56" fill="#36543B"/><circle cx="390" cy="330" r="4.56" fill="#36543B"/><circle cx="402" cy="330" r="4.56" fill="#36543B"/><circle cx="54" cy="342" r="4.56" fill="#36543B"/><circle cx="78" cy="342" r="4.56" fill="#36543B"/><rect x="121.44" y="337.44" width="9.12" height="9.12" rx="2.4" fill="#36543B"/><circle cx="138" cy="342" r="4.56" fill="#36543B"/><circle cx="150" cy="342" r="4.56" fill="#36543B"/><circle cx="174" cy="342" r="4.56" fill="#36543B"/><circle cx="186" cy="342" r="4.56" fill="#36543B"/><circle cx="198" cy="342" r="4.56" fill="#36543B"/><circle cx="210" cy="342" r="4.56" fill="#36543B"/><circle cx="234" cy="342" r="4.56" fill="#36543B"/><circle cx="294" cy="342" r="4.56" fill="#36543B"/><circle cx="318" cy="342" r="4.56" fill="#36543B"/><circle cx="414" cy="342" r="4.56" fill="#36543B"/><circle cx="426" cy="342" r="4.56" fill="#36543B"/><circle cx="438" cy="342" r="4.56" fill="#36543B"/><rect x="145.44" y="349.44" width="9.12" height="9.12" rx="2.4" fill="#36543B"/><circle cx="162" cy="354" r="4.56" fill="#36543B"/><circle cx="210" cy="354" r="4.56" fill="#36543B"/><circle cx="270" cy="354" r="4.56" fill="#36543B"/><circle cx="282" cy="354" r="4.56" fill="#36543B"/><circle cx="306" cy="354" r="4.56" fill="#36543B"/><circle cx="318" cy="354" r="4.56" fill="#36543B"/><circle cx="402" cy="354" r="4.56" fill="#36543B"/><circle cx="426" cy="354" r="4.56" fill="#36543B"/><circle cx="162" cy="366" r="4.56" fill="#36543B"/><circle cx="186" cy="366" r="4.56" fill="#36543B"/><circle cx="198" cy="366" r="4.56" fill="#36543B"/><circle cx="210" cy="366" r="4.56" fill="#36543B"/><circle cx="222" cy="366" r="4.56" fill="#36543B"/><circle cx="246" cy="366" r="4.56" fill="#36543B"/><circle cx="258" cy="366" r="4.56" fill="#36543B"/><circle cx="270" cy="366" r="4.56" fill="#36543B"/><circle cx="294" cy="366" r="4.56" fill="#36543B"/><circle cx="306" cy="366" r="4.56" fill="#36543B"/><circle cx="318" cy="366" r="4.56" fill="#36543B"/><circle cx="438" cy="366" r="4.56" fill="#36543B"/><rect x="145.44" y="373.44" width="9.12" height="9.12" rx="2.4" fill="#36543B"/><circle cx="162" cy="378" r="4.56" fill="#36543B"/><circle cx="174" cy="378" r="4.56" fill="#36543B"/><circle cx="186" cy="378" r="4.56" fill="#36543B"/><circle cx="198" cy="378" r="4.56" fill="#36543B"/><circle cx="210" cy="378" r="4.56" fill="#36543B"/><circle cx="234" cy="378" r="4.56" fill="#36543B"/><circle cx="246" cy="378" r="4.56" fill="#36543B"/><circle cx="258" cy="378" r="4.56" fill="#36543B"/><circle cx="270" cy="378" r="4.56" fill="#36543B"/><circle cx="294" cy="378" r="4.56" fill="#36543B"/><circle cx="306" cy="378" r="4.56" fill="#36543B"/><circle cx="330" cy="378" r="4.56" fill="#36543B"/><circle cx="402" cy="378" r="4.56" fill="#36543B"/><rect x="145.44" y="385.44" width="9.12" height="9.12" rx="2.4" fill="#36543B"/><circle cx="174" cy="390" r="4.56" fill="#36543B"/><circle cx="222" cy="390" r="4.56" fill="#36543B"/><circle cx="234" cy="390" r="4.56" fill="#36543B"/><circle cx="318" cy="390" r="4.56" fill="#36543B"/><circle cx="402" cy="390" r="4.56" fill="#36543B"/><circle cx="414" cy="390" r="4.56" fill="#36543B"/><circle cx="438" cy="390" r="4.56" fill="#36543B"/><rect x="145.44" y="397.44" width="9.12" height="9.12" rx="2.4" fill="#36543B"/><circle cx="162" cy="402" r="4.56" fill="#36543B"/><circle cx="186" cy="402" r="4.56" fill="#36543B"/><circle cx="198" cy="402" r="4.56" fill="#36543B"/><circle cx="210" cy="402" r="4.56" fill="#36543B"/><circle cx="246" cy="402" r="4.56" fill="#36543B"/><circle cx="270" cy="402" r="4.56" fill="#36543B"/><circle cx="282" cy="402" r="4.56" fill="#36543B"/><circle cx="318" cy="402" r="4.56" fill="#36543B"/><circle cx="330" cy="402" r="4.56" fill="#36543B"/><circle cx="342" cy="402" r="4.56" fill="#36543B"/><circle cx="378" cy="402" r="4.56" fill="#36543B"/><circle cx="402" cy="402" r="4.56" fill="#36543B"/><circle cx="426" cy="402" r="4.56" fill="#36543B"/><circle cx="438" cy="402" r="4.56" fill="#36543B"/><rect x="145.44" y="409.44" width="9.12" height="9.12" rx="2.4" fill="#36543B"/><circle cx="210" cy="414" r="4.56" fill="#36543B"/><circle cx="222" cy="414" r="4.56" fill="#36543B"/><circle cx="258" cy="414" r="4.56" fill="#36543B"/><circle cx="270" cy="414" r="4.56" fill="#36543B"/><circle cx="306" cy="414" r="4.56" fill="#36543B"/><circle cx="318" cy="414" r="4.56" fill="#36543B"/><circle cx="366" cy="414" r="4.56" fill="#36543B"/><circle cx="402" cy="414" r="4.56" fill="#36543B"/><rect x="145.44" y="421.44" width="9.12" height="9.12" rx="2.4" fill="#36543B"/><circle cx="234" cy="426" r="4.56" fill="#36543B"/><circle cx="282" cy="426" r="4.56" fill="#36543B"/><circle cx="342" cy="426" r="4.56" fill="#36543B"/><circle cx="354" cy="426" r="4.56" fill="#36543B"/><circle cx="378" cy="426" r="4.56" fill="#36543B"/><circle cx="402" cy="426" r="4.56" fill="#36543B"/><circle cx="414" cy="426" r="4.56" fill="#36543B"/><circle cx="162" cy="438" r="4.56" fill="#36543B"/><circle cx="174" cy="438" r="4.56" fill="#36543B"/><circle cx="198" cy="438" r="4.56" fill="#36543B"/><circle cx="210" cy="438" r="4.56" fill="#36543B"/><circle cx="222" cy="438" r="4.56" fill="#36543B"/><circle cx="234" cy="438" r="4.56" fill="#36543B"/><circle cx="258" cy="438" r="4.56" fill="#36543B"/><circle cx="270" cy="438" r="4.56" fill="#36543B"/><circle cx="282" cy="438" r="4.56" fill="#36543B"/><circle cx="306" cy="438" r="4.56" fill="#36543B"/><circle cx="318" cy="438" r="4.56" fill="#36543B"/><circle cx="330" cy="438" r="4.56" fill="#36543B"/><circle cx="342" cy="438" r="4.56" fill="#36543B"/><circle cx="354" cy="438" r="4.56" fill="#36543B"/><circle cx="366" cy="438" r="4.56" fill="#36543B"/><circle cx="378" cy="438" r="4.56" fill="#36543B"/><circle cx="414" cy="438" r="4.56" fill="#36543B"/><circle cx="438" cy="438" r="4.56" fill="#36543B"/><rect x="48" y="48" width="84" height="84" rx="18" fill="#C86D4B"/><rect x="60" y="60" width="60" height="60" rx="13.2" fill="#FFFAF2"/><rect x="72" y="72" width="36" height="36" rx="8.64" fill="#36543B"/><rect x="360" y="48" width="84" height="84" rx="18" fill="#C86D4B"/><rect x="372" y="60" width="60" height="60" rx="13.2" fill="#FFFAF2"/><rect x="384" y="72" width="36" height="36" rx="8.64" fill="#36543B"/><rect x="48" y="360" width="84" height="84" rx="18" fill="#C86D4B"/><rect x="60" y="372" width="60" height="60" rx="13.2" fill="#FFFAF2"/><rect x="72" y="384" width="36" height="36" rx="8.64" fill="#36543B"/><rect x="336" y="336" width="60" height="60" rx="12.6" fill="#36543B"/><rect x="348" y="348" width="36" height="36" rx="8.16" fill="#FFFAF2"/><rect x="360" y="360" width="12" height="12" rx="2.88" fill="#36543B"/></svg>