<svg xmlns="http://www.w3.org/2000/svg" width="4.5in" height="5.75in" viewBox="0 0 450 575" role="img" aria-labelledby="title desc">
  <title id="title">The Number Garden August Math Camp quarter-sheet flyer</title>
  <desc id="desc">Quarter-sheet flyer for August math camp sessions for ages 8 to 10 and ages 11 to 15.</desc>
  <defs>
    <linearGradient id="paper" x1="0" y1="0" x2="450" y2="575" gradientUnits="userSpaceOnUse">
      <stop offset="0" stop-color="#F8F0DD"/>
      <stop offset="0.58" stop-color="#FBF2E2"/>
      <stop offset="1" stop-color="#F0E4C9"/>
    </linearGradient>
    <radialGradient id="paper-overlay" cx="50%" cy="31%" r="72%">
      <stop offset="0" stop-color="#F4C96B" stop-opacity="0.15"/>
      <stop offset="0.58" stop-color="#DBE8D0" stop-opacity="0.12"/>
      <stop offset="1" stop-color="#FFFAF2" stop-opacity="0"/>
    </radialGradient>
    <pattern id="seed-grid" width="24" height="24" patternUnits="userSpaceOnUse">
      <circle cx="3" cy="3" r="0.85" fill="#6C8A53" opacity="0.11"/>
    </pattern>
    <filter id="soft-shadow" x="-20%" y="-20%" width="140%" height="140%">
      <feDropShadow dx="0" dy="5" stdDeviation="7" flood-color="#1F2A1F" flood-opacity="0.10"/>
    </filter>
  </defs>

  <rect width="450" height="575" fill="url(#paper)"/>
  <rect width="450" height="575" fill="url(#paper-overlay)"/>
  <rect width="450" height="575" fill="url(#seed-grid)" opacity="0.18"/>
  <circle cx="42" cy="68" r="118" fill="#F4C96B" opacity="0.10"/>
  <circle cx="424" cy="520" r="158" fill="#DBE8D0" opacity="0.34"/>

<g transform="translate(322 39) scale(0.39)">
      <circle cx="99.00" cy="99.00" r="13.1" fill="#36543b" />
      <circle cx="111.58" cy="81.69" r="13.1" fill="#dbe8d0" />
      <circle cx="119.35" cy="105.61" r="13.1" fill="#dbe8d0" />
      <circle cx="99.00" cy="120.40" r="13.1" fill="#dbe8d0" />
      <circle cx="78.65" cy="105.61" r="13.1" fill="#dbe8d0" />
      <circle cx="86.42" cy="81.69" r="13.1" fill="#dbe8d0" />
      <circle cx="99.00" cy="64.00" r="13.1" fill="#dbe8d0" />
      <circle cx="115.64" cy="76.09" r="13.1" fill="#dbe8d0" />
      <circle cx="132.29" cy="88.18" r="13.1" fill="#dbe8d0" />
      <circle cx="125.93" cy="107.75" r="13.1" fill="#dbe8d0" />
      <circle cx="119.57" cy="127.32" r="13.1" fill="#dbe8d0" />
      <circle cx="99.00" cy="127.32" r="13.1" fill="#dbe8d0" />
      <circle cx="78.43" cy="127.32" r="13.1" fill="#dbe8d0" />
      <circle cx="72.07" cy="107.75" r="13.1" fill="#dbe8d0" />
      <circle cx="65.71" cy="88.18" r="13.1" fill="#dbe8d0" />
      <circle cx="82.36" cy="76.09" r="13.1" fill="#dbe8d0" />
      <circle cx="70.43" cy="59.68" r="13.8" fill="#6c8a53" />
      <circle cx="89.48" cy="59.68" r="13.8" fill="#6c8a53" />
      <circle cx="108.52" cy="59.68" r="13.8" fill="#6c8a53" />
      <circle cx="127.57" cy="59.68" r="13.8" fill="#6c8a53" />
      <circle cx="133.45" cy="77.79" r="13.8" fill="#6c8a53" />
      <circle cx="139.34" cy="95.91" r="13.8" fill="#6c8a53" />
      <circle cx="145.22" cy="114.02" r="13.8" fill="#6c8a53" />
      <circle cx="129.81" cy="125.21" r="13.8" fill="#6c8a53" />
      <circle cx="114.41" cy="136.41" r="13.8" fill="#6c8a53" />
      <circle cx="99.00" cy="147.60" r="13.8" fill="#6c8a53" />
      <circle cx="83.59" cy="136.41" r="13.8" fill="#6c8a53" />
      <circle cx="68.19" cy="125.21" r="13.8" fill="#6c8a53" />
      <circle cx="52.78" cy="114.02" r="13.8" fill="#6c8a53" />
      <circle cx="58.66" cy="95.91" r="13.8" fill="#6c8a53" />
      <circle cx="64.55" cy="77.79" r="13.8" fill="#6c8a53" />
      <circle cx="40.80" cy="80.09" r="12.2" fill="#36543b" />
      <circle cx="55.35" cy="69.52" r="12.2" fill="#36543b" />
      <circle cx="69.90" cy="58.94" r="12.2" fill="#36543b" />
      <circle cx="84.45" cy="48.37" r="12.2" fill="#36543b" />
      <circle cx="99.00" cy="37.80" r="12.2" fill="#36543b" />
      <circle cx="113.55" cy="48.37" r="12.2" fill="#36543b" />
      <circle cx="128.10" cy="58.94" r="12.2" fill="#36543b" />
      <circle cx="142.65" cy="69.52" r="12.2" fill="#36543b" />
      <circle cx="157.20" cy="80.09" r="12.2" fill="#36543b" />
      <circle cx="151.65" cy="97.19" r="12.2" fill="#36543b" />
      <circle cx="146.09" cy="114.30" r="12.2" fill="#36543b" />
      <circle cx="140.53" cy="131.41" r="12.2" fill="#36543b" />
      <circle cx="134.97" cy="148.51" r="12.2" fill="#36543b" />
      <circle cx="116.99" cy="148.51" r="12.2" fill="#36543b" />
      <circle cx="99.00" cy="148.51" r="12.2" fill="#36543b" />
      <circle cx="81.01" cy="148.51" r="12.2" fill="#36543b" />
      <circle cx="63.03" cy="148.51" r="12.2" fill="#36543b" />
      <circle cx="57.47" cy="131.41" r="12.2" fill="#36543b" />
      <circle cx="51.91" cy="114.30" r="12.2" fill="#36543b" />
      <circle cx="46.35" cy="97.19" r="12.2" fill="#36543b" />
    </g>

  <g font-family="Avenir Next, Helvetica, Arial, sans-serif">
    <text x="42" y="61" fill="#C86D4B" font-size="12" font-weight="800" letter-spacing="2.1">AUGUST 10-14, 2026</text>
    <text x="42" y="113" fill="#1F2A1F" font-family="Georgia, 'Times New Roman', serif" font-size="44" font-weight="700">Math Camp</text>
    <text x="42" y="153" fill="#1F2A1F" font-family="Georgia, 'Times New Roman', serif" font-size="31" font-weight="700">Games &amp; Puzzles</text>
    <text x="42" y="187" fill="#536151" font-size="15" font-weight="650">A small Portland camp for curious kids who like</text>
    <text x="42" y="207" fill="#536151" font-size="15" font-weight="650">strategy, patterns, beautiful questions, and play.</text>

    <g filter="url(#soft-shadow)">
      <rect x="42" y="239" width="366" height="82" rx="12" fill="#FFFAF2" fill-opacity="0.84"/>
      <rect x="42" y="337" width="366" height="82" rx="12" fill="#FFFAF2" fill-opacity="0.84"/>
    </g>

    <circle cx="66" cy="268" r="5.5" fill="#C86D4B"/>
    <path d="M82 268H155" stroke="#6C8A53" stroke-width="3" stroke-linecap="round" opacity="0.62"/>
    <circle cx="171" cy="268" r="5.5" fill="#F4C96B"/>
    <text x="66" y="293" fill="#1F2A1F" font-size="21" font-weight="800">Ages 8 to 10</text>
    <text x="66" y="311" fill="#36543B" font-size="13.5" font-weight="750">9-11am, Monday-Friday</text>

    <circle cx="66" cy="366" r="5.5" fill="#C86D4B"/>
    <path d="M82 366H155" stroke="#6C8A53" stroke-width="3" stroke-linecap="round" opacity="0.62"/>
    <circle cx="171" cy="366" r="5.5" fill="#F4C96B"/>
    <text x="66" y="391" fill="#1F2A1F" font-size="21" font-weight="800">Ages 11 to 15</text>
    <text x="66" y="409" fill="#36543B" font-size="13.5" font-weight="750">1-3:30pm, Monday-Friday</text>

    <text x="42" y="458" fill="#1F2A1F" font-size="16" font-weight="800">The Number Garden</text>
    <text x="42" y="480" fill="#536151" font-size="13.5" font-weight="650">Hollywood District</text>
    <text x="42" y="502" fill="#536151" font-size="13.5" font-weight="650">thenumbergarden.com</text>

    <text x="302" y="433" fill="#36543B" font-size="12.5" font-weight="800">Scan to register</text>
  </g>

<g transform="translate(302 445) scale(0.1991869918699187) translate(-48 -48)">
        <defs><linearGradient id="seedbed-bg" x1="0%" y1="0%" x2="100%" y2="100%"><stop offset="0%" stop-color="#FDF8EF"/><stop offset="100%" stop-color="#FFFAF2"/></linearGradient></defs><circle cx="162" cy="54" r="4.56" fill="#36543B"/><circle cx="198" cy="54" r="4.56" fill="#36543B"/><circle cx="270" cy="54" r="4.56" fill="#36543B"/><circle cx="294" cy="54" r="4.56" fill="#36543B"/><circle cx="390" cy="54" r="4.56" fill="#36543B"/><circle cx="402" cy="54" r="4.56" fill="#36543B"/><circle cx="414" cy="54" r="4.56" fill="#36543B"/><circle cx="426" cy="54" r="4.56" fill="#36543B"/><circle cx="438" cy="54" r="4.56" fill="#36543B"/><circle cx="162" cy="66" r="4.56" fill="#36543B"/><circle cx="186" cy="66" r="4.56" fill="#36543B"/><circle cx="198" cy="66" r="4.56" fill="#36543B"/><circle cx="222" cy="66" r="4.56" fill="#36543B"/><circle cx="234" cy="66" r="4.56" fill="#36543B"/><circle cx="246" cy="66" r="4.56" fill="#36543B"/><circle cx="270" cy="66" r="4.56" fill="#36543B"/><circle cx="282" cy="66" r="4.56" fill="#36543B"/><circle cx="294" cy="66" r="4.56" fill="#36543B"/><circle cx="318" cy="66" r="4.56" fill="#36543B"/><circle cx="330" cy="66" r="4.56" fill="#36543B"/><circle cx="354" cy="66" r="4.56" fill="#36543B"/><circle cx="378" cy="66" r="4.56" fill="#36543B"/><circle cx="402" cy="66" r="4.56" fill="#36543B"/><circle cx="414" cy="66" r="4.56" fill="#36543B"/><circle cx="162" cy="78" r="4.56" fill="#36543B"/><circle cx="186" cy="78" r="4.56" fill="#36543B"/><circle cx="198" cy="78" r="4.56" fill="#36543B"/><circle cx="222" cy="78" r="4.56" fill="#36543B"/><circle cx="246" cy="78" r="4.56" fill="#36543B"/><circle cx="270" cy="78" r="4.56" fill="#36543B"/><circle cx="294" cy="78" r="4.56" fill="#36543B"/><circle cx="318" cy="78" r="4.56" fill="#36543B"/><circle cx="330" cy="78" r="4.56" fill="#36543B"/><circle cx="342" cy="78" r="4.56" fill="#36543B"/><circle cx="378" cy="78" r="4.56" fill="#36543B"/><circle cx="402" cy="78" r="4.56" fill="#36543B"/><circle cx="426" cy="78" r="4.56" fill="#36543B"/><circle cx="438" cy="78" r="4.56" fill="#36543B"/><circle cx="186" cy="90" r="4.56" fill="#36543B"/><circle cx="210" cy="90" r="4.56" fill="#36543B"/><circle cx="234" cy="90" r="4.56" fill="#36543B"/><circle cx="270" cy="90" r="4.56" fill="#36543B"/><circle cx="282" cy="90" r="4.56" fill="#36543B"/><circle cx="330" cy="90" r="4.56" fill="#36543B"/><circle cx="354" cy="90" r="4.56" fill="#36543B"/><circle cx="378" cy="90" r="4.56" fill="#36543B"/><circle cx="402" cy="90" r="4.56" fill="#36543B"/><circle cx="414" cy="90" r="4.56" fill="#36543B"/><circle cx="162" cy="102" r="4.56" fill="#36543B"/><circle cx="174" cy="102" r="4.56" fill="#36543B"/><circle cx="186" cy="102" r="4.56" fill="#36543B"/><circle cx="198" cy="102" r="4.56" fill="#36543B"/><circle cx="210" cy="102" r="4.56" fill="#36543B"/><circle cx="222" cy="102" r="4.56" fill="#36543B"/><circle cx="234" cy="102" r="4.56" fill="#36543B"/><circle cx="282" cy="102" r="4.56" fill="#36543B"/><circle cx="294" cy="102" r="4.56" fill="#36543B"/><circle cx="306" cy="102" r="4.56" fill="#36543B"/><circle cx="318" cy="102" r="4.56" fill="#36543B"/><circle cx="354" cy="102" r="4.56" fill="#36543B"/><circle cx="378" cy="102" r="4.56" fill="#36543B"/><circle cx="402" cy="102" r="4.56" fill="#36543B"/><circle cx="414" cy="102" r="4.56" fill="#36543B"/><circle cx="426" cy="102" r="4.56" fill="#36543B"/><rect x="145.44" y="109.44" width="9.12" height="9.12" rx="2.4" fill="#36543B"/><circle cx="162" cy="114" r="4.56" fill="#36543B"/><circle cx="186" cy="114" r="4.56" fill="#36543B"/><circle cx="234" cy="114" r="4.56" fill="#36543B"/><circle cx="282" cy="114" r="4.56" fill="#36543B"/><circle cx="318" cy="114" r="4.56" fill="#36543B"/><circle cx="330" cy="114" r="4.56" fill="#36543B"/><circle cx="342" cy="114" r="4.56" fill="#36543B"/><circle cx="354" cy="114" r="4.56" fill="#36543B"/><circle cx="378" cy="114" r="4.56" fill="#36543B"/><circle cx="390" cy="114" r="4.56" fill="#36543B"/><circle cx="414" cy="114" r="4.56" fill="#36543B"/><rect x="145.44" y="121.44" width="9.12" height="9.12" rx="2.4" fill="#36543B"/><rect x="169.44" y="121.44" width="9.12" height="9.12" rx="2.4" fill="#36543B"/><rect x="193.44" y="121.44" width="9.12" height="9.12" rx="2.4" fill="#36543B"/><rect x="217.44" y="121.44" width="9.12" height="9.12" rx="2.4" fill="#36543B"/><rect x="241.44" y="121.44" width="9.12" height="9.12" rx="2.4" fill="#36543B"/><rect x="265.44" y="121.44" width="9.12" height="9.12" rx="2.4" fill="#36543B"/><rect x="289.44" y="121.44" width="9.12" height="9.12" rx="2.4" fill="#36543B"/><rect x="313.44" y="121.44" width="9.12" height="9.12" rx="2.4" fill="#36543B"/><rect x="337.44" y="121.44" width="9.12" height="9.12" rx="2.4" fill="#36543B"/><rect x="361.44" y="121.44" width="9.12" height="9.12" rx="2.4" fill="#36543B"/><rect x="385.44" y="121.44" width="9.12" height="9.12" rx="2.4" fill="#36543B"/><rect x="409.44" y="121.44" width="9.12" height="9.12" rx="2.4" fill="#36543B"/><rect x="433.44" y="121.44" width="9.12" height="9.12" rx="2.4" fill="#36543B"/><circle cx="162" cy="138" r="4.56" fill="#36543B"/><circle cx="174" cy="138" r="4.56" fill="#36543B"/><circle cx="186" cy="138" r="4.56" fill="#36543B"/><circle cx="198" cy="138" r="4.56" fill="#36543B"/><circle cx="222" cy="138" r="4.56" fill="#36543B"/><circle cx="258" cy="138" r="4.56" fill="#36543B"/><circle cx="270" cy="138" r="4.56" fill="#36543B"/><circle cx="282" cy="138" r="4.56" fill="#36543B"/><circle cx="294" cy="138" r="4.56" fill="#36543B"/><circle cx="318" cy="138" r="4.56" fill="#36543B"/><circle cx="366" cy="138" r="4.56" fill="#36543B"/><circle cx="390" cy="138" r="4.56" fill="#36543B"/><circle cx="426" cy="138" r="4.56" fill="#36543B"/><circle cx="438" cy="138" r="4.56" fill="#36543B"/><rect x="49.44" y="145.44" width="9.12" height="9.12" rx="2.4" fill="#36543B"/><rect x="73.44" y="145.44" width="9.12" height="9.12" rx="2.4" fill="#36543B"/><rect x="97.44" y="145.44" width="9.12" height="9.12" rx="2.4" fill="#36543B"/><rect x="121.44" y="145.44" width="9.12" height="9.12" rx="2.4" fill="#36543B"/><rect x="133.44" y="145.44" width="9.12" height="9.12" rx="2.4" fill="#36543B"/><circle cx="186" cy="150" r="4.56" fill="#36543B"/><circle cx="198" cy="150" r="4.56" fill="#36543B"/><circle cx="270" cy="150" r="4.56" fill="#36543B"/><circle cx="306" cy="150" r="4.56" fill="#36543B"/><circle cx="354" cy="150" r="4.56" fill="#36543B"/><circle cx="378" cy="150" r="4.56" fill="#36543B"/><circle cx="390" cy="150" r="4.56" fill="#36543B"/><circle cx="402" cy="150" r="4.56" fill="#36543B"/><circle cx="438" cy="150" r="4.56" fill="#36543B"/><rect x="445.44" y="145.44" width="9.12" height="9.12" rx="2.4" fill="#36543B"/><rect x="469.44" y="145.44" width="9.12" height="9.12" rx="2.4" fill="#36543B"/><circle cx="54" cy="162" r="4.56" fill="#36543B"/><circle cx="66" cy="162" r="4.56" fill="#36543B"/><circle cx="114" cy="162" r="4.56" fill="#36543B"/><circle cx="162" cy="162" r="4.56" fill="#36543B"/><circle cx="174" cy="162" r="4.56" fill="#36543B"/><circle cx="210" cy="162" r="4.56" fill="#36543B"/><circle cx="234" cy="162" r="4.56" fill="#36543B"/><circle cx="258" cy="162" r="4.56" fill="#36543B"/><circle cx="282" cy="162" r="4.56" fill="#36543B"/><circle cx="294" cy="162" r="4.56" fill="#36543B"/><circle cx="330" cy="162" r="4.56" fill="#36543B"/><circle cx="354" cy="162" r="4.56" fill="#36543B"/><circle cx="378" cy="162" r="4.56" fill="#36543B"/><circle cx="390" cy="162" r="4.56" fill="#36543B"/><circle cx="414" cy="162" r="4.56" fill="#36543B"/><circle cx="426" cy="162" r="4.56" fill="#36543B"/><circle cx="438" cy="162" r="4.56" fill="#36543B"/><circle cx="450" cy="162" r="4.56" fill="#36543B"/><circle cx="498" cy="162" r="4.56" fill="#36543B"/><circle cx="522" cy="162" r="4.56" fill="#36543B"/><circle cx="534" cy="162" r="4.56" fill="#36543B"/><circle cx="90" cy="174" r="4.56" fill="#36543B"/><circle cx="102" cy="174" r="4.56" fill="#36543B"/><circle cx="114" cy="174" r="4.56" fill="#36543B"/><rect x="121.44" y="169.44" width="9.12" height="9.12" rx="2.4" fill="#36543B"/><circle cx="162" cy="174" r="4.56" fill="#36543B"/><circle cx="186" cy="174" r="4.56" fill="#36543B"/><circle cx="198" cy="174" r="4.56" fill="#36543B"/><circle cx="246" cy="174" r="4.56" fill="#36543B"/><circle cx="258" cy="174" r="4.56" fill="#36543B"/><circle cx="270" cy="174" r="4.56" fill="#36543B"/><circle cx="282" cy="174" r="4.56" fill="#36543B"/><circle cx="294" cy="174" r="4.56" fill="#36543B"/><circle cx="342" cy="174" r="4.56" fill="#36543B"/><circle cx="354" cy="174" r="4.56" fill="#36543B"/><circle cx="366" cy="174" r="4.56" fill="#36543B"/><circle cx="378" cy="174" r="4.56" fill="#36543B"/><circle cx="390" cy="174" r="4.56" fill="#36543B"/><circle cx="414" cy="174" r="4.56" fill="#36543B"/><circle cx="426" cy="174" r="4.56" fill="#36543B"/><circle cx="438" cy="174" r="4.56" fill="#36543B"/><circle cx="450" cy="174" r="4.56" fill="#36543B"/><circle cx="462" cy="174" r="4.56" fill="#36543B"/><circle cx="474" cy="174" r="4.56" fill="#36543B"/><circle cx="510" cy="174" r="4.56" fill="#36543B"/><circle cx="522" cy="174" r="4.56" fill="#36543B"/><circle cx="534" cy="174" r="4.56" fill="#36543B"/><circle cx="90" cy="186" r="4.56" fill="#36543B"/><circle cx="102" cy="186" r="4.56" fill="#36543B"/><circle cx="114" cy="186" r="4.56" fill="#36543B"/><circle cx="150" cy="186" r="4.56" fill="#36543B"/><circle cx="174" cy="186" r="4.56" fill="#36543B"/><circle cx="186" cy="186" r="4.56" fill="#36543B"/><circle cx="210" cy="186" r="4.56" fill="#36543B"/><circle cx="258" cy="186" r="4.56" fill="#36543B"/><circle cx="282" cy="186" r="4.56" fill="#36543B"/><circle cx="318" cy="186" r="4.56" fill="#36543B"/><circle cx="330" cy="186" r="4.56" fill="#36543B"/><circle cx="342" cy="186" r="4.56" fill="#36543B"/><circle cx="354" cy="186" r="4.56" fill="#36543B"/><circle cx="414" cy="186" r="4.56" fill="#36543B"/><circle cx="462" cy="186" r="4.56" fill="#36543B"/><circle cx="486" cy="186" r="4.56" fill="#36543B"/><circle cx="498" cy="186" r="4.56" fill="#36543B"/><circle cx="510" cy="186" r="4.56" fill="#36543B"/><circle cx="534" cy="186" r="4.56" fill="#36543B"/><circle cx="66" cy="198" r="4.56" fill="#36543B"/><circle cx="114" cy="198" r="4.56" fill="#36543B"/><rect x="121.44" y="193.44" width="9.12" height="9.12" rx="2.4" fill="#36543B"/><circle cx="138" cy="198" r="4.56" fill="#36543B"/><circle cx="174" cy="198" r="4.56" fill="#36543B"/><circle cx="186" cy="198" r="4.56" fill="#36543B"/><circle cx="198" cy="198" r="4.56" fill="#36543B"/><circle cx="222" cy="198" r="4.56" fill="#36543B"/><circle cx="234" cy="198" r="4.56" fill="#36543B"/><circle cx="270" cy="198" r="4.56" fill="#36543B"/><circle cx="294" cy="198" r="4.56" fill="#36543B"/><circle cx="306" cy="198" r="4.56" fill="#36543B"/><circle cx="318" cy="198" r="4.56" fill="#36543B"/><circle cx="330" cy="198" r="4.56" fill="#36543B"/><circle cx="414" cy="198" r="4.56" fill="#36543B"/><circle cx="438" cy="198" r="4.56" fill="#36543B"/><circle cx="462" cy="198" r="4.56" fill="#36543B"/><circle cx="498" cy="198" r="4.56" fill="#36543B"/><circle cx="522" cy="198" r="4.56" fill="#36543B"/><circle cx="66" cy="210" r="4.56" fill="#36543B"/><circle cx="150" cy="210" r="4.56" fill="#36543B"/><circle cx="162" cy="210" r="4.56" fill="#36543B"/><circle cx="174" cy="210" r="4.56" fill="#36543B"/><circle cx="222" cy="210" r="4.56" fill="#36543B"/><circle cx="246" cy="210" r="4.56" fill="#36543B"/><circle cx="282" cy="210" r="4.56" fill="#36543B"/><circle cx="342" cy="210" r="4.56" fill="#36543B"/><circle cx="354" cy="210" r="4.56" fill="#36543B"/><circle cx="366" cy="210" r="4.56" fill="#36543B"/><circle cx="390" cy="210" r="4.56" fill="#36543B"/><circle cx="402" cy="210" r="4.56" fill="#36543B"/><circle cx="426" cy="210" r="4.56" fill="#36543B"/><circle cx="438" cy="210" r="4.56" fill="#36543B"/><circle cx="474" cy="210" r="4.56" fill="#36543B"/><circle cx="486" cy="210" r="4.56" fill="#36543B"/><circle cx="534" cy="210" r="4.56" fill="#36543B"/><circle cx="54" cy="222" r="4.56" fill="#36543B"/><circle cx="90" cy="222" r="4.56" fill="#36543B"/><circle cx="102" cy="222" r="4.56" fill="#36543B"/><circle cx="114" cy="222" r="4.56" fill="#36543B"/><rect x="121.44" y="217.44" width="9.12" height="9.12" rx="2.4" fill="#36543B"/><circle cx="138" cy="222" r="4.56" fill="#36543B"/><circle cx="162" cy="222" r="4.56" fill="#36543B"/><circle cx="186" cy="222" r="4.56" fill="#36543B"/><circle cx="198" cy="222" r="4.56" fill="#36543B"/><circle cx="210" cy="222" r="4.56" fill="#36543B"/><circle cx="222" cy="222" r="4.56" fill="#36543B"/><circle cx="234" cy="222" r="4.56" fill="#36543B"/><circle cx="282" cy="222" r="4.56" fill="#36543B"/><circle cx="306" cy="222" r="4.56" fill="#36543B"/><circle cx="318" cy="222" r="4.56" fill="#36543B"/><circle cx="330" cy="222" r="4.56" fill="#36543B"/><circle cx="402" cy="222" r="4.56" fill="#36543B"/><circle cx="462" cy="222" r="4.56" fill="#36543B"/><circle cx="474" cy="222" r="4.56" fill="#36543B"/><circle cx="498" cy="222" r="4.56" fill="#36543B"/><circle cx="522" cy="222" r="4.56" fill="#36543B"/><circle cx="90" cy="234" r="4.56" fill="#36543B"/><circle cx="102" cy="234" r="4.56" fill="#36543B"/><circle cx="114" cy="234" r="4.56" fill="#36543B"/><circle cx="138" cy="234" r="4.56" fill="#36543B"/><circle cx="174" cy="234" r="4.56" fill="#36543B"/><circle cx="186" cy="234" r="4.56" fill="#36543B"/><circle cx="210" cy="234" r="4.56" fill="#36543B"/><circle cx="234" cy="234" r="4.56" fill="#36543B"/><circle cx="246" cy="234" r="4.56" fill="#36543B"/><circle cx="270" cy="234" r="4.56" fill="#36543B"/><circle cx="294" cy="234" r="4.56" fill="#36543B"/><circle cx="306" cy="234" r="4.56" fill="#36543B"/><circle cx="318" cy="234" r="4.56" fill="#36543B"/><circle cx="378" cy="234" r="4.56" fill="#36543B"/><circle cx="414" cy="234" r="4.56" fill="#36543B"/><circle cx="438" cy="234" r="4.56" fill="#36543B"/><circle cx="474" cy="234" r="4.56" fill="#36543B"/><circle cx="510" cy="234" r="4.56" fill="#36543B"/><circle cx="534" cy="234" r="4.56" fill="#36543B"/><circle cx="54" cy="246" r="4.56" fill="#36543B"/><circle cx="90" cy="246" r="4.56" fill="#36543B"/><circle cx="102" cy="246" r="4.56" fill="#36543B"/><circle cx="114" cy="246" r="4.56" fill="#36543B"/><rect x="121.44" y="241.44" width="9.12" height="9.12" rx="2.4" fill="#36543B"/><circle cx="138" cy="246" r="4.56" fill="#36543B"/><circle cx="186" cy="246" r="4.56" fill="#36543B"/><circle cx="234" cy="246" r="4.56" fill="#36543B"/><circle cx="246" cy="246" r="4.56" fill="#36543B"/><circle cx="282" cy="246" r="4.56" fill="#36543B"/><circle cx="306" cy="246" r="4.56" fill="#36543B"/><circle cx="354" cy="246" r="4.56" fill="#36543B"/><circle cx="366" cy="246" r="4.56" fill="#36543B"/><circle cx="402" cy="246" r="4.56" fill="#36543B"/><circle cx="426" cy="246" r="4.56" fill="#36543B"/><circle cx="450" cy="246" r="4.56" fill="#36543B"/><circle cx="486" cy="246" r="4.56" fill="#36543B"/><circle cx="498" cy="246" r="4.56" fill="#36543B"/><circle cx="510" cy="246" r="4.56" fill="#36543B"/><circle cx="66" cy="258" r="4.56" fill="#36543B"/><circle cx="78" cy="258" r="4.56" fill="#36543B"/><circle cx="90" cy="258" r="4.56" fill="#36543B"/><circle cx="102" cy="258" r="4.56" fill="#36543B"/><circle cx="174" cy="258" r="4.56" fill="#36543B"/><circle cx="186" cy="258" r="4.56" fill="#36543B"/><circle cx="198" cy="258" r="4.56" fill="#36543B"/><circle cx="246" cy="258" r="4.56" fill="#36543B"/><circle cx="258" cy="258" r="4.56" fill="#36543B"/><circle cx="306" cy="258" r="4.56" fill="#36543B"/><circle cx="318" cy="258" r="4.56" fill="#36543B"/><circle cx="330" cy="258" r="4.56" fill="#36543B"/><circle cx="342" cy="258" r="4.56" fill="#36543B"/><circle cx="378" cy="258" r="4.56" fill="#36543B"/><circle cx="426" cy="258" r="4.56" fill="#36543B"/><circle cx="438" cy="258" r="4.56" fill="#36543B"/><circle cx="462" cy="258" r="4.56" fill="#36543B"/><circle cx="474" cy="258" r="4.56" fill="#36543B"/><circle cx="534" cy="258" r="4.56" fill="#36543B"/><circle cx="66" cy="270" r="4.56" fill="#36543B"/><circle cx="102" cy="270" r="4.56" fill="#36543B"/><rect x="121.44" y="265.44" width="9.12" height="9.12" rx="2.4" fill="#36543B"/><circle cx="138" cy="270" r="4.56" fill="#36543B"/><circle cx="150" cy="270" r="4.56" fill="#36543B"/><circle cx="186" cy="270" r="4.56" fill="#36543B"/><circle cx="198" cy="270" r="4.56" fill="#36543B"/><circle cx="210" cy="270" r="4.56" fill="#36543B"/><circle cx="234" cy="270" r="4.56" fill="#36543B"/><circle cx="246" cy="270" r="4.56" fill="#36543B"/><circle cx="294" cy="270" r="4.56" fill="#36543B"/><circle cx="306" cy="270" r="4.56" fill="#36543B"/><circle cx="342" cy="270" r="4.56" fill="#36543B"/><circle cx="366" cy="270" r="4.56" fill="#36543B"/><circle cx="390" cy="270" r="4.56" fill="#36543B"/><circle cx="438" cy="270" r="4.56" fill="#36543B"/><circle cx="450" cy="270" r="4.56" fill="#36543B"/><circle cx="462" cy="270" r="4.56" fill="#36543B"/><circle cx="498" cy="270" r="4.56" fill="#36543B"/><circle cx="534" cy="270" r="4.56" fill="#36543B"/><circle cx="66" cy="282" r="4.56" fill="#36543B"/><circle cx="174" cy="282" r="4.56" fill="#36543B"/><circle cx="186" cy="282" r="4.56" fill="#36543B"/><circle cx="210" cy="282" r="4.56" fill="#36543B"/><circle cx="270" cy="282" r="4.56" fill="#36543B"/><circle cx="282" cy="282" r="4.56" fill="#36543B"/><circle cx="294" cy="282" r="4.56" fill="#36543B"/><circle cx="306" cy="282" r="4.56" fill="#36543B"/><circle cx="354" cy="282" r="4.56" fill="#36543B"/><circle cx="378" cy="282" r="4.56" fill="#36543B"/><circle cx="402" cy="282" r="4.56" fill="#36543B"/><circle cx="414" cy="282" r="4.56" fill="#36543B"/><circle cx="426" cy="282" r="4.56" fill="#36543B"/><circle cx="438" cy="282" r="4.56" fill="#36543B"/><circle cx="462" cy="282" r="4.56" fill="#36543B"/><circle cx="486" cy="282" r="4.56" fill="#36543B"/><circle cx="522" cy="282" r="4.56" fill="#36543B"/><circle cx="534" cy="282" r="4.56" fill="#36543B"/><circle cx="54" cy="294" r="4.56" fill="#36543B"/><circle cx="66" cy="294" r="4.56" fill="#36543B"/><circle cx="90" cy="294" r="4.56" fill="#36543B"/><rect x="121.44" y="289.44" width="9.12" height="9.12" rx="2.4" fill="#36543B"/><circle cx="174" cy="294" r="4.56" fill="#36543B"/><circle cx="246" cy="294" r="4.56" fill="#36543B"/><circle cx="270" cy="294" r="4.56" fill="#36543B"/><circle cx="282" cy="294" r="4.56" fill="#36543B"/><circle cx="306" cy="294" r="4.56" fill="#36543B"/><circle cx="354" cy="294" r="4.56" fill="#36543B"/><circle cx="378" cy="294" r="4.56" fill="#36543B"/><circle cx="414" cy="294" r="4.56" fill="#36543B"/><circle cx="426" cy="294" r="4.56" fill="#36543B"/><circle cx="438" cy="294" r="4.56" fill="#36543B"/><circle cx="450" cy="294" r="4.56" fill="#36543B"/><circle cx="498" cy="294" r="4.56" fill="#36543B"/><circle cx="522" cy="294" r="4.56" fill="#36543B"/><circle cx="54" cy="306" r="4.56" fill="#36543B"/><circle cx="114" cy="306" r="4.56" fill="#36543B"/><circle cx="138" cy="306" r="4.56" fill="#36543B"/><circle cx="162" cy="306" r="4.56" fill="#36543B"/><circle cx="174" cy="306" r="4.56" fill="#36543B"/><circle cx="210" cy="306" r="4.56" fill="#36543B"/><circle cx="222" cy="306" r="4.56" fill="#36543B"/><circle cx="234" cy="306" r="4.56" fill="#36543B"/><circle cx="246" cy="306" r="4.56" fill="#36543B"/><circle cx="258" cy="306" r="4.56" fill="#36543B"/><circle cx="270" cy="306" r="4.56" fill="#36543B"/><circle cx="282" cy="306" r="4.56" fill="#36543B"/><circle cx="294" cy="306" r="4.56" fill="#36543B"/><circle cx="306" cy="306" r="4.56" fill="#36543B"/><circle cx="354" cy="306" r="4.56" fill="#36543B"/><circle cx="402" cy="306" r="4.56" fill="#36543B"/><circle cx="414" cy="306" r="4.56" fill="#36543B"/><circle cx="462" cy="306" r="4.56" fill="#36543B"/><circle cx="498" cy="306" r="4.56" fill="#36543B"/><circle cx="510" cy="306" r="4.56" fill="#36543B"/><circle cx="534" cy="306" r="4.56" fill="#36543B"/><circle cx="90" cy="318" r="4.56" fill="#36543B"/><circle cx="114" cy="318" r="4.56" fill="#36543B"/><rect x="121.44" y="313.44" width="9.12" height="9.12" rx="2.4" fill="#36543B"/><circle cx="138" cy="318" r="4.56" fill="#36543B"/><circle cx="150" cy="318" r="4.56" fill="#36543B"/><circle cx="174" cy="318" r="4.56" fill="#36543B"/><circle cx="198" cy="318" r="4.56" fill="#36543B"/><circle cx="222" cy="318" r="4.56" fill="#36543B"/><circle cx="234" cy="318" r="4.56" fill="#36543B"/><circle cx="246" cy="318" r="4.56" fill="#36543B"/><circle cx="258" cy="318" r="4.56" fill="#36543B"/><circle cx="282" cy="318" r="4.56" fill="#36543B"/><circle cx="318" cy="318" r="4.56" fill="#36543B"/><circle cx="330" cy="318" r="4.56" fill="#36543B"/><circle cx="342" cy="318" r="4.56" fill="#36543B"/><circle cx="354" cy="318" r="4.56" fill="#36543B"/><circle cx="378" cy="318" r="4.56" fill="#36543B"/><circle cx="390" cy="318" r="4.56" fill="#36543B"/><circle cx="402" cy="318" r="4.56" fill="#36543B"/><circle cx="426" cy="318" r="4.56" fill="#36543B"/><circle cx="438" cy="318" r="4.56" fill="#36543B"/><circle cx="462" cy="318" r="4.56" fill="#36543B"/><circle cx="486" cy="318" r="4.56" fill="#36543B"/><circle cx="498" cy="318" r="4.56" fill="#36543B"/><circle cx="522" cy="318" r="4.56" fill="#36543B"/><circle cx="534" cy="318" r="4.56" fill="#36543B"/><circle cx="66" cy="330" r="4.56" fill="#36543B"/><circle cx="102" cy="330" r="4.56" fill="#36543B"/><circle cx="150" cy="330" r="4.56" fill="#36543B"/><circle cx="210" cy="330" r="4.56" fill="#36543B"/><circle cx="258" cy="330" r="4.56" fill="#36543B"/><circle cx="282" cy="330" r="4.56" fill="#36543B"/><circle cx="294" cy="330" r="4.56" fill="#36543B"/><circle cx="318" cy="330" r="4.56" fill="#36543B"/><circle cx="330" cy="330" r="4.56" fill="#36543B"/><circle cx="366" cy="330" r="4.56" fill="#36543B"/><circle cx="414" cy="330" r="4.56" fill="#36543B"/><circle cx="462" cy="330" r="4.56" fill="#36543B"/><circle cx="498" cy="330" r="4.56" fill="#36543B"/><circle cx="534" cy="330" r="4.56" fill="#36543B"/><circle cx="66" cy="342" r="4.56" fill="#36543B"/><rect x="121.44" y="337.44" width="9.12" height="9.12" rx="2.4" fill="#36543B"/><circle cx="150" cy="342" r="4.56" fill="#36543B"/><circle cx="162" cy="342" r="4.56" fill="#36543B"/><circle cx="174" cy="342" r="4.56" fill="#36543B"/><circle cx="198" cy="342" r="4.56" fill="#36543B"/><circle cx="210" cy="342" r="4.56" fill="#36543B"/><circle cx="294" cy="342" r="4.56" fill="#36543B"/><circle cx="318" cy="342" r="4.56" fill="#36543B"/><circle cx="342" cy="342" r="4.56" fill="#36543B"/><circle cx="378" cy="342" r="4.56" fill="#36543B"/><circle cx="402" cy="342" r="4.56" fill="#36543B"/><circle cx="426" cy="342" r="4.56" fill="#36543B"/><circle cx="438" cy="342" r="4.56" fill="#36543B"/><circle cx="450" cy="342" r="4.56" fill="#36543B"/><circle cx="462" cy="342" r="4.56" fill="#36543B"/><circle cx="474" cy="342" r="4.56" fill="#36543B"/><circle cx="486" cy="342" r="4.56" fill="#36543B"/><circle cx="510" cy="342" r="4.56" fill="#36543B"/><circle cx="522" cy="342" r="4.56" fill="#36543B"/><circle cx="54" cy="354" r="4.56" fill="#36543B"/><circle cx="114" cy="354" r="4.56" fill="#36543B"/><circle cx="234" cy="354" r="4.56" fill="#36543B"/><circle cx="306" cy="354" r="4.56" fill="#36543B"/><circle cx="330" cy="354" r="4.56" fill="#36543B"/><circle cx="354" cy="354" r="4.56" fill="#36543B"/><circle cx="390" cy="354" r="4.56" fill="#36543B"/><circle cx="402" cy="354" r="4.56" fill="#36543B"/><circle cx="426" cy="354" r="4.56" fill="#36543B"/><circle cx="450" cy="354" r="4.56" fill="#36543B"/><circle cx="462" cy="354" r="4.56" fill="#36543B"/><circle cx="486" cy="354" r="4.56" fill="#36543B"/><circle cx="498" cy="354" r="4.56" fill="#36543B"/><circle cx="510" cy="354" r="4.56" fill="#36543B"/><circle cx="522" cy="354" r="4.56" fill="#36543B"/><circle cx="534" cy="354" r="4.56" fill="#36543B"/><circle cx="54" cy="366" r="4.56" fill="#36543B"/><circle cx="78" cy="366" r="4.56" fill="#36543B"/><circle cx="90" cy="366" r="4.56" fill="#36543B"/><circle cx="102" cy="366" r="4.56" fill="#36543B"/><circle cx="114" cy="366" r="4.56" fill="#36543B"/><rect x="121.44" y="361.44" width="9.12" height="9.12" rx="2.4" fill="#36543B"/><circle cx="150" cy="366" r="4.56" fill="#36543B"/><circle cx="198" cy="366" r="4.56" fill="#36543B"/><circle cx="222" cy="366" r="4.56" fill="#36543B"/><circle cx="246" cy="366" r="4.56" fill="#36543B"/><circle cx="258" cy="366" r="4.56" fill="#36543B"/><circle cx="282" cy="366" r="4.56" fill="#36543B"/><circle cx="294" cy="366" r="4.56" fill="#36543B"/><circle cx="342" cy="366" r="4.56" fill="#36543B"/><circle cx="414" cy="366" r="4.56" fill="#36543B"/><circle cx="426" cy="366" r="4.56" fill="#36543B"/><circle cx="438" cy="366" r="4.56" fill="#36543B"/><circle cx="474" cy="366" r="4.56" fill="#36543B"/><circle cx="138" cy="378" r="4.56" fill="#36543B"/><circle cx="162" cy="378" r="4.56" fill="#36543B"/><circle cx="174" cy="378" r="4.56" fill="#36543B"/><circle cx="198" cy="378" r="4.56" fill="#36543B"/><circle cx="234" cy="378" r="4.56" fill="#36543B"/><circle cx="258" cy="378" r="4.56" fill="#36543B"/><circle cx="270" cy="378" r="4.56" fill="#36543B"/><circle cx="306" cy="378" r="4.56" fill="#36543B"/><circle cx="318" cy="378" r="4.56" fill="#36543B"/><circle cx="354" cy="378" r="4.56" fill="#36543B"/><circle cx="366" cy="378" r="4.56" fill="#36543B"/><circle cx="378" cy="378" r="4.56" fill="#36543B"/><circle cx="414" cy="378" r="4.56" fill="#36543B"/><circle cx="438" cy="378" r="4.56" fill="#36543B"/><circle cx="450" cy="378" r="4.56" fill="#36543B"/><circle cx="462" cy="378" r="4.56" fill="#36543B"/><circle cx="498" cy="378" r="4.56" fill="#36543B"/><circle cx="510" cy="378" r="4.56" fill="#36543B"/><circle cx="522" cy="378" r="4.56" fill="#36543B"/><circle cx="66" cy="390" r="4.56" fill="#36543B"/><circle cx="102" cy="390" r="4.56" fill="#36543B"/><circle cx="114" cy="390" r="4.56" fill="#36543B"/><rect x="121.44" y="385.44" width="9.12" height="9.12" rx="2.4" fill="#36543B"/><circle cx="138" cy="390" r="4.56" fill="#36543B"/><circle cx="174" cy="390" r="4.56" fill="#36543B"/><circle cx="186" cy="390" r="4.56" fill="#36543B"/><circle cx="198" cy="390" r="4.56" fill="#36543B"/><circle cx="210" cy="390" r="4.56" fill="#36543B"/><circle cx="258" cy="390" r="4.56" fill="#36543B"/><circle cx="282" cy="390" r="4.56" fill="#36543B"/><circle cx="306" cy="390" r="4.56" fill="#36543B"/><circle cx="318" cy="390" r="4.56" fill="#36543B"/><circle cx="330" cy="390" r="4.56" fill="#36543B"/><circle cx="354" cy="390" r="4.56" fill="#36543B"/><circle cx="390" cy="390" r="4.56" fill="#36543B"/><circle cx="450" cy="390" r="4.56" fill="#36543B"/><circle cx="486" cy="390" r="4.56" fill="#36543B"/><circle cx="498" cy="390" r="4.56" fill="#36543B"/><circle cx="510" cy="390" r="4.56" fill="#36543B"/><circle cx="66" cy="402" r="4.56" fill="#36543B"/><circle cx="78" cy="402" r="4.56" fill="#36543B"/><circle cx="150" cy="402" r="4.56" fill="#36543B"/><circle cx="162" cy="402" r="4.56" fill="#36543B"/><circle cx="174" cy="402" r="4.56" fill="#36543B"/><circle cx="246" cy="402" r="4.56" fill="#36543B"/><circle cx="270" cy="402" r="4.56" fill="#36543B"/><circle cx="306" cy="402" r="4.56" fill="#36543B"/><circle cx="366" cy="402" r="4.56" fill="#36543B"/><circle cx="390" cy="402" r="4.56" fill="#36543B"/><circle cx="414" cy="402" r="4.56" fill="#36543B"/><circle cx="438" cy="402" r="4.56" fill="#36543B"/><circle cx="450" cy="402" r="4.56" fill="#36543B"/><circle cx="462" cy="402" r="4.56" fill="#36543B"/><circle cx="474" cy="402" r="4.56" fill="#36543B"/><circle cx="486" cy="402" r="4.56" fill="#36543B"/><circle cx="534" cy="402" r="4.56" fill="#36543B"/><circle cx="54" cy="414" r="4.56" fill="#36543B"/><circle cx="78" cy="414" r="4.56" fill="#36543B"/><circle cx="102" cy="414" r="4.56" fill="#36543B"/><rect x="121.44" y="409.44" width="9.12" height="9.12" rx="2.4" fill="#36543B"/><circle cx="138" cy="414" r="4.56" fill="#36543B"/><circle cx="162" cy="414" r="4.56" fill="#36543B"/><circle cx="186" cy="414" r="4.56" fill="#36543B"/><circle cx="210" cy="414" r="4.56" fill="#36543B"/><circle cx="222" cy="414" r="4.56" fill="#36543B"/><circle cx="270" cy="414" r="4.56" fill="#36543B"/><circle cx="294" cy="414" r="4.56" fill="#36543B"/><circle cx="318" cy="414" r="4.56" fill="#36543B"/><circle cx="330" cy="414" r="4.56" fill="#36543B"/><circle cx="354" cy="414" r="4.56" fill="#36543B"/><circle cx="366" cy="414" r="4.56" fill="#36543B"/><circle cx="402" cy="414" r="4.56" fill="#36543B"/><circle cx="426" cy="414" r="4.56" fill="#36543B"/><circle cx="450" cy="414" r="4.56" fill="#36543B"/><circle cx="474" cy="414" r="4.56" fill="#36543B"/><circle cx="498" cy="414" r="4.56" fill="#36543B"/><circle cx="90" cy="426" r="4.56" fill="#36543B"/><circle cx="102" cy="426" r="4.56" fill="#36543B"/><circle cx="138" cy="426" r="4.56" fill="#36543B"/><circle cx="150" cy="426" r="4.56" fill="#36543B"/><circle cx="162" cy="426" r="4.56" fill="#36543B"/><circle cx="186" cy="426" r="4.56" fill="#36543B"/><circle cx="258" cy="426" r="4.56" fill="#36543B"/><circle cx="270" cy="426" r="4.56" fill="#36543B"/><circle cx="294" cy="426" r="4.56" fill="#36543B"/><circle cx="306" cy="426" r="4.56" fill="#36543B"/><circle cx="342" cy="426" r="4.56" fill="#36543B"/><circle cx="354" cy="426" r="4.56" fill="#36543B"/><circle cx="378" cy="426" r="4.56" fill="#36543B"/><circle cx="390" cy="426" r="4.56" fill="#36543B"/><circle cx="426" cy="426" r="4.56" fill="#36543B"/><circle cx="438" cy="426" r="4.56" fill="#36543B"/><circle cx="462" cy="426" r="4.56" fill="#36543B"/><circle cx="486" cy="426" r="4.56" fill="#36543B"/><circle cx="510" cy="426" r="4.56" fill="#36543B"/><circle cx="534" cy="426" r="4.56" fill="#36543B"/><circle cx="66" cy="438" r="4.56" fill="#36543B"/><circle cx="78" cy="438" r="4.56" fill="#36543B"/><circle cx="90" cy="438" r="4.56" fill="#36543B"/><rect x="121.44" y="433.44" width="9.12" height="9.12" rx="2.4" fill="#36543B"/><circle cx="138" cy="438" r="4.56" fill="#36543B"/><circle cx="150" cy="438" r="4.56" fill="#36543B"/><circle cx="174" cy="438" r="4.56" fill="#36543B"/><circle cx="186" cy="438" r="4.56" fill="#36543B"/><circle cx="222" cy="438" r="4.56" fill="#36543B"/><circle cx="234" cy="438" r="4.56" fill="#36543B"/><circle cx="258" cy="438" r="4.56" fill="#36543B"/><circle cx="282" cy="438" r="4.56" fill="#36543B"/><circle cx="318" cy="438" r="4.56" fill="#36543B"/><circle cx="330" cy="438" r="4.56" fill="#36543B"/><circle cx="342" cy="438" r="4.56" fill="#36543B"/><circle cx="366" cy="438" r="4.56" fill="#36543B"/><circle cx="402" cy="438" r="4.56" fill="#36543B"/><circle cx="414" cy="438" r="4.56" fill="#36543B"/><circle cx="426" cy="438" r="4.56" fill="#36543B"/><circle cx="222" cy="450" r="4.56" fill="#36543B"/><circle cx="234" cy="450" r="4.56" fill="#36543B"/><circle cx="246" cy="450" r="4.56" fill="#36543B"/><circle cx="258" cy="450" r="4.56" fill="#36543B"/><circle cx="270" cy="450" r="4.56" fill="#36543B"/><circle cx="366" cy="450" r="4.56" fill="#36543B"/><circle cx="378" cy="450" r="4.56" fill="#36543B"/><circle cx="390" cy="450" r="4.56" fill="#36543B"/><circle cx="402" cy="450" r="4.56" fill="#36543B"/><circle cx="414" cy="450" r="4.56" fill="#36543B"/><circle cx="510" cy="450" r="4.56" fill="#36543B"/><circle cx="522" cy="450" r="4.56" fill="#36543B"/><circle cx="534" cy="450" r="4.56" fill="#36543B"/><rect x="145.44" y="457.44" width="9.12" height="9.12" rx="2.4" fill="#36543B"/><circle cx="174" cy="462" r="4.56" fill="#36543B"/><circle cx="186" cy="462" r="4.56" fill="#36543B"/><circle cx="258" cy="462" r="4.56" fill="#36543B"/><circle cx="270" cy="462" r="4.56" fill="#36543B"/><circle cx="282" cy="462" r="4.56" fill="#36543B"/><circle cx="318" cy="462" r="4.56" fill="#36543B"/><circle cx="330" cy="462" r="4.56" fill="#36543B"/><circle cx="342" cy="462" r="4.56" fill="#36543B"/><circle cx="354" cy="462" r="4.56" fill="#36543B"/><circle cx="378" cy="462" r="4.56" fill="#36543B"/><circle cx="426" cy="462" r="4.56" fill="#36543B"/><circle cx="510" cy="462" r="4.56" fill="#36543B"/><circle cx="522" cy="462" r="4.56" fill="#36543B"/><circle cx="162" cy="474" r="4.56" fill="#36543B"/><circle cx="174" cy="474" r="4.56" fill="#36543B"/><circle cx="210" cy="474" r="4.56" fill="#36543B"/><circle cx="222" cy="474" r="4.56" fill="#36543B"/><circle cx="246" cy="474" r="4.56" fill="#36543B"/><circle cx="258" cy="474" r="4.56" fill="#36543B"/><circle cx="270" cy="474" r="4.56" fill="#36543B"/><circle cx="294" cy="474" r="4.56" fill="#36543B"/><circle cx="318" cy="474" r="4.56" fill="#36543B"/><circle cx="342" cy="474" r="4.56" fill="#36543B"/><circle cx="354" cy="474" r="4.56" fill="#36543B"/><circle cx="378" cy="474" r="4.56" fill="#36543B"/><circle cx="402" cy="474" r="4.56" fill="#36543B"/><circle cx="426" cy="474" r="4.56" fill="#36543B"/><circle cx="498" cy="474" r="4.56" fill="#36543B"/><circle cx="510" cy="474" r="4.56" fill="#36543B"/><circle cx="534" cy="474" r="4.56" fill="#36543B"/><rect x="145.44" y="481.44" width="9.12" height="9.12" rx="2.4" fill="#36543B"/><circle cx="162" cy="486" r="4.56" fill="#36543B"/><circle cx="174" cy="486" r="4.56" fill="#36543B"/><circle cx="186" cy="486" r="4.56" fill="#36543B"/><circle cx="210" cy="486" r="4.56" fill="#36543B"/><circle cx="222" cy="486" r="4.56" fill="#36543B"/><circle cx="234" cy="486" r="4.56" fill="#36543B"/><circle cx="258" cy="486" r="4.56" fill="#36543B"/><circle cx="270" cy="486" r="4.56" fill="#36543B"/><circle cx="282" cy="486" r="4.56" fill="#36543B"/><circle cx="294" cy="486" r="4.56" fill="#36543B"/><circle cx="306" cy="486" r="4.56" fill="#36543B"/><circle cx="318" cy="486" r="4.56" fill="#36543B"/><circle cx="330" cy="486" r="4.56" fill="#36543B"/><circle cx="354" cy="486" r="4.56" fill="#36543B"/><circle cx="366" cy="486" r="4.56" fill="#36543B"/><circle cx="402" cy="486" r="4.56" fill="#36543B"/><circle cx="426" cy="486" r="4.56" fill="#36543B"/><circle cx="510" cy="486" r="4.56" fill="#36543B"/><circle cx="522" cy="486" r="4.56" fill="#36543B"/><circle cx="534" cy="486" r="4.56" fill="#36543B"/><circle cx="186" cy="498" r="4.56" fill="#36543B"/><circle cx="210" cy="498" r="4.56" fill="#36543B"/><circle cx="222" cy="498" r="4.56" fill="#36543B"/><circle cx="234" cy="498" r="4.56" fill="#36543B"/><circle cx="246" cy="498" r="4.56" fill="#36543B"/><circle cx="270" cy="498" r="4.56" fill="#36543B"/><circle cx="282" cy="498" r="4.56" fill="#36543B"/><circle cx="294" cy="498" r="4.56" fill="#36543B"/><circle cx="342" cy="498" r="4.56" fill="#36543B"/><circle cx="354" cy="498" r="4.56" fill="#36543B"/><circle cx="378" cy="498" r="4.56" fill="#36543B"/><circle cx="390" cy="498" r="4.56" fill="#36543B"/><circle cx="414" cy="498" r="4.56" fill="#36543B"/><circle cx="426" cy="498" r="4.56" fill="#36543B"/><circle cx="450" cy="498" r="4.56" fill="#36543B"/><circle cx="474" cy="498" r="4.56" fill="#36543B"/><circle cx="486" cy="498" r="4.56" fill="#36543B"/><circle cx="498" cy="498" r="4.56" fill="#36543B"/><circle cx="522" cy="498" r="4.56" fill="#36543B"/><rect x="145.44" y="505.44" width="9.12" height="9.12" rx="2.4" fill="#36543B"/><circle cx="234" cy="510" r="4.56" fill="#36543B"/><circle cx="246" cy="510" r="4.56" fill="#36543B"/><circle cx="294" cy="510" r="4.56" fill="#36543B"/><circle cx="306" cy="510" r="4.56" fill="#36543B"/><circle cx="342" cy="510" r="4.56" fill="#36543B"/><circle cx="378" cy="510" r="4.56" fill="#36543B"/><circle cx="390" cy="510" r="4.56" fill="#36543B"/><circle cx="438" cy="510" r="4.56" fill="#36543B"/><circle cx="450" cy="510" r="4.56" fill="#36543B"/><circle cx="498" cy="510" r="4.56" fill="#36543B"/><circle cx="510" cy="510" r="4.56" fill="#36543B"/><circle cx="162" cy="522" r="4.56" fill="#36543B"/><circle cx="186" cy="522" r="4.56" fill="#36543B"/><circle cx="210" cy="522" r="4.56" fill="#36543B"/><circle cx="234" cy="522" r="4.56" fill="#36543B"/><circle cx="294" cy="522" r="4.56" fill="#36543B"/><circle cx="378" cy="522" r="4.56" fill="#36543B"/><circle cx="390" cy="522" r="4.56" fill="#36543B"/><circle cx="438" cy="522" r="4.56" fill="#36543B"/><circle cx="474" cy="522" r="4.56" fill="#36543B"/><circle cx="510" cy="522" r="4.56" fill="#36543B"/><rect x="145.44" y="529.44" width="9.12" height="9.12" rx="2.4" fill="#36543B"/><circle cx="210" cy="534" r="4.56" fill="#36543B"/><circle cx="246" cy="534" r="4.56" fill="#36543B"/><circle cx="258" cy="534" r="4.56" fill="#36543B"/><circle cx="270" cy="534" r="4.56" fill="#36543B"/><circle cx="282" cy="534" r="4.56" fill="#36543B"/><circle cx="330" cy="534" r="4.56" fill="#36543B"/><circle cx="354" cy="534" r="4.56" fill="#36543B"/><circle cx="378" cy="534" r="4.56" fill="#36543B"/><circle cx="402" cy="534" r="4.56" fill="#36543B"/><circle cx="414" cy="534" r="4.56" fill="#36543B"/><circle cx="498" cy="534" r="4.56" fill="#36543B"/><circle cx="522" cy="534" r="4.56" fill="#36543B"/><rect x="48" y="48" width="84" height="84" rx="18" fill="#C86D4B"/><rect x="60" y="60" width="60" height="60" rx="13.2" fill="#FFFAF2"/><rect x="72" y="72" width="36" height="36" rx="8.64" fill="#36543B"/><rect x="456" y="48" width="84" height="84" rx="18" fill="#C86D4B"/><rect x="468" y="60" width="60" height="60" rx="13.2" fill="#FFFAF2"/><rect x="480" y="72" width="36" height="36" rx="8.64" fill="#36543B"/><rect x="48" y="456" width="84" height="84" rx="18" fill="#C86D4B"/><rect x="60" y="468" width="60" height="60" rx="13.2" fill="#FFFAF2"/><rect x="72" y="480" width="36" height="36" rx="8.64" fill="#36543B"/><rect x="432" y="432" width="60" height="60" rx="12.6" fill="#36543B"/><rect x="444" y="444" width="36" height="36" rx="8.16" fill="#FFFAF2"/><rect x="456" y="456" width="12" height="12" rx="2.88" fill="#36543B"/>
      </g>

</svg>
