<svg xmlns="http://www.w3.org/2000/svg" viewBox="48 48 492 492" role="img" aria-label="Seedbed QR code for The Number Garden"><defs><linearGradient id="seedbed-bg" x1="0%" y1="0%" x2="100%" y2="100%"><stop offset="0%" stop-color="#FDF8EF"/><stop offset="100%" stop-color="#FFFAF2"/></linearGradient></defs><circle cx="162" cy="54" r="4.56" fill="#36543B"/><circle cx="198" cy="54" r="4.56" fill="#36543B"/><circle cx="270" cy="54" r="4.56" fill="#36543B"/><circle cx="294" cy="54" r="4.56" fill="#36543B"/><circle cx="390" cy="54" r="4.56" fill="#36543B"/><circle cx="402" cy="54" r="4.56" fill="#36543B"/><circle cx="414" cy="54" r="4.56" fill="#36543B"/><circle cx="426" cy="54" r="4.56" fill="#36543B"/><circle cx="438" cy="54" r="4.56" fill="#36543B"/><circle cx="162" cy="66" r="4.56" fill="#36543B"/><circle cx="186" cy="66" r="4.56" fill="#36543B"/><circle cx="198" cy="66" r="4.56" fill="#36543B"/><circle cx="222" cy="66" r="4.56" fill="#36543B"/><circle cx="234" cy="66" r="4.56" fill="#36543B"/><circle cx="246" cy="66" r="4.56" fill="#36543B"/><circle cx="270" cy="66" r="4.56" fill="#36543B"/><circle cx="282" cy="66" r="4.56" fill="#36543B"/><circle cx="294" cy="66" r="4.56" fill="#36543B"/><circle cx="318" cy="66" r="4.56" fill="#36543B"/><circle cx="330" cy="66" r="4.56" fill="#36543B"/><circle cx="354" cy="66" r="4.56" fill="#36543B"/><circle cx="378" cy="66" r="4.56" fill="#36543B"/><circle cx="402" cy="66" r="4.56" fill="#36543B"/><circle cx="414" cy="66" r="4.56" fill="#36543B"/><circle cx="162" cy="78" r="4.56" fill="#36543B"/><circle cx="186" cy="78" r="4.56" fill="#36543B"/><circle cx="198" cy="78" r="4.56" fill="#36543B"/><circle cx="222" cy="78" r="4.56" fill="#36543B"/><circle cx="246" cy="78" r="4.56" fill="#36543B"/><circle cx="270" cy="78" r="4.56" fill="#36543B"/><circle cx="294" cy="78" r="4.56" fill="#36543B"/><circle cx="318" cy="78" r="4.56" fill="#36543B"/><circle cx="330" cy="78" r="4.56" fill="#36543B"/><circle cx="342" cy="78" r="4.56" fill="#36543B"/><circle cx="378" cy="78" r="4.56" fill="#36543B"/><circle cx="402" cy="78" r="4.56" fill="#36543B"/><circle cx="426" cy="78" r="4.56" fill="#36543B"/><circle cx="438" cy="78" r="4.56" fill="#36543B"/><circle cx="186" cy="90" r="4.56" fill="#36543B"/><circle cx="210" cy="90" r="4.56" fill="#36543B"/><circle cx="234" cy="90" r="4.56" fill="#36543B"/><circle cx="270" cy="90" r="4.56" fill="#36543B"/><circle cx="282" cy="90" r="4.56" fill="#36543B"/><circle cx="330" cy="90" r="4.56" fill="#36543B"/><circle cx="354" cy="90" r="4.56" fill="#36543B"/><circle cx="378" cy="90" r="4.56" fill="#36543B"/><circle cx="402" cy="90" r="4.56" fill="#36543B"/><circle cx="414" cy="90" r="4.56" fill="#36543B"/><circle cx="162" cy="102" r="4.56" fill="#36543B"/><circle cx="174" cy="102" r="4.56" fill="#36543B"/><circle cx="186" cy="102" r="4.56" fill="#36543B"/><circle cx="198" cy="102" r="4.56" fill="#36543B"/><circle cx="210" cy="102" r="4.56" fill="#36543B"/><circle cx="222" cy="102" r="4.56" fill="#36543B"/><circle cx="234" cy="102" r="4.56" fill="#36543B"/><circle cx="282" cy="102" r="4.56" fill="#36543B"/><circle cx="294" cy="102" r="4.56" fill="#36543B"/><circle cx="306" cy="102" r="4.56" fill="#36543B"/><circle cx="318" cy="102" r="4.56" fill="#36543B"/><circle cx="354" cy="102" r="4.56" fill="#36543B"/><circle cx="378" cy="102" r="4.56" fill="#36543B"/><circle cx="402" cy="102" r="4.56" fill="#36543B"/><circle cx="414" cy="102" r="4.56" fill="#36543B"/><circle cx="426" cy="102" r="4.56" fill="#36543B"/><rect x="145.44" y="109.44" width="9.12" height="9.12" rx="2.4" fill="#36543B"/><circle cx="162" cy="114" r="4.56" fill="#36543B"/><circle cx="186" cy="114" r="4.56" fill="#36543B"/><circle cx="234" cy="114" r="4.56" fill="#36543B"/><circle cx="282" cy="114" r="4.56" fill="#36543B"/><circle cx="318" cy="114" r="4.56" fill="#36543B"/><circle cx="330" cy="114" r="4.56" fill="#36543B"/><circle cx="342" cy="114" r="4.56" fill="#36543B"/><circle cx="354" cy="114" r="4.56" fill="#36543B"/><circle cx="378" cy="114" r="4.56" fill="#36543B"/><circle cx="390" cy="114" r="4.56" fill="#36543B"/><circle cx="414" cy="114" r="4.56" fill="#36543B"/><rect x="145.44" y="121.44" width="9.12" height="9.12" rx="2.4" fill="#36543B"/><rect x="169.44" y="121.44" width="9.12" height="9.12" rx="2.4" fill="#36543B"/><rect x="193.44" y="121.44" width="9.12" height="9.12" rx="2.4" fill="#36543B"/><rect x="217.44" y="121.44" width="9.12" height="9.12" rx="2.4" fill="#36543B"/><rect x="241.44" y="121.44" width="9.12" height="9.12" rx="2.4" fill="#36543B"/><rect x="265.44" y="121.44" width="9.12" height="9.12" rx="2.4" fill="#36543B"/><rect x="289.44" y="121.44" width="9.12" height="9.12" rx="2.4" fill="#36543B"/><rect x="313.44" y="121.44" width="9.12" height="9.12" rx="2.4" fill="#36543B"/><rect x="337.44" y="121.44" width="9.12" height="9.12" rx="2.4" fill="#36543B"/><rect x="361.44" y="121.44" width="9.12" height="9.12" rx="2.4" fill="#36543B"/><rect x="385.44" y="121.44" width="9.12" height="9.12" rx="2.4" fill="#36543B"/><rect x="409.44" y="121.44" width="9.12" height="9.12" rx="2.4" fill="#36543B"/><rect x="433.44" y="121.44" width="9.12" height="9.12" rx="2.4" fill="#36543B"/><circle cx="162" cy="138" r="4.56" fill="#36543B"/><circle cx="174" cy="138" r="4.56" fill="#36543B"/><circle cx="186" cy="138" r="4.56" fill="#36543B"/><circle cx="198" cy="138" r="4.56" fill="#36543B"/><circle cx="222" cy="138" r="4.56" fill="#36543B"/><circle cx="258" cy="138" r="4.56" fill="#36543B"/><circle cx="270" cy="138" r="4.56" fill="#36543B"/><circle cx="282" cy="138" r="4.56" fill="#36543B"/><circle cx="294" cy="138" r="4.56" fill="#36543B"/><circle cx="318" cy="138" r="4.56" fill="#36543B"/><circle cx="366" cy="138" r="4.56" fill="#36543B"/><circle cx="390" cy="138" r="4.56" fill="#36543B"/><circle cx="426" cy="138" r="4.56" fill="#36543B"/><circle cx="438" cy="138" r="4.56" fill="#36543B"/><rect x="49.44" y="145.44" width="9.12" height="9.12" rx="2.4" fill="#36543B"/><rect x="73.44" y="145.44" width="9.12" height="9.12" rx="2.4" fill="#36543B"/><rect x="97.44" y="145.44" width="9.12" height="9.12" rx="2.4" fill="#36543B"/><rect x="121.44" y="145.44" width="9.12" height="9.12" rx="2.4" fill="#36543B"/><rect x="133.44" y="145.44" width="9.12" height="9.12" rx="2.4" fill="#36543B"/><circle cx="186" cy="150" r="4.56" fill="#36543B"/><circle cx="198" cy="150" r="4.56" fill="#36543B"/><circle cx="270" cy="150" r="4.56" fill="#36543B"/><circle cx="306" cy="150" r="4.56" fill="#36543B"/><circle cx="354" cy="150" r="4.56" fill="#36543B"/><circle cx="378" cy="150" r="4.56" fill="#36543B"/><circle cx="390" cy="150" r="4.56" fill="#36543B"/><circle cx="402" cy="150" r="4.56" fill="#36543B"/><circle cx="438" cy="150" r="4.56" fill="#36543B"/><rect x="445.44" y="145.44" width="9.12" height="9.12" rx="2.4" fill="#36543B"/><rect x="469.44" y="145.44" width="9.12" height="9.12" rx="2.4" fill="#36543B"/><circle cx="54" cy="162" r="4.56" fill="#36543B"/><circle cx="66" cy="162" r="4.56" fill="#36543B"/><circle cx="114" cy="162" r="4.56" fill="#36543B"/><circle cx="162" cy="162" r="4.56" fill="#36543B"/><circle cx="174" cy="162" r="4.56" fill="#36543B"/><circle cx="210" cy="162" r="4.56" fill="#36543B"/><circle cx="234" cy="162" r="4.56" fill="#36543B"/><circle cx="258" cy="162" r="4.56" fill="#36543B"/><circle cx="282" cy="162" r="4.56" fill="#36543B"/><circle cx="294" cy="162" r="4.56" fill="#36543B"/><circle cx="330" cy="162" r="4.56" fill="#36543B"/><circle cx="354" cy="162" r="4.56" fill="#36543B"/><circle cx="378" cy="162" r="4.56" fill="#36543B"/><circle cx="390" cy="162" r="4.56" fill="#36543B"/><circle cx="414" cy="162" r="4.56" fill="#36543B"/><circle cx="426" cy="162" r="4.56" fill="#36543B"/><circle cx="438" cy="162" r="4.56" fill="#36543B"/><circle cx="450" cy="162" r="4.56" fill="#36543B"/><circle cx="498" cy="162" r="4.56" fill="#36543B"/><circle cx="522" cy="162" r="4.56" fill="#36543B"/><circle cx="534" cy="162" r="4.56" fill="#36543B"/><circle cx="90" cy="174" r="4.56" fill="#36543B"/><circle cx="102" cy="174" r="4.56" fill="#36543B"/><circle cx="114" cy="174" r="4.56" fill="#36543B"/><rect x="121.44" y="169.44" width="9.12" height="9.12" rx="2.4" fill="#36543B"/><circle cx="162" cy="174" r="4.56" fill="#36543B"/><circle cx="186" cy="174" r="4.56" fill="#36543B"/><circle cx="198" cy="174" r="4.56" fill="#36543B"/><circle cx="246" cy="174" r="4.56" fill="#36543B"/><circle cx="258" cy="174" r="4.56" fill="#36543B"/><circle cx="270" cy="174" r="4.56" fill="#36543B"/><circle cx="282" cy="174" r="4.56" fill="#36543B"/><circle cx="294" cy="174" r="4.56" fill="#36543B"/><circle cx="342" cy="174" r="4.56" fill="#36543B"/><circle cx="354" cy="174" r="4.56" fill="#36543B"/><circle cx="366" cy="174" r="4.56" fill="#36543B"/><circle cx="378" cy="174" r="4.56" fill="#36543B"/><circle cx="390" cy="174" r="4.56" fill="#36543B"/><circle cx="414" cy="174" r="4.56" fill="#36543B"/><circle cx="426" cy="174" r="4.56" fill="#36543B"/><circle cx="438" cy="174" r="4.56" fill="#36543B"/><circle cx="450" cy="174" r="4.56" fill="#36543B"/><circle cx="462" cy="174" r="4.56" fill="#36543B"/><circle cx="474" cy="174" r="4.56" fill="#36543B"/><circle cx="510" cy="174" r="4.56" fill="#36543B"/><circle cx="522" cy="174" r="4.56" fill="#36543B"/><circle cx="534" cy="174" r="4.56" fill="#36543B"/><circle cx="90" cy="186" r="4.56" fill="#36543B"/><circle cx="102" cy="186" r="4.56" fill="#36543B"/><circle cx="114" cy="186" r="4.56" fill="#36543B"/><circle cx="150" cy="186" r="4.56" fill="#36543B"/><circle cx="174" cy="186" r="4.56" fill="#36543B"/><circle cx="186" cy="186" r="4.56" fill="#36543B"/><circle cx="210" cy="186" r="4.56" fill="#36543B"/><circle cx="258" cy="186" r="4.56" fill="#36543B"/><circle cx="282" cy="186" r="4.56" fill="#36543B"/><circle cx="318" cy="186" r="4.56" fill="#36543B"/><circle cx="330" cy="186" r="4.56" fill="#36543B"/><circle cx="342" cy="186" r="4.56" fill="#36543B"/><circle cx="354" cy="186" r="4.56" fill="#36543B"/><circle cx="414" cy="186" r="4.56" fill="#36543B"/><circle cx="462" cy="186" r="4.56" fill="#36543B"/><circle cx="486" cy="186" r="4.56" fill="#36543B"/><circle cx="498" cy="186" r="4.56" fill="#36543B"/><circle cx="510" cy="186" r="4.56" fill="#36543B"/><circle cx="534" cy="186" r="4.56" fill="#36543B"/><circle cx="66" cy="198" r="4.56" fill="#36543B"/><circle cx="114" cy="198" r="4.56" fill="#36543B"/><rect x="121.44" y="193.44" width="9.12" height="9.12" rx="2.4" fill="#36543B"/><circle cx="138" cy="198" r="4.56" fill="#36543B"/><circle cx="174" cy="198" r="4.56" fill="#36543B"/><circle cx="186" cy="198" r="4.56" fill="#36543B"/><circle cx="198" cy="198" r="4.56" fill="#36543B"/><circle cx="222" cy="198" r="4.56" fill="#36543B"/><circle cx="234" cy="198" r="4.56" fill="#36543B"/><circle cx="270" cy="198" r="4.56" fill="#36543B"/><circle cx="294" cy="198" r="4.56" fill="#36543B"/><circle cx="306" cy="198" r="4.56" fill="#36543B"/><circle cx="318" cy="198" r="4.56" fill="#36543B"/><circle cx="330" cy="198" r="4.56" fill="#36543B"/><circle cx="414" cy="198" r="4.56" fill="#36543B"/><circle cx="438" cy="198" r="4.56" fill="#36543B"/><circle cx="462" cy="198" r="4.56" fill="#36543B"/><circle cx="498" cy="198" r="4.56" fill="#36543B"/><circle cx="522" cy="198" r="4.56" fill="#36543B"/><circle cx="66" cy="210" r="4.56" fill="#36543B"/><circle cx="150" cy="210" r="4.56" fill="#36543B"/><circle cx="162" cy="210" r="4.56" fill="#36543B"/><circle cx="174" cy="210" r="4.56" fill="#36543B"/><circle cx="222" cy="210" r="4.56" fill="#36543B"/><circle cx="246" cy="210" r="4.56" fill="#36543B"/><circle cx="282" cy="210" r="4.56" fill="#36543B"/><circle cx="342" cy="210" r="4.56" fill="#36543B"/><circle cx="354" cy="210" r="4.56" fill="#36543B"/><circle cx="366" cy="210" r="4.56" fill="#36543B"/><circle cx="390" cy="210" r="4.56" fill="#36543B"/><circle cx="402" cy="210" r="4.56" fill="#36543B"/><circle cx="426" cy="210" r="4.56" fill="#36543B"/><circle cx="438" cy="210" r="4.56" fill="#36543B"/><circle cx="474" cy="210" r="4.56" fill="#36543B"/><circle cx="486" cy="210" r="4.56" fill="#36543B"/><circle cx="534" cy="210" r="4.56" fill="#36543B"/><circle cx="54" cy="222" r="4.56" fill="#36543B"/><circle cx="90" cy="222" r="4.56" fill="#36543B"/><circle cx="102" cy="222" r="4.56" fill="#36543B"/><circle cx="114" cy="222" r="4.56" fill="#36543B"/><rect x="121.44" y="217.44" width="9.12" height="9.12" rx="2.4" fill="#36543B"/><circle cx="138" cy="222" r="4.56" fill="#36543B"/><circle cx="162" cy="222" r="4.56" fill="#36543B"/><circle cx="186" cy="222" r="4.56" fill="#36543B"/><circle cx="198" cy="222" r="4.56" fill="#36543B"/><circle cx="210" cy="222" r="4.56" fill="#36543B"/><circle cx="222" cy="222" r="4.56" fill="#36543B"/><circle cx="234" cy="222" r="4.56" fill="#36543B"/><circle cx="282" cy="222" r="4.56" fill="#36543B"/><circle cx="306" cy="222" r="4.56" fill="#36543B"/><circle cx="318" cy="222" r="4.56" fill="#36543B"/><circle cx="330" cy="222" r="4.56" fill="#36543B"/><circle cx="402" cy="222" r="4.56" fill="#36543B"/><circle cx="462" cy="222" r="4.56" fill="#36543B"/><circle cx="474" cy="222" r="4.56" fill="#36543B"/><circle cx="498" cy="222" r="4.56" fill="#36543B"/><circle cx="522" cy="222" r="4.56" fill="#36543B"/><circle cx="90" cy="234" r="4.56" fill="#36543B"/><circle cx="102" cy="234" r="4.56" fill="#36543B"/><circle cx="114" cy="234" r="4.56" fill="#36543B"/><circle cx="138" cy="234" r="4.56" fill="#36543B"/><circle cx="174" cy="234" r="4.56" fill="#36543B"/><circle cx="186" cy="234" r="4.56" fill="#36543B"/><circle cx="210" cy="234" r="4.56" fill="#36543B"/><circle cx="234" cy="234" r="4.56" fill="#36543B"/><circle cx="246" cy="234" r="4.56" fill="#36543B"/><circle cx="270" cy="234" r="4.56" fill="#36543B"/><circle cx="294" cy="234" r="4.56" fill="#36543B"/><circle cx="306" cy="234" r="4.56" fill="#36543B"/><circle cx="318" cy="234" r="4.56" fill="#36543B"/><circle cx="378" cy="234" r="4.56" fill="#36543B"/><circle cx="414" cy="234" r="4.56" fill="#36543B"/><circle cx="438" cy="234" r="4.56" fill="#36543B"/><circle cx="474" cy="234" r="4.56" fill="#36543B"/><circle cx="510" cy="234" r="4.56" fill="#36543B"/><circle cx="534" cy="234" r="4.56" fill="#36543B"/><circle cx="54" cy="246" r="4.56" fill="#36543B"/><circle cx="90" cy="246" r="4.56" fill="#36543B"/><circle cx="102" cy="246" r="4.56" fill="#36543B"/><circle cx="114" cy="246" r="4.56" fill="#36543B"/><rect x="121.44" y="241.44" width="9.12" height="9.12" rx="2.4" fill="#36543B"/><circle cx="138" cy="246" r="4.56" fill="#36543B"/><circle cx="186" cy="246" r="4.56" fill="#36543B"/><circle cx="234" cy="246" r="4.56" fill="#36543B"/><circle cx="246" cy="246" r="4.56" fill="#36543B"/><circle cx="282" cy="246" r="4.56" fill="#36543B"/><circle cx="306" cy="246" r="4.56" fill="#36543B"/><circle cx="354" cy="246" r="4.56" fill="#36543B"/><circle cx="366" cy="246" r="4.56" fill="#36543B"/><circle cx="402" cy="246" r="4.56" fill="#36543B"/><circle cx="426" cy="246" r="4.56" fill="#36543B"/><circle cx="450" cy="246" r="4.56" fill="#36543B"/><circle cx="486" cy="246" r="4.56" fill="#36543B"/><circle cx="498" cy="246" r="4.56" fill="#36543B"/><circle cx="510" cy="246" r="4.56" fill="#36543B"/><circle cx="66" cy="258" r="4.56" fill="#36543B"/><circle cx="78" cy="258" r="4.56" fill="#36543B"/><circle cx="90" cy="258" r="4.56" fill="#36543B"/><circle cx="102" cy="258" r="4.56" fill="#36543B"/><circle cx="174" cy="258" r="4.56" fill="#36543B"/><circle cx="186" cy="258" r="4.56" fill="#36543B"/><circle cx="198" cy="258" r="4.56" fill="#36543B"/><circle cx="246" cy="258" r="4.56" fill="#36543B"/><circle cx="258" cy="258" r="4.56" fill="#36543B"/><circle cx="306" cy="258" r="4.56" fill="#36543B"/><circle cx="318" cy="258" r="4.56" fill="#36543B"/><circle cx="330" cy="258" r="4.56" fill="#36543B"/><circle cx="342" cy="258" r="4.56" fill="#36543B"/><circle cx="378" cy="258" r="4.56" fill="#36543B"/><circle cx="426" cy="258" r="4.56" fill="#36543B"/><circle cx="438" cy="258" r="4.56" fill="#36543B"/><circle cx="462" cy="258" r="4.56" fill="#36543B"/><circle cx="474" cy="258" r="4.56" fill="#36543B"/><circle cx="534" cy="258" r="4.56" fill="#36543B"/><circle cx="66" cy="270" r="4.56" fill="#36543B"/><circle cx="102" cy="270" r="4.56" fill="#36543B"/><rect x="121.44" y="265.44" width="9.12" height="9.12" rx="2.4" fill="#36543B"/><circle cx="138" cy="270" r="4.56" fill="#36543B"/><circle cx="150" cy="270" r="4.56" fill="#36543B"/><circle cx="186" cy="270" r="4.56" fill="#36543B"/><circle cx="198" cy="270" r="4.56" fill="#36543B"/><circle cx="210" cy="270" r="4.56" fill="#36543B"/><circle cx="234" cy="270" r="4.56" fill="#36543B"/><circle cx="246" cy="270" r="4.56" fill="#36543B"/><circle cx="294" cy="270" r="4.56" fill="#36543B"/><circle cx="306" cy="270" r="4.56" fill="#36543B"/><circle cx="342" cy="270" r="4.56" fill="#36543B"/><circle cx="366" cy="270" r="4.56" fill="#36543B"/><circle cx="390" cy="270" r="4.56" fill="#36543B"/><circle cx="438" cy="270" r="4.56" fill="#36543B"/><circle cx="450" cy="270" r="4.56" fill="#36543B"/><circle cx="462" cy="270" r="4.56" fill="#36543B"/><circle cx="498" cy="270" r="4.56" fill="#36543B"/><circle cx="534" cy="270" r="4.56" fill="#36543B"/><circle cx="66" cy="282" r="4.56" fill="#36543B"/><circle cx="174" cy="282" r="4.56" fill="#36543B"/><circle cx="186" cy="282" r="4.56" fill="#36543B"/><circle cx="210" cy="282" r="4.56" fill="#36543B"/><circle cx="270" cy="282" r="4.56" fill="#36543B"/><circle cx="282" cy="282" r="4.56" fill="#36543B"/><circle cx="294" cy="282" r="4.56" fill="#36543B"/><circle cx="306" cy="282" r="4.56" fill="#36543B"/><circle cx="354" cy="282" r="4.56" fill="#36543B"/><circle cx="378" cy="282" r="4.56" fill="#36543B"/><circle cx="402" cy="282" r="4.56" fill="#36543B"/><circle cx="414" cy="282" r="4.56" fill="#36543B"/><circle cx="426" cy="282" r="4.56" fill="#36543B"/><circle cx="438" cy="282" r="4.56" fill="#36543B"/><circle cx="462" cy="282" r="4.56" fill="#36543B"/><circle cx="486" cy="282" r="4.56" fill="#36543B"/><circle cx="522" cy="282" r="4.56" fill="#36543B"/><circle cx="534" cy="282" r="4.56" fill="#36543B"/><circle cx="54" cy="294" r="4.56" fill="#36543B"/><circle cx="66" cy="294" r="4.56" fill="#36543B"/><circle cx="90" cy="294" r="4.56" fill="#36543B"/><rect x="121.44" y="289.44" width="9.12" height="9.12" rx="2.4" fill="#36543B"/><circle cx="174" cy="294" r="4.56" fill="#36543B"/><circle cx="246" cy="294" r="4.56" fill="#36543B"/><circle cx="270" cy="294" r="4.56" fill="#36543B"/><circle cx="282" cy="294" r="4.56" fill="#36543B"/><circle cx="306" cy="294" r="4.56" fill="#36543B"/><circle cx="354" cy="294" r="4.56" fill="#36543B"/><circle cx="378" cy="294" r="4.56" fill="#36543B"/><circle cx="414" cy="294" r="4.56" fill="#36543B"/><circle cx="426" cy="294" r="4.56" fill="#36543B"/><circle cx="438" cy="294" r="4.56" fill="#36543B"/><circle cx="450" cy="294" r="4.56" fill="#36543B"/><circle cx="498" cy="294" r="4.56" fill="#36543B"/><circle cx="522" cy="294" r="4.56" fill="#36543B"/><circle cx="54" cy="306" r="4.56" fill="#36543B"/><circle cx="114" cy="306" r="4.56" fill="#36543B"/><circle cx="138" cy="306" r="4.56" fill="#36543B"/><circle cx="162" cy="306" r="4.56" fill="#36543B"/><circle cx="174" cy="306" r="4.56" fill="#36543B"/><circle cx="210" cy="306" r="4.56" fill="#36543B"/><circle cx="222" cy="306" r="4.56" fill="#36543B"/><circle cx="234" cy="306" r="4.56" fill="#36543B"/><circle cx="246" cy="306" r="4.56" fill="#36543B"/><circle cx="258" cy="306" r="4.56" fill="#36543B"/><circle cx="270" cy="306" r="4.56" fill="#36543B"/><circle cx="282" cy="306" r="4.56" fill="#36543B"/><circle cx="294" cy="306" r="4.56" fill="#36543B"/><circle cx="306" cy="306" r="4.56" fill="#36543B"/><circle cx="354" cy="306" r="4.56" fill="#36543B"/><circle cx="402" cy="306" r="4.56" fill="#36543B"/><circle cx="414" cy="306" r="4.56" fill="#36543B"/><circle cx="462" cy="306" r="4.56" fill="#36543B"/><circle cx="498" cy="306" r="4.56" fill="#36543B"/><circle cx="510" cy="306" r="4.56" fill="#36543B"/><circle cx="534" cy="306" r="4.56" fill="#36543B"/><circle cx="90" cy="318" r="4.56" fill="#36543B"/><circle cx="114" cy="318" r="4.56" fill="#36543B"/><rect x="121.44" y="313.44" width="9.12" height="9.12" rx="2.4" fill="#36543B"/><circle cx="138" cy="318" r="4.56" fill="#36543B"/><circle cx="150" cy="318" r="4.56" fill="#36543B"/><circle cx="174" cy="318" r="4.56" fill="#36543B"/><circle cx="198" cy="318" r="4.56" fill="#36543B"/><circle cx="222" cy="318" r="4.56" fill="#36543B"/><circle cx="234" cy="318" r="4.56" fill="#36543B"/><circle cx="246" cy="318" r="4.56" fill="#36543B"/><circle cx="258" cy="318" r="4.56" fill="#36543B"/><circle cx="282" cy="318" r="4.56" fill="#36543B"/><circle cx="318" cy="318" r="4.56" fill="#36543B"/><circle cx="330" cy="318" r="4.56" fill="#36543B"/><circle cx="342" cy="318" r="4.56" fill="#36543B"/><circle cx="354" cy="318" r="4.56" fill="#36543B"/><circle cx="378" cy="318" r="4.56" fill="#36543B"/><circle cx="390" cy="318" r="4.56" fill="#36543B"/><circle cx="402" cy="318" r="4.56" fill="#36543B"/><circle cx="426" cy="318" r="4.56" fill="#36543B"/><circle cx="438" cy="318" r="4.56" fill="#36543B"/><circle cx="462" cy="318" r="4.56" fill="#36543B"/><circle cx="486" cy="318" r="4.56" fill="#36543B"/><circle cx="498" cy="318" r="4.56" fill="#36543B"/><circle cx="522" cy="318" r="4.56" fill="#36543B"/><circle cx="534" cy="318" r="4.56" fill="#36543B"/><circle cx="66" cy="330" r="4.56" fill="#36543B"/><circle cx="102" cy="330" r="4.56" fill="#36543B"/><circle cx="150" cy="330" r="4.56" fill="#36543B"/><circle cx="210" cy="330" r="4.56" fill="#36543B"/><circle cx="258" cy="330" r="4.56" fill="#36543B"/><circle cx="282" cy="330" r="4.56" fill="#36543B"/><circle cx="294" cy="330" r="4.56" fill="#36543B"/><circle cx="318" cy="330" r="4.56" fill="#36543B"/><circle cx="330" cy="330" r="4.56" fill="#36543B"/><circle cx="366" cy="330" r="4.56" fill="#36543B"/><circle cx="414" cy="330" r="4.56" fill="#36543B"/><circle cx="462" cy="330" r="4.56" fill="#36543B"/><circle cx="498" cy="330" r="4.56" fill="#36543B"/><circle cx="534" cy="330" r="4.56" fill="#36543B"/><circle cx="66" cy="342" r="4.56" fill="#36543B"/><rect x="121.44" y="337.44" width="9.12" height="9.12" rx="2.4" fill="#36543B"/><circle cx="150" cy="342" r="4.56" fill="#36543B"/><circle cx="162" cy="342" r="4.56" fill="#36543B"/><circle cx="174" cy="342" r="4.56" fill="#36543B"/><circle cx="198" cy="342" r="4.56" fill="#36543B"/><circle cx="210" cy="342" r="4.56" fill="#36543B"/><circle cx="294" cy="342" r="4.56" fill="#36543B"/><circle cx="318" cy="342" r="4.56" fill="#36543B"/><circle cx="342" cy="342" r="4.56" fill="#36543B"/><circle cx="378" cy="342" r="4.56" fill="#36543B"/><circle cx="402" cy="342" r="4.56" fill="#36543B"/><circle cx="426" cy="342" r="4.56" fill="#36543B"/><circle cx="438" cy="342" r="4.56" fill="#36543B"/><circle cx="450" cy="342" r="4.56" fill="#36543B"/><circle cx="462" cy="342" r="4.56" fill="#36543B"/><circle cx="474" cy="342" r="4.56" fill="#36543B"/><circle cx="486" cy="342" r="4.56" fill="#36543B"/><circle cx="510" cy="342" r="4.56" fill="#36543B"/><circle cx="522" cy="342" r="4.56" fill="#36543B"/><circle cx="54" cy="354" r="4.56" fill="#36543B"/><circle cx="114" cy="354" r="4.56" fill="#36543B"/><circle cx="234" cy="354" r="4.56" fill="#36543B"/><circle cx="306" cy="354" r="4.56" fill="#36543B"/><circle cx="330" cy="354" r="4.56" fill="#36543B"/><circle cx="354" cy="354" r="4.56" fill="#36543B"/><circle cx="390" cy="354" r="4.56" fill="#36543B"/><circle cx="402" cy="354" r="4.56" fill="#36543B"/><circle cx="426" cy="354" r="4.56" fill="#36543B"/><circle cx="450" cy="354" r="4.56" fill="#36543B"/><circle cx="462" cy="354" r="4.56" fill="#36543B"/><circle cx="486" cy="354" r="4.56" fill="#36543B"/><circle cx="498" cy="354" r="4.56" fill="#36543B"/><circle cx="510" cy="354" r="4.56" fill="#36543B"/><circle cx="522" cy="354" r="4.56" fill="#36543B"/><circle cx="534" cy="354" r="4.56" fill="#36543B"/><circle cx="54" cy="366" r="4.56" fill="#36543B"/><circle cx="78" cy="366" r="4.56" fill="#36543B"/><circle cx="90" cy="366" r="4.56" fill="#36543B"/><circle cx="102" cy="366" r="4.56" fill="#36543B"/><circle cx="114" cy="366" r="4.56" fill="#36543B"/><rect x="121.44" y="361.44" width="9.12" height="9.12" rx="2.4" fill="#36543B"/><circle cx="150" cy="366" r="4.56" fill="#36543B"/><circle cx="198" cy="366" r="4.56" fill="#36543B"/><circle cx="222" cy="366" r="4.56" fill="#36543B"/><circle cx="246" cy="366" r="4.56" fill="#36543B"/><circle cx="258" cy="366" r="4.56" fill="#36543B"/><circle cx="282" cy="366" r="4.56" fill="#36543B"/><circle cx="294" cy="366" r="4.56" fill="#36543B"/><circle cx="342" cy="366" r="4.56" fill="#36543B"/><circle cx="414" cy="366" r="4.56" fill="#36543B"/><circle cx="426" cy="366" r="4.56" fill="#36543B"/><circle cx="438" cy="366" r="4.56" fill="#36543B"/><circle cx="474" cy="366" r="4.56" fill="#36543B"/><circle cx="138" cy="378" r="4.56" fill="#36543B"/><circle cx="162" cy="378" r="4.56" fill="#36543B"/><circle cx="174" cy="378" r="4.56" fill="#36543B"/><circle cx="198" cy="378" r="4.56" fill="#36543B"/><circle cx="234" cy="378" r="4.56" fill="#36543B"/><circle cx="258" cy="378" r="4.56" fill="#36543B"/><circle cx="270" cy="378" r="4.56" fill="#36543B"/><circle cx="306" cy="378" r="4.56" fill="#36543B"/><circle cx="318" cy="378" r="4.56" fill="#36543B"/><circle cx="354" cy="378" r="4.56" fill="#36543B"/><circle cx="366" cy="378" r="4.56" fill="#36543B"/><circle cx="378" cy="378" r="4.56" fill="#36543B"/><circle cx="414" cy="378" r="4.56" fill="#36543B"/><circle cx="438" cy="378" r="4.56" fill="#36543B"/><circle cx="450" cy="378" r="4.56" fill="#36543B"/><circle cx="462" cy="378" r="4.56" fill="#36543B"/><circle cx="498" cy="378" r="4.56" fill="#36543B"/><circle cx="510" cy="378" r="4.56" fill="#36543B"/><circle cx="522" cy="378" r="4.56" fill="#36543B"/><circle cx="66" cy="390" r="4.56" fill="#36543B"/><circle cx="102" cy="390" r="4.56" fill="#36543B"/><circle cx="114" cy="390" r="4.56" fill="#36543B"/><rect x="121.44" y="385.44" width="9.12" height="9.12" rx="2.4" fill="#36543B"/><circle cx="138" cy="390" r="4.56" fill="#36543B"/><circle cx="174" cy="390" r="4.56" fill="#36543B"/><circle cx="186" cy="390" r="4.56" fill="#36543B"/><circle cx="198" cy="390" r="4.56" fill="#36543B"/><circle cx="210" cy="390" r="4.56" fill="#36543B"/><circle cx="258" cy="390" r="4.56" fill="#36543B"/><circle cx="282" cy="390" r="4.56" fill="#36543B"/><circle cx="306" cy="390" r="4.56" fill="#36543B"/><circle cx="318" cy="390" r="4.56" fill="#36543B"/><circle cx="330" cy="390" r="4.56" fill="#36543B"/><circle cx="354" cy="390" r="4.56" fill="#36543B"/><circle cx="390" cy="390" r="4.56" fill="#36543B"/><circle cx="450" cy="390" r="4.56" fill="#36543B"/><circle cx="486" cy="390" r="4.56" fill="#36543B"/><circle cx="498" cy="390" r="4.56" fill="#36543B"/><circle cx="510" cy="390" r="4.56" fill="#36543B"/><circle cx="66" cy="402" r="4.56" fill="#36543B"/><circle cx="78" cy="402" r="4.56" fill="#36543B"/><circle cx="150" cy="402" r="4.56" fill="#36543B"/><circle cx="162" cy="402" r="4.56" fill="#36543B"/><circle cx="174" cy="402" r="4.56" fill="#36543B"/><circle cx="246" cy="402" r="4.56" fill="#36543B"/><circle cx="270" cy="402" r="4.56" fill="#36543B"/><circle cx="306" cy="402" r="4.56" fill="#36543B"/><circle cx="366" cy="402" r="4.56" fill="#36543B"/><circle cx="390" cy="402" r="4.56" fill="#36543B"/><circle cx="414" cy="402" r="4.56" fill="#36543B"/><circle cx="438" cy="402" r="4.56" fill="#36543B"/><circle cx="450" cy="402" r="4.56" fill="#36543B"/><circle cx="462" cy="402" r="4.56" fill="#36543B"/><circle cx="474" cy="402" r="4.56" fill="#36543B"/><circle cx="486" cy="402" r="4.56" fill="#36543B"/><circle cx="534" cy="402" r="4.56" fill="#36543B"/><circle cx="54" cy="414" r="4.56" fill="#36543B"/><circle cx="78" cy="414" r="4.56" fill="#36543B"/><circle cx="102" cy="414" r="4.56" fill="#36543B"/><rect x="121.44" y="409.44" width="9.12" height="9.12" rx="2.4" fill="#36543B"/><circle cx="138" cy="414" r="4.56" fill="#36543B"/><circle cx="162" cy="414" r="4.56" fill="#36543B"/><circle cx="186" cy="414" r="4.56" fill="#36543B"/><circle cx="210" cy="414" r="4.56" fill="#36543B"/><circle cx="222" cy="414" r="4.56" fill="#36543B"/><circle cx="270" cy="414" r="4.56" fill="#36543B"/><circle cx="294" cy="414" r="4.56" fill="#36543B"/><circle cx="318" cy="414" r="4.56" fill="#36543B"/><circle cx="330" cy="414" r="4.56" fill="#36543B"/><circle cx="354" cy="414" r="4.56" fill="#36543B"/><circle cx="366" cy="414" r="4.56" fill="#36543B"/><circle cx="402" cy="414" r="4.56" fill="#36543B"/><circle cx="426" cy="414" r="4.56" fill="#36543B"/><circle cx="450" cy="414" r="4.56" fill="#36543B"/><circle cx="474" cy="414" r="4.56" fill="#36543B"/><circle cx="498" cy="414" r="4.56" fill="#36543B"/><circle cx="90" cy="426" r="4.56" fill="#36543B"/><circle cx="102" cy="426" r="4.56" fill="#36543B"/><circle cx="138" cy="426" r="4.56" fill="#36543B"/><circle cx="150" cy="426" r="4.56" fill="#36543B"/><circle cx="162" cy="426" r="4.56" fill="#36543B"/><circle cx="186" cy="426" r="4.56" fill="#36543B"/><circle cx="258" cy="426" r="4.56" fill="#36543B"/><circle cx="270" cy="426" r="4.56" fill="#36543B"/><circle cx="294" cy="426" r="4.56" fill="#36543B"/><circle cx="306" cy="426" r="4.56" fill="#36543B"/><circle cx="342" cy="426" r="4.56" fill="#36543B"/><circle cx="354" cy="426" r="4.56" fill="#36543B"/><circle cx="378" cy="426" r="4.56" fill="#36543B"/><circle cx="390" cy="426" r="4.56" fill="#36543B"/><circle cx="426" cy="426" r="4.56" fill="#36543B"/><circle cx="438" cy="426" r="4.56" fill="#36543B"/><circle cx="462" cy="426" r="4.56" fill="#36543B"/><circle cx="486" cy="426" r="4.56" fill="#36543B"/><circle cx="510" cy="426" r="4.56" fill="#36543B"/><circle cx="534" cy="426" r="4.56" fill="#36543B"/><circle cx="66" cy="438" r="4.56" fill="#36543B"/><circle cx="78" cy="438" r="4.56" fill="#36543B"/><circle cx="90" cy="438" r="4.56" fill="#36543B"/><rect x="121.44" y="433.44" width="9.12" height="9.12" rx="2.4" fill="#36543B"/><circle cx="138" cy="438" r="4.56" fill="#36543B"/><circle cx="150" cy="438" r="4.56" fill="#36543B"/><circle cx="174" cy="438" r="4.56" fill="#36543B"/><circle cx="186" cy="438" r="4.56" fill="#36543B"/><circle cx="222" cy="438" r="4.56" fill="#36543B"/><circle cx="234" cy="438" r="4.56" fill="#36543B"/><circle cx="258" cy="438" r="4.56" fill="#36543B"/><circle cx="282" cy="438" r="4.56" fill="#36543B"/><circle cx="318" cy="438" r="4.56" fill="#36543B"/><circle cx="330" cy="438" r="4.56" fill="#36543B"/><circle cx="342" cy="438" r="4.56" fill="#36543B"/><circle cx="366" cy="438" r="4.56" fill="#36543B"/><circle cx="402" cy="438" r="4.56" fill="#36543B"/><circle cx="414" cy="438" r="4.56" fill="#36543B"/><circle cx="426" cy="438" r="4.56" fill="#36543B"/><circle cx="222" cy="450" r="4.56" fill="#36543B"/><circle cx="234" cy="450" r="4.56" fill="#36543B"/><circle cx="246" cy="450" r="4.56" fill="#36543B"/><circle cx="258" cy="450" r="4.56" fill="#36543B"/><circle cx="270" cy="450" r="4.56" fill="#36543B"/><circle cx="366" cy="450" r="4.56" fill="#36543B"/><circle cx="378" cy="450" r="4.56" fill="#36543B"/><circle cx="390" cy="450" r="4.56" fill="#36543B"/><circle cx="402" cy="450" r="4.56" fill="#36543B"/><circle cx="414" cy="450" r="4.56" fill="#36543B"/><circle cx="510" cy="450" r="4.56" fill="#36543B"/><circle cx="522" cy="450" r="4.56" fill="#36543B"/><circle cx="534" cy="450" r="4.56" fill="#36543B"/><rect x="145.44" y="457.44" width="9.12" height="9.12" rx="2.4" fill="#36543B"/><circle cx="174" cy="462" r="4.56" fill="#36543B"/><circle cx="186" cy="462" r="4.56" fill="#36543B"/><circle cx="258" cy="462" r="4.56" fill="#36543B"/><circle cx="270" cy="462" r="4.56" fill="#36543B"/><circle cx="282" cy="462" r="4.56" fill="#36543B"/><circle cx="318" cy="462" r="4.56" fill="#36543B"/><circle cx="330" cy="462" r="4.56" fill="#36543B"/><circle cx="342" cy="462" r="4.56" fill="#36543B"/><circle cx="354" cy="462" r="4.56" fill="#36543B"/><circle cx="378" cy="462" r="4.56" fill="#36543B"/><circle cx="426" cy="462" r="4.56" fill="#36543B"/><circle cx="510" cy="462" r="4.56" fill="#36543B"/><circle cx="522" cy="462" r="4.56" fill="#36543B"/><circle cx="162" cy="474" r="4.56" fill="#36543B"/><circle cx="174" cy="474" r="4.56" fill="#36543B"/><circle cx="210" cy="474" r="4.56" fill="#36543B"/><circle cx="222" cy="474" r="4.56" fill="#36543B"/><circle cx="246" cy="474" r="4.56" fill="#36543B"/><circle cx="258" cy="474" r="4.56" fill="#36543B"/><circle cx="270" cy="474" r="4.56" fill="#36543B"/><circle cx="294" cy="474" r="4.56" fill="#36543B"/><circle cx="318" cy="474" r="4.56" fill="#36543B"/><circle cx="342" cy="474" r="4.56" fill="#36543B"/><circle cx="354" cy="474" r="4.56" fill="#36543B"/><circle cx="378" cy="474" r="4.56" fill="#36543B"/><circle cx="402" cy="474" r="4.56" fill="#36543B"/><circle cx="426" cy="474" r="4.56" fill="#36543B"/><circle cx="498" cy="474" r="4.56" fill="#36543B"/><circle cx="510" cy="474" r="4.56" fill="#36543B"/><circle cx="534" cy="474" r="4.56" fill="#36543B"/><rect x="145.44" y="481.44" width="9.12" height="9.12" rx="2.4" fill="#36543B"/><circle cx="162" cy="486" r="4.56" fill="#36543B"/><circle cx="174" cy="486" r="4.56" fill="#36543B"/><circle cx="186" cy="486" r="4.56" fill="#36543B"/><circle cx="210" cy="486" r="4.56" fill="#36543B"/><circle cx="222" cy="486" r="4.56" fill="#36543B"/><circle cx="234" cy="486" r="4.56" fill="#36543B"/><circle cx="258" cy="486" r="4.56" fill="#36543B"/><circle cx="270" cy="486" r="4.56" fill="#36543B"/><circle cx="282" cy="486" r="4.56" fill="#36543B"/><circle cx="294" cy="486" r="4.56" fill="#36543B"/><circle cx="306" cy="486" r="4.56" fill="#36543B"/><circle cx="318" cy="486" r="4.56" fill="#36543B"/><circle cx="330" cy="486" r="4.56" fill="#36543B"/><circle cx="354" cy="486" r="4.56" fill="#36543B"/><circle cx="366" cy="486" r="4.56" fill="#36543B"/><circle cx="402" cy="486" r="4.56" fill="#36543B"/><circle cx="426" cy="486" r="4.56" fill="#36543B"/><circle cx="510" cy="486" r="4.56" fill="#36543B"/><circle cx="522" cy="486" r="4.56" fill="#36543B"/><circle cx="534" cy="486" r="4.56" fill="#36543B"/><circle cx="186" cy="498" r="4.56" fill="#36543B"/><circle cx="210" cy="498" r="4.56" fill="#36543B"/><circle cx="222" cy="498" r="4.56" fill="#36543B"/><circle cx="234" cy="498" r="4.56" fill="#36543B"/><circle cx="246" cy="498" r="4.56" fill="#36543B"/><circle cx="270" cy="498" r="4.56" fill="#36543B"/><circle cx="282" cy="498" r="4.56" fill="#36543B"/><circle cx="294" cy="498" r="4.56" fill="#36543B"/><circle cx="342" cy="498" r="4.56" fill="#36543B"/><circle cx="354" cy="498" r="4.56" fill="#36543B"/><circle cx="378" cy="498" r="4.56" fill="#36543B"/><circle cx="390" cy="498" r="4.56" fill="#36543B"/><circle cx="414" cy="498" r="4.56" fill="#36543B"/><circle cx="426" cy="498" r="4.56" fill="#36543B"/><circle cx="450" cy="498" r="4.56" fill="#36543B"/><circle cx="474" cy="498" r="4.56" fill="#36543B"/><circle cx="486" cy="498" r="4.56" fill="#36543B"/><circle cx="498" cy="498" r="4.56" fill="#36543B"/><circle cx="522" cy="498" r="4.56" fill="#36543B"/><rect x="145.44" y="505.44" width="9.12" height="9.12" rx="2.4" fill="#36543B"/><circle cx="234" cy="510" r="4.56" fill="#36543B"/><circle cx="246" cy="510" r="4.56" fill="#36543B"/><circle cx="294" cy="510" r="4.56" fill="#36543B"/><circle cx="306" cy="510" r="4.56" fill="#36543B"/><circle cx="342" cy="510" r="4.56" fill="#36543B"/><circle cx="378" cy="510" r="4.56" fill="#36543B"/><circle cx="390" cy="510" r="4.56" fill="#36543B"/><circle cx="438" cy="510" r="4.56" fill="#36543B"/><circle cx="450" cy="510" r="4.56" fill="#36543B"/><circle cx="498" cy="510" r="4.56" fill="#36543B"/><circle cx="510" cy="510" r="4.56" fill="#36543B"/><circle cx="162" cy="522" r="4.56" fill="#36543B"/><circle cx="186" cy="522" r="4.56" fill="#36543B"/><circle cx="210" cy="522" r="4.56" fill="#36543B"/><circle cx="234" cy="522" r="4.56" fill="#36543B"/><circle cx="294" cy="522" r="4.56" fill="#36543B"/><circle cx="378" cy="522" r="4.56" fill="#36543B"/><circle cx="390" cy="522" r="4.56" fill="#36543B"/><circle cx="438" cy="522" r="4.56" fill="#36543B"/><circle cx="474" cy="522" r="4.56" fill="#36543B"/><circle cx="510" cy="522" r="4.56" fill="#36543B"/><rect x="145.44" y="529.44" width="9.12" height="9.12" rx="2.4" fill="#36543B"/><circle cx="210" cy="534" r="4.56" fill="#36543B"/><circle cx="246" cy="534" r="4.56" fill="#36543B"/><circle cx="258" cy="534" r="4.56" fill="#36543B"/><circle cx="270" cy="534" r="4.56" fill="#36543B"/><circle cx="282" cy="534" r="4.56" fill="#36543B"/><circle cx="330" cy="534" r="4.56" fill="#36543B"/><circle cx="354" cy="534" r="4.56" fill="#36543B"/><circle cx="378" cy="534" r="4.56" fill="#36543B"/><circle cx="402" cy="534" r="4.56" fill="#36543B"/><circle cx="414" cy="534" r="4.56" fill="#36543B"/><circle cx="498" cy="534" r="4.56" fill="#36543B"/><circle cx="522" cy="534" r="4.56" fill="#36543B"/><rect x="48" y="48" width="84" height="84" rx="18" fill="#C86D4B"/><rect x="60" y="60" width="60" height="60" rx="13.2" fill="#FFFAF2"/><rect x="72" y="72" width="36" height="36" rx="8.64" fill="#36543B"/><rect x="456" y="48" width="84" height="84" rx="18" fill="#C86D4B"/><rect x="468" y="60" width="60" height="60" rx="13.2" fill="#FFFAF2"/><rect x="480" y="72" width="36" height="36" rx="8.64" fill="#36543B"/><rect x="48" y="456" width="84" height="84" rx="18" fill="#C86D4B"/><rect x="60" y="468" width="60" height="60" rx="13.2" fill="#FFFAF2"/><rect x="72" y="480" width="36" height="36" rx="8.64" fill="#36543B"/><rect x="432" y="432" width="60" height="60" rx="12.6" fill="#36543B"/><rect x="444" y="444" width="36" height="36" rx="8.16" fill="#FFFAF2"/><rect x="456" y="456" width="12" height="12" rx="2.88" fill="#36543B"/></svg>